<?xml version="1.0" encoding="UTF-8"?>
<svg width="387px" height="403px" viewBox="0 0 387 403" version="1.1" xmlns="http://www.w3.org/2000/svg" xmlns:xlink="http://www.w3.org/1999/xlink">
    <!-- Generator: Sketch 49.3 (51167) - http://www.bohemiancoding.com/sketch -->
    <title>graphic_about-us</title>
    <desc>Created with Sketch.</desc>
    <defs>
        <polygon id="path-1" points="-0.000381552038 402.039809 386.830712 402.039809 386.830712 0 -0.000381552038 0"></polygon>
    </defs>
    <g id="04-About-us" stroke="none" stroke-width="1" fill="none" fill-rule="evenodd">
        <g id="00a-Landing-page" transform="translate(-851.000000, -178.000000)">
            <g id="Page-1" transform="translate(851.000000, 178.000000)">
                <path d="M112.745517,392.885401 C113.951067,391.757001 115.472022,390.989549 117.175211,390.71621 L117.175211,345.047549 C114.63795,345.66081 112.745517,347.938636 112.745517,350.65801 L112.745517,392.885401 Z" id="Fill-1" fill="#FDDC4C"></path>
                <mask id="mask-2" fill="white">
                    <use xlink:href="#path-1"></use>
                </mask>
                <g id="Clip-4"></g>
                <path d="M128.447099,372.207296 L148.832802,372.207296 L148.832802,369.498435 L128.447099,369.498435 L128.447099,372.207296 Z M128.447099,364.953296 L148.832802,364.953296 L148.832802,362.24093 L128.447099,362.24093 L128.447099,364.953296 Z M128.447099,357.688783 L148.832802,357.688783 L148.832802,354.979922 L128.447099,354.979922 L128.447099,357.688783 Z M119.885595,390.577087 L157.397811,390.577087 L157.397811,344.873383 L119.885595,344.873383 L119.885595,390.577087 Z" id="Fill-3" fill="#64ACDE" mask="url(#mask-2)"></path>
                <path d="M117.174159,342.161368 L140.514159,342.161368 L140.514159,322.950533 L93.066673,346.468211 L93.066673,358.617785 L78.4423757,358.617785 L78.4423757,346.464707 L30.9948892,322.950533 L30.9948892,377.513229 L110.035484,377.513229 L110.035484,350.659411 C110.035484,346.436672 113.13697,342.956855 117.174159,342.301542 L117.174159,342.161368 Z" id="Fill-5" fill="#D9DCE4" mask="url(#mask-2)"></path>
                <path d="M32.6963261,375.815372 L108.337551,375.815372 L108.337551,350.657659 C108.337551,345.849694 111.652813,341.767129 116.310299,340.73685 C116.562623,340.568642 116.860506,340.463511 117.172407,340.463511 L138.809218,340.463511 L138.809218,325.689181 L94.7716144,347.521268 L94.7716144,358.619537 C94.7716144,359.558703 94.0076324,360.32265 93.0684252,360.32265 L78.4441279,360.32265 C77.5014162,360.32265 76.7409387,359.558703 76.7409387,358.619537 L76.7409387,347.517763 L32.6963261,325.685677 L32.6963261,375.815372 Z M110.033732,379.21459 L30.9966414,379.21459 C30.0574342,379.21459 29.2969568,378.454146 29.2969568,377.511477 L29.2969568,322.948781 C29.2969568,322.36005 29.5983441,321.816877 30.1029928,321.508494 C30.6006324,321.196607 31.2244342,321.161563 31.7501099,321.42439 L79.1940919,344.938563 C79.7758396,345.22592 80.1438126,345.81465 80.1438126,346.462955 L80.1438126,356.919929 L91.3687405,356.919929 L91.3687405,346.466459 C91.3687405,345.818155 91.7367135,345.229424 92.3149568,344.942068 L139.758939,321.42439 C140.28111,321.161563 140.908416,321.196607 141.406056,321.508494 C141.910705,321.816877 142.212092,322.36005 142.212092,322.948781 L142.212092,342.159616 C142.212092,343.098781 141.451614,343.862729 140.515912,343.862729 L117.824245,343.862729 C117.705092,343.915294 117.57893,343.953842 117.449263,343.981877 C114.137506,344.511033 111.736921,347.325024 111.736921,350.657659 L111.736921,377.511477 C111.736921,378.454146 110.972939,379.21459 110.033732,379.21459 Z" id="Fill-6" fill="#153257" mask="url(#mask-2)"></path>
                <polygon id="Fill-7" fill="#FDDC4C" mask="url(#mask-2)" points="68.4534865 288.873904 103.053459 288.873904 103.053459 283.519261 68.4534865 283.519261"></polygon>
                <polygon id="Fill-8" fill="#FDDC4C" mask="url(#mask-2)" points="78.4430766 336.049435 93.0673739 336.049435 93.0673739 343.440104 140.51486 319.929435 140.51486 301.265278 30.9955901 301.265278 30.9955901 319.929435 78.4430766 343.4366"></polygon>
                <path d="M78.4430766,334.351929 L93.0673739,334.351929 C94.0065811,334.351929 94.7705631,335.112372 94.7705631,336.048033 L94.7705631,340.698303 L138.811671,318.873224 L138.811671,302.963485 L32.6952748,302.963485 L32.6952748,318.873224 L76.7433919,340.698303 L76.7433919,336.048033 C76.7433919,335.112372 77.5003649,334.351929 78.4430766,334.351929 M93.0673739,345.138311 C92.7589775,345.138311 92.4470766,345.057711 92.1702207,344.882494 C91.6725811,344.574111 91.3711937,344.030937 91.3711937,343.442207 L91.3711937,337.75465 L80.1427613,337.75465 L80.1427613,343.438703 C80.1427613,344.030937 79.8378694,344.574111 79.3367252,344.882494 C78.8355811,345.190877 78.2152838,345.222416 77.6861036,344.963094 L30.2421216,321.44892 C29.6638784,321.165068 29.2994099,320.572833 29.2994099,319.931537 L29.2994099,301.267381 C29.2994099,300.328216 30.0563829,299.564268 30.9955901,299.564268 L140.51486,299.564268 C141.454068,299.564268 142.211041,300.328216 142.211041,301.267381 L142.211041,319.931537 C142.211041,320.572833 141.850077,321.165068 141.268329,321.44892 L93.8278514,344.963094 C93.5860405,345.078737 93.3267072,345.138311 93.0673739,345.138311" id="Fill-9" fill="#153257" mask="url(#mask-2)"></path>
                <path d="M84.6583153,144.326565 L153.889802,144.326565 C162.076324,144.326565 168.738387,137.671809 168.738387,129.489157 C168.738387,121.295991 162.076324,114.634226 153.889802,114.634226 C150.774297,114.634226 147.784955,115.608435 145.23718,117.437704 L143.866919,118.42593 L143.204568,116.87 C139.356622,107.835791 130.535784,101.997548 120.716162,101.997548 C108.029856,101.997548 97.5794234,111.515357 96.4054144,124.134513 L96.0935135,127.470652 L93.9978198,124.856409 C91.7093784,122.007374 88.3065045,120.363835 84.6583153,120.363835 C78.0488198,120.363835 72.6729099,125.743009 72.6729099,132.348704 C72.6729099,138.950896 78.0488198,144.326565 84.6583153,144.326565" id="Fill-10" fill="#F5B650" mask="url(#mask-2)"></path>
                <path d="M284.151533,300.62959 C279.427461,295.905729 273.150894,293.305503 266.471308,293.305503 C259.798732,293.305503 253.518659,295.905729 248.791083,300.62959 C239.045056,310.375181 239.045056,326.239363 248.791083,335.988459 C253.518659,340.71232 259.798732,343.31605 266.471308,343.31605 C273.150894,343.31605 279.427461,340.71232 284.151533,335.988459 C288.875605,331.261094 291.482957,324.988311 291.482957,318.309024 C291.482957,311.629737 288.875605,305.349946 284.151533,300.62959" id="Fill-11" fill="#A0DCF6" mask="url(#mask-2)"></path>
                <path d="M266.471308,295.003359 C260.250813,295.003359 254.394786,297.424863 249.996632,301.829829 C245.601984,306.224281 243.180371,312.076542 243.180371,318.307272 C243.180371,324.545011 245.601984,330.390263 249.996632,334.784716 C254.39829,339.186177 260.250813,341.61469 266.471308,341.61469 C272.691804,341.61469 278.544326,339.186177 282.949488,334.784716 C287.35465,330.37975 289.776263,324.52749 289.776263,318.307272 C289.776263,312.08355 287.35465,306.23129 282.949488,301.829829 C278.547831,297.424863 272.691804,295.003359 266.471308,295.003359 M266.471308,345.010403 C259.339641,345.010403 252.635524,342.231455 247.592542,337.185194 C242.556569,332.156455 239.784506,325.449133 239.784506,318.307272 C239.784506,311.168916 242.556569,304.461594 247.592542,299.425846 C252.63202,294.38309 259.339641,291.604142 266.471308,291.604142 C273.602975,291.604142 280.310596,294.38309 285.357083,299.425846 C290.400065,304.465098 293.179137,311.17242 293.179137,318.307272 C293.179137,325.442124 290.400065,332.145942 285.357083,337.185194 C280.310596,342.231455 273.602975,345.010403 266.471308,345.010403" id="Fill-12" fill="#153257" mask="url(#mask-2)"></path>
                <path d="M158.266227,18.4917426 L190.854614,18.4917426 C194.31356,18.4917426 197.127677,15.6777513 197.127677,12.2224643 C197.127677,8.76367304 194.31356,5.95318609 190.854614,5.95318609 C189.540425,5.95318609 188.278804,6.35969043 187.202921,7.1341513 L185.82565,8.11887304 L185.170308,6.56294261 C183.467119,2.57849913 179.573614,-0.000700869565 175.242047,-0.000700869565 C169.638344,-0.000700869565 165.026416,4.20101217 164.511254,9.76942087 L164.195849,13.10556 L162.103659,10.4913165 C161.164452,9.32086435 159.76265,8.64452522 158.266227,8.64452522 C155.553741,8.64452522 153.342398,10.8522643 153.342398,13.5716383 C153.342398,16.2840035 155.553741,18.4917426 158.266227,18.4917426" id="Fill-13" fill="#F5B650" mask="url(#mask-2)"></path>
                <path d="M332.574323,193.059077 C328.537134,193.059077 325.246405,196.346156 325.246405,200.383164 C325.246405,204.427182 328.537134,207.71426 332.574323,207.71426 L377.635242,207.71426 C382.709765,207.71426 386.831062,203.589643 386.831062,198.522356 C386.831062,193.44806 382.709765,189.333956 377.635242,189.333956 C375.711269,189.333956 373.857386,189.92619 372.283864,191.065103 L370.910098,192.05333 L370.247747,190.497399 C367.82263,184.788817 362.243459,181.102243 356.047495,181.102243 C348.032693,181.102243 341.426702,187.115703 340.690756,195.088095 L340.382359,198.424234 L338.286666,195.806486 C336.888368,194.061321 334.803188,193.059077 332.574323,193.059077" id="Fill-14" fill="#F5B650" mask="url(#mask-2)"></path>
                <polygon id="Fill-15" fill="#FDDC4C" mask="url(#mask-2)" points="310.442326 77.3504183 316.564695 64.3352704 304.316452 64.3352704"></polygon>
                <path d="M306.99915,66.0366313 L310.440574,73.3572139 L313.889006,66.0366313 L306.99915,66.0366313 Z M310.440574,79.0482748 C309.785232,79.0482748 309.182457,78.6698052 308.905601,78.0740661 L302.779727,65.0589183 C302.530907,64.5297617 302.569457,63.9165009 302.881358,63.4223878 C303.193259,62.9317791 303.732952,62.6374139 304.3147,62.6374139 L316.562943,62.6374139 C317.148195,62.6374139 317.691394,62.9317791 317.99979,63.4223878 C318.315195,63.9165009 318.350241,64.5297617 318.104925,65.0589183 L311.979051,78.0740661 C311.702195,78.6698052 311.099421,79.0482748 310.440574,79.0482748 Z" id="Fill-16" fill="#153257" mask="url(#mask-2)"></path>
                <path d="M265.047778,232.404143 C275.662923,232.404143 283.369328,220.699621 283.369328,204.579621 C283.369328,191.36823 276.006364,182.491717 265.047778,182.491717 C255.224652,182.491717 248.30676,189.633577 246.971544,200.623212 L246.75076,203.608917 C246.743751,203.931317 246.71922,204.246708 246.71922,204.579621 C246.71922,220.699621 254.425625,232.404143 265.047778,232.404143" id="Fill-17" fill="#FDDC4C" mask="url(#mask-2)"></path>
                <path d="M265.047778,184.192026 C256.184886,184.192026 249.908319,190.566435 248.660715,200.823661 L248.436427,204.082704 C248.425914,204.243904 248.418905,204.408609 248.418905,204.576817 C248.418905,219.7156 255.410391,230.705235 265.047778,230.705235 C274.678157,230.705235 281.666139,219.7156 281.666139,204.576817 C281.666139,192.381687 274.986553,184.192026 265.047778,184.192026 M265.047778,234.104452 C253.437355,234.104452 245.019535,221.681539 245.019535,204.576817 C245.019535,204.352539 245.026544,204.131765 245.040562,203.914496 L245.05458,203.564061 L245.278868,200.501261 C246.729733,188.49887 254.485202,180.792809 265.047778,180.792809 C277.019166,180.792809 285.069013,190.35267 285.069013,204.576817 C285.069013,221.681539 276.651193,234.104452 265.047778,234.104452" id="Fill-18" fill="#153257" mask="url(#mask-2)"></path>
                <path d="M126.510159,232.404143 C137.125304,232.404143 144.835214,220.699621 144.835214,204.579621 C144.835214,191.36823 137.47225,182.491717 126.510159,182.491717 C116.687033,182.491717 109.77615,189.633577 108.440934,200.623212 L108.223655,203.608917 C108.213141,203.931317 108.18861,204.246708 108.18861,204.579621 C108.18861,220.699621 115.895015,232.404143 126.510159,232.404143" id="Fill-19" fill="#FDDC4C" mask="url(#mask-2)"></path>
                <path d="M126.510159,184.192026 C117.654277,184.192026 111.374205,190.566435 110.130105,200.823661 L109.909322,204.026635 C109.898808,204.205357 109.891799,204.387583 109.891799,204.576817 C109.891799,219.7156 116.879781,230.705235 126.510159,230.705235 C136.144042,230.705235 143.135529,219.7156 143.135529,204.576817 C143.135529,192.381687 136.455943,184.192026 126.510159,184.192026 M126.510159,234.104452 C114.906745,234.104452 106.488925,221.681539 106.488925,204.576817 C106.488925,204.335017 106.499439,204.100226 106.509952,203.86193 L106.52397,203.553548 L106.74125,200.501261 C108.199123,188.49887 115.954592,180.792809 126.510159,180.792809 C138.488556,180.792809 146.538403,190.35267 146.538403,204.576817 C146.538403,221.681539 138.113574,234.104452 126.510159,234.104452" id="Fill-20" fill="#153257" mask="url(#mask-2)"></path>
                <path d="M195.778794,233.944303 C208.752469,233.944303 218.176082,219.702634 218.176082,200.078286 C218.176082,183.968799 209.17301,173.147373 195.778794,173.147373 C182.948803,173.147373 174.173523,183.085703 173.451595,198.080808 L173.409541,201.003434 C173.70392,220.133669 183.004875,233.944303 195.778794,233.944303" id="Fill-21" fill="#FDDC4C" mask="url(#mask-2)"></path>
                <path d="M195.778794,174.849435 C183.926559,174.849435 175.834659,183.999287 175.147776,198.153348 L175.112731,201.023409 C175.389586,219.091826 184.080758,232.243643 195.778794,232.243643 C207.771208,232.243643 216.469388,218.716861 216.469388,200.077235 C216.469388,184.987513 208.156704,174.849435 195.778794,174.849435 M195.778794,235.642861 C182.139262,235.642861 172.018253,221.082296 171.713361,201.026913 L171.755415,198.051722 C172.515893,182.113948 182.170803,171.443209 195.778794,171.443209 C210.189316,171.443209 219.872262,182.958496 219.872262,200.077235 C219.872262,220.6828 209.74074,235.642861 195.778794,235.642861" id="Fill-22" fill="#153257" mask="url(#mask-2)"></path>
                <polygon id="Fill-23" fill="#A0DCF6" mask="url(#mask-2)" points="304.208514 64.3363217 316.670532 64.3363217 316.670532 20.945487 304.208514 20.945487"></polygon>
                <path d="M305.911703,62.636713 L314.974351,62.636713 L314.974351,22.6450957 L305.911703,22.6450957 L305.911703,62.636713 Z M316.670532,66.0359304 L304.208514,66.0359304 C303.269306,66.0359304 302.508829,65.2719826 302.508829,64.3363217 L302.508829,20.945487 C302.508829,20.0063217 303.269306,19.2493826 304.208514,19.2493826 L316.670532,19.2493826 C317.613243,19.2493826 318.373721,20.0063217 318.373721,20.945487 L318.373721,64.3363217 C318.373721,65.2719826 317.613243,66.0359304 316.670532,66.0359304 Z" id="Fill-24" fill="#143256" mask="url(#mask-2)"></path>
                <path d="M145.64125,245.182747 C144.039691,244.264608 142.4907,243.349973 141.046844,242.34773 L139.003718,240.742738 C136.788871,238.790817 135.155772,236.376321 134.661637,232.973599 C132.190961,234.347303 129.450439,235.107747 126.510159,235.107747 C123.573385,235.107747 120.836367,234.347303 118.365691,232.970095 C117.440502,239.326982 112.562232,242.197043 107.379069,245.182747 C99.8373757,249.538651 91.3074117,254.455251 90.8833667,271.829808 L150.792871,271.829808 C152.194673,264.828121 154.928186,259.876477 158.250457,256.144347 C154.970241,250.610982 150.042907,247.723399 145.64125,245.182747" id="Fill-25" fill="#64ACDE" mask="url(#mask-2)"></path>
                <path d="M92.6562955,270.127396 L149.418755,270.127396 C150.711917,264.573004 152.91625,259.929743 156.140395,255.997865 C153.056431,251.424691 148.679305,248.898057 144.792809,246.662283 C143.250827,245.772178 141.617728,244.808483 140.07925,243.743161 L137.955521,242.078596 C135.719647,240.116161 134.251259,237.929448 133.476764,235.430848 C129.040061,237.263622 123.983061,237.27063 119.553368,235.430848 C117.811629,241.135926 112.947377,243.9359 108.230314,246.658778 C101.00753,250.825448 93.5429351,255.128787 92.6562955,270.127396 M150.792521,273.526613 L90.8830162,273.526613 C90.4239261,273.526613 89.9858631,273.340883 89.6669532,273.014978 C89.3515477,272.68557 89.172818,272.244022 89.186836,271.784952 C89.6319081,253.460717 99.0029532,248.053509 106.534133,243.711622 C111.3318,240.946691 115.866629,238.332448 116.679674,232.721987 C116.760277,232.1683 117.110728,231.691709 117.611872,231.439396 C118.113016,231.194091 118.708782,231.211613 119.192404,231.484952 C123.765782,234.039622 129.246827,234.043126 133.834223,231.484952 C134.32135,231.211613 134.917115,231.197596 135.414755,231.446404 C135.919404,231.691709 136.262845,232.171804 136.343449,232.725491 C136.728944,235.3923 137.930989,237.529952 140.128314,239.467857 L142.10135,241.006265 C143.447079,241.94543 145.010088,242.860065 146.488989,243.711622 C150.79953,246.196204 156.157917,249.283535 159.70798,255.279474 C160.086467,255.910257 160.009368,256.716257 159.518737,257.273448 C155.975683,261.257891 153.666214,266.12543 152.45716,272.159917 C152.302962,272.958909 151.602061,273.526613 150.792521,273.526613" id="Fill-26" fill="#153257" mask="url(#mask-2)"></path>
                <path d="M284.171859,245.182747 C282.819121,244.404782 281.490914,243.633825 280.24331,242.806799 L277.688526,240.882912 C275.39658,238.909964 273.7004,236.460425 273.192247,232.973599 C270.721571,234.347303 267.984553,235.107747 265.047778,235.107747 C262.103995,235.107747 259.366977,234.347303 256.896301,232.973599 C255.971112,239.330486 251.096346,242.197043 245.916688,245.182747 C241.515031,247.723399 236.587697,250.610982 233.307481,256.144347 C236.629751,259.876477 239.363265,264.828121 240.761562,271.829808 L300.674571,271.829808 C300.254031,254.455251 291.720562,249.538651 284.171859,245.182747" id="Fill-27" fill="#64ACDE" mask="url(#mask-2)"></path>
                <path d="M242.131823,270.127396 L298.901292,270.127396 C298.011148,255.128787 290.550058,250.825448 283.323769,246.658778 C281.932481,245.852778 280.579742,245.0643 279.304103,244.223257 L276.668715,242.239796 C274.331211,240.235309 272.806751,238.006543 272.007724,235.430848 C267.574526,237.263622 262.521031,237.263622 258.087832,235.430848 C256.342589,241.135926 251.485346,243.9359 246.764778,246.662283 C242.874778,248.898057 238.497652,251.424691 235.413688,255.997865 C238.634328,259.929743 240.84567,264.573004 242.131823,270.127396 M300.674571,273.526613 L240.761562,273.526613 C239.952022,273.526613 239.25813,272.958909 239.096923,272.159917 C237.887868,266.12543 235.5784,261.254387 232.035346,257.273448 C231.544715,256.716257 231.467616,255.910257 231.842598,255.279474 C235.396166,249.290543 240.758058,246.196204 245.068598,243.711622 C250.08004,240.824039 254.401094,238.332448 255.210634,232.725491 C255.294742,232.171804 255.641688,231.691709 256.142832,231.446404 C256.647481,231.197596 257.239742,231.211613 257.723364,231.484952 C262.307256,234.043126 267.784796,234.043126 272.365184,231.484952 C272.85231,231.211613 273.444571,231.197596 273.945715,231.446404 C274.446859,231.691709 274.793805,232.171804 274.874409,232.725491 C275.270418,235.44837 276.521526,237.631578 278.799454,239.594013 L281.263121,241.447813 C282.370544,242.173213 283.677724,242.937161 285.01995,243.711622 C292.558139,248.053509 301.925679,253.460717 302.370751,271.784952 C302.384769,272.244022 302.213049,272.68557 301.894139,273.014978 C301.571724,273.340883 301.133661,273.526613 300.674571,273.526613" id="Fill-28" fill="#153257" mask="url(#mask-2)"></path>
                <polygon id="Fill-29" fill="#64ACDE" mask="url(#mask-2)" points="309.696568 62.6507304 315.047946 62.6507304 315.047946 22.6310783 309.696568 22.6310783"></polygon>
                <path d="M219.003145,248.851449 C217.860677,248.189127 216.74274,247.519797 215.642325,246.846962 L212.898298,244.996666 C209.257118,242.343875 206.488559,239.056797 205.857749,233.905405 C202.815839,235.678605 199.423478,236.652814 195.778794,236.652814 C192.134109,236.652814 188.738244,235.678605 185.696334,233.905405 C184.739605,241.723605 178.838019,245.220944 172.550938,248.851449 C163.334091,254.16404 152.911695,260.173997 152.491154,281.525988 L239.073442,281.525988 C238.649397,260.173997 228.223496,254.16404 219.003145,248.851449" id="Fill-30" fill="#D9DCE4" mask="url(#mask-2)"></path>
                <path d="M154.245159,279.825678 L237.312429,279.825678 C236.415276,260.849635 227.142357,255.498496 218.156807,250.326078 C216.993312,249.649739 215.861357,248.976904 214.753933,248.293557 L211.946825,246.411722 C209.342978,244.508861 205.964636,241.519652 204.618906,236.45587 C199.04324,238.975496 192.514348,238.975496 186.942186,236.459374 C185.081294,243.583713 179.151672,247.003957 173.404285,250.322574 C164.42224,255.498496 155.142312,260.849635 154.245159,279.825678 M239.07169,283.2284 L152.489402,283.2284 C152.030312,283.2284 151.595753,283.04267 151.273339,282.716765 C150.954429,282.390861 150.782708,281.949313 150.789717,281.493748 C151.22778,259.178061 162.582375,252.631939 171.7046,247.375417 C177.585159,243.979704 183.143303,240.769722 184.01242,233.701452 C184.08251,233.130243 184.429456,232.63613 184.944618,232.383817 C185.456276,232.124496 186.062555,232.149026 186.55669,232.439887 C192.262023,235.772522 199.28505,235.776026 204.997393,232.439887 C205.495032,232.149026 206.101312,232.131504 206.612969,232.383817 C207.128132,232.63613 207.475077,233.130243 207.545168,233.701452 C208.039303,237.717435 209.994816,240.77673 213.898834,243.62927 L216.593798,245.437513 C217.620618,246.064791 218.721032,246.720104 219.859996,247.375417 C228.975213,252.635443 240.329807,259.181565 240.76787,281.493748 C240.774879,281.949313 240.599654,282.390861 240.284249,282.716765 C239.961834,283.04267 239.523771,283.2284 239.07169,283.2284" id="Fill-31" fill="#153257" mask="url(#mask-2)"></path>
                <polygon id="Fill-32" fill="#FDDC4C" mask="url(#mask-2)" points="304.208514 20.945487 316.670532 20.945487 316.670532 10.4569739 304.208514 10.4569739"></polygon>
                <path d="M305.911703,19.2493826 L314.974351,19.2493826 L314.974351,12.160087 L305.911703,12.160087 L305.911703,19.2493826 Z M316.670532,22.6450957 L304.208514,22.6450957 C303.269306,22.6450957 302.508829,21.8881565 302.508829,20.945487 L302.508829,10.4569739 C302.508829,9.5178087 303.269306,8.75386087 304.208514,8.75386087 L316.670532,8.75386087 C317.613243,8.75386087 318.373721,9.5178087 318.373721,10.4569739 L318.373721,20.945487 C318.373721,21.8881565 317.613243,22.6450957 316.670532,22.6450957 Z" id="Fill-33" fill="#133256" mask="url(#mask-2)"></path>
                <path d="M95.7675946,394.582907 L63.2633153,394.582907 C62.3276126,394.582907 61.5636306,393.822463 61.5636306,392.886803 C61.5636306,391.947637 62.3276126,391.18369 63.2633153,391.18369 L95.7675946,391.18369 C96.7068018,391.18369 97.4672793,391.947637 97.4672793,392.886803 C97.4672793,393.822463 96.7068018,394.582907 95.7675946,394.582907" id="Fill-34" fill="#153257" mask="url(#mask-2)"></path>
                <path d="M173.410242,44.3398122 L114.955107,44.3398122 C114.019405,44.3398122 113.258927,43.5793687 113.258927,42.6402035 C113.258927,41.7010383 114.019405,40.9440991 114.955107,40.9440991 L173.410242,40.9440991 C174.34945,40.9440991 175.109927,41.7010383 175.109927,42.6402035 C175.109927,43.5793687 174.34945,44.3398122 173.410242,44.3398122" id="Fill-35" fill="#153257" mask="url(#mask-2)"></path>
                <path d="M131.212504,68.9522487 L98.7082243,68.9522487 C97.7690171,68.9522487 97.0085396,68.1883009 97.0085396,67.25264 C97.0085396,66.3099704 97.7690171,65.5530313 98.7082243,65.5530313 L131.212504,65.5530313 C132.151711,65.5530313 132.908684,66.3099704 132.908684,67.25264 C132.908684,68.1883009 132.151711,68.9522487 131.212504,68.9522487" id="Fill-36" fill="#153257" mask="url(#mask-2)"></path>
                <path d="M148.834554,402.039809 L118.76941,402.039809 C117.830203,402.039809 117.07323,401.279365 117.07323,400.3402 C117.07323,399.401035 117.830203,398.640591 118.76941,398.640591 L148.834554,398.640591 C149.777266,398.640591 150.534239,399.401035 150.534239,400.3402 C150.534239,401.279365 149.777266,402.039809 148.834554,402.039809" id="Fill-37" fill="#153257" mask="url(#mask-2)"></path>
                <path d="M35.5920982,200.406293 L18.2272784,200.406293 C17.2880712,200.406293 16.5240892,199.64585 16.5240892,198.710189 C16.5240892,197.771023 17.2880712,197.007076 18.2272784,197.007076 L35.5920982,197.007076 C36.5278009,197.007076 37.2882784,197.771023 37.2882784,198.710189 C37.2882784,199.64585 36.5278009,200.406293 35.5920982,200.406293" id="Fill-38" fill="#153257" mask="url(#mask-2)"></path>
                <path d="M35.5920982,209.574718 L18.2272784,209.574718 C17.2880712,209.574718 16.5240892,208.817779 16.5240892,207.87511 C16.5240892,206.935944 17.2880712,206.179005 18.2272784,206.179005 L35.5920982,206.179005 C36.5278009,206.179005 37.2882784,206.935944 37.2882784,207.87511 C37.2882784,208.817779 36.5278009,209.574718 35.5920982,209.574718" id="Fill-39" fill="#153257" mask="url(#mask-2)"></path>
                <path d="M149.621315,357.982447 L127.977495,357.982447 C127.038288,357.982447 126.277811,357.222003 126.277811,356.282838 C126.277811,355.340169 127.038288,354.579725 127.977495,354.579725 L149.621315,354.579725 C150.564027,354.579725 151.321,355.340169 151.321,356.282838 C151.321,357.222003 150.564027,357.982447 149.621315,357.982447" id="Fill-40" fill="#153257" mask="url(#mask-2)"></path>
                <path d="M149.463963,365.631037 L127.816639,365.631037 C126.880936,365.631037 126.120459,364.870593 126.120459,363.934932 C126.120459,362.992263 126.880936,362.231819 127.816639,362.231819 L149.463963,362.231819 C150.40317,362.231819 151.160143,362.992263 151.160143,363.934932 C151.160143,364.870593 150.40317,365.631037 149.463963,365.631037" id="Fill-41" fill="#153257" mask="url(#mask-2)"></path>
                <path d="M149.460459,372.715076 L127.816639,372.715076 C126.880936,372.715076 126.120459,371.954632 126.120459,371.011963 C126.120459,370.072797 126.880936,369.315858 127.816639,369.315858 L149.460459,369.315858 C150.40317,369.315858 151.160143,370.072797 151.160143,371.011963 C151.160143,371.954632 150.40317,372.715076 149.460459,372.715076" id="Fill-42" fill="#153257" mask="url(#mask-2)"></path>
                <path d="M206.436693,378.334297 L204.737008,378.334297 C203.797801,378.334297 203.037323,377.573854 203.037323,376.634689 C203.037323,375.695523 203.797801,374.931576 204.737008,374.931576 L206.436693,374.931576 C207.372395,374.931576 208.136377,375.695523 208.136377,376.634689 C208.136377,377.573854 207.372395,378.334297 206.436693,378.334297 M214.935116,378.334297 L213.235432,378.334297 C212.299729,378.334297 211.535747,377.573854 211.535747,376.634689 C211.535747,375.695523 212.299729,374.931576 213.235432,374.931576 L214.935116,374.931576 C215.874323,374.931576 216.634801,375.695523 216.634801,376.634689 C216.634801,377.573854 215.874323,378.334297 214.935116,378.334297 M223.43354,378.334297 L221.737359,378.334297 C220.798152,378.334297 220.03417,377.573854 220.03417,376.634689 C220.03417,375.695523 220.798152,374.931576 221.737359,374.931576 L223.43354,374.931576 C224.372747,374.931576 225.136729,375.695523 225.136729,376.634689 C225.136729,377.573854 224.372747,378.334297 223.43354,378.334297 M231.935468,378.334297 L230.235783,378.334297 C229.293071,378.334297 228.536098,377.573854 228.536098,376.634689 C228.536098,375.695523 229.293071,374.931576 230.235783,374.931576 L231.935468,374.931576 C232.874675,374.931576 233.635152,375.695523 233.635152,376.634689 C233.635152,377.573854 232.874675,378.334297 231.935468,378.334297 M240.437395,378.334297 L238.734206,378.334297 C237.794999,378.334297 237.034522,377.573854 237.034522,376.634689 C237.034522,375.695523 237.794999,374.931576 238.734206,374.931576 L240.437395,374.931576 C241.376603,374.931576 242.133576,375.695523 242.133576,376.634689 C242.133576,377.573854 241.376603,378.334297 240.437395,378.334297" id="Fill-43" fill="#153257" mask="url(#mask-2)"></path>
                <path d="M25.9648739,121.000925 L24.2651892,121.000925 C23.325982,121.000925 22.5655045,120.243986 22.5655045,119.301317 C22.5655045,118.362151 23.325982,117.601708 24.2651892,117.601708 L25.9648739,117.601708 C26.9040811,117.601708 27.6645586,118.362151 27.6645586,119.301317 C27.6645586,120.243986 26.9040811,121.000925 25.9648739,121.000925 M34.4632973,121.000925 L32.7636126,121.000925 C31.8244054,121.000925 31.0639279,120.243986 31.0639279,119.301317 C31.0639279,118.362151 31.8244054,117.601708 32.7636126,117.601708 L34.4632973,117.601708 C35.4025045,117.601708 36.1664865,118.362151 36.1664865,119.301317 C36.1664865,120.243986 35.4025045,121.000925 34.4632973,121.000925 M42.9652252,121.000925 L41.2655405,121.000925 C40.3298378,121.000925 39.5658559,120.243986 39.5658559,119.301317 C39.5658559,118.362151 40.3298378,117.601708 41.2655405,117.601708 L42.9652252,117.601708 C43.9044324,117.601708 44.6684144,118.362151 44.6684144,119.301317 C44.6684144,120.243986 43.9044324,121.000925 42.9652252,121.000925" id="Fill-44" fill="#153257" mask="url(#mask-2)"></path>
                <path d="M41.258882,164.34305 L39.5627018,164.34305 C38.6164856,164.34305 37.8560081,163.579102 37.8560081,162.639937 C37.8560081,161.700771 38.6164856,160.936823 39.5627018,160.936823 L41.258882,160.936823 C42.1980892,160.936823 42.9550622,161.700771 42.9550622,162.639937 C42.9550622,163.579102 42.1980892,164.34305 41.258882,164.34305 M49.7608099,164.34305 L48.0576207,164.34305 C47.1184135,164.34305 46.357936,163.579102 46.357936,162.639937 C46.357936,161.700771 47.1184135,160.936823 48.0576207,160.936823 L49.7608099,160.936823 C50.6965126,160.936823 51.4569901,161.700771 51.4569901,162.639937 C51.4569901,163.579102 50.6965126,164.34305 49.7608099,164.34305 M58.2627378,164.34305 L56.5560441,164.34305 C55.6203414,164.34305 54.859864,163.579102 54.859864,162.639937 C54.859864,161.700771 55.6203414,160.936823 56.5560441,160.936823 L58.2627378,160.936823 C59.1984405,160.936823 59.958918,161.700771 59.958918,162.639937 C59.958918,163.579102 59.1984405,164.34305 58.2627378,164.34305 M66.7611613,164.34305 L65.0579721,164.34305 C64.1187649,164.34305 63.3582874,163.579102 63.3582874,162.639937 C63.3582874,161.700771 64.1187649,160.936823 65.0579721,160.936823 L66.7611613,160.936823 C67.696864,160.936823 68.4608459,161.700771 68.4608459,162.639937 C68.4608459,163.579102 67.696864,164.34305 66.7611613,164.34305 M75.2560802,164.34305 L73.5599,164.34305 C72.6171883,164.34305 71.8567108,163.579102 71.8567108,162.639937 C71.8567108,161.700771 72.6171883,160.936823 73.5599,160.936823 L75.2560802,160.936823 C76.1987919,160.936823 76.9592694,161.700771 76.9592694,162.639937 C76.9592694,163.579102 76.1987919,164.34305 75.2560802,164.34305 M83.7580081,164.34305 L82.0583234,164.34305 C81.1191162,164.34305 80.3551342,163.579102 80.3551342,162.639937 C80.3551342,161.700771 81.1191162,160.936823 82.0583234,160.936823 L83.7580081,160.936823 C84.6972153,160.936823 85.4576928,161.700771 85.4576928,162.639937 C85.4576928,163.579102 84.6972153,164.34305 83.7580081,164.34305 M92.259936,164.34305 L90.5567468,164.34305 C89.6175396,164.34305 88.8570622,163.579102 88.8570622,162.639937 C88.8570622,161.700771 89.6175396,160.936823 90.5567468,160.936823 L92.259936,160.936823 C93.1956387,160.936823 93.9561162,161.700771 93.9561162,162.639937 C93.9561162,163.579102 93.1956387,164.34305 92.259936,164.34305 M100.183621,164.34305 L99.0551703,164.34305 C98.1194676,164.34305 97.3589901,163.579102 97.3589901,162.639937 C97.3589901,161.700771 98.1194676,160.936823 99.0551703,160.936823 L100.183621,160.936823 C101.122828,160.936823 101.883305,161.700771 101.883305,162.639937 C101.883305,163.579102 101.122828,164.34305 100.183621,164.34305" id="Fill-45" fill="#153257" mask="url(#mask-2)"></path>
                <path d="M181.996979,335.262358 C181.534385,335.262358 181.075295,335.073123 180.742367,334.712176 L169.22306,322.14208 C168.641313,321.507793 168.627295,320.547602 169.177502,319.892289 L180.700313,306.316445 C181.310096,305.605063 182.37897,305.517454 183.097394,306.120202 C183.812313,306.726454 183.899925,307.802289 183.293646,308.517176 L172.738078,320.947097 L183.248087,332.416828 C183.882403,333.107184 183.83334,334.179515 183.142952,334.813802 C182.820538,335.115176 182.407006,335.262358 181.996979,335.262358" id="Fill-46" fill="#153257" mask="url(#mask-2)"></path>
                <path d="M13.2228459,218.318417 C12.7602514,218.318417 12.3046658,218.132686 11.9717378,217.768234 L0.445422523,205.201643 C-0.132820721,204.563851 -0.150343243,203.60366 0.403368468,202.944843 L11.9226748,189.372503 C12.5324586,188.657617 13.6013324,188.570008 14.3197559,189.17626 C15.0381793,189.782512 15.1257919,190.854843 14.5160081,191.573234 L3.96394505,204.003156 L14.4739541,215.472886 C15.1082694,216.163243 15.0627108,217.235573 14.3688189,217.873364 C14.0429,218.171234 13.632873,218.318417 13.2228459,218.318417" id="Fill-47" fill="#153257" mask="url(#mask-2)"></path>
                <path d="M204.998795,335.262358 C204.588768,335.262358 204.178741,335.115176 203.849317,334.813802 C203.15893,334.179515 203.109867,333.107184 203.747686,332.416828 L214.254191,320.947097 L203.705632,308.517176 C203.095849,307.802289 203.183461,306.726454 203.89838,306.120202 C204.616804,305.517454 205.685677,305.605063 206.291957,306.316445 L217.814768,319.892289 C218.368479,320.547602 218.354461,321.507793 217.772714,322.14208 L206.249903,334.712176 C205.916975,335.073123 205.457885,335.262358 204.998795,335.262358" id="Fill-48" fill="#153257" mask="url(#mask-2)"></path>
                <path d="M343.125686,253.700765 C342.666595,253.700765 342.207505,253.51153 341.874577,253.147078 L330.351767,240.576983 C329.770019,239.9462 329.759505,238.982504 330.309713,238.327191 L341.832523,224.754852 C342.442307,224.039965 343.507677,223.948852 344.2261,224.555104 C344.948028,225.164861 345.032136,226.237191 344.422352,226.948574 L333.870289,239.385504 L344.380298,250.848226 C345.014614,251.542087 344.96555,252.617922 344.275163,253.252209 C343.94574,253.553583 343.539217,253.700765 343.125686,253.700765" id="Fill-49" fill="#153257" mask="url(#mask-2)"></path>
                <path d="M357.629778,253.700765 C357.219751,253.700765 356.809724,253.553583 356.480301,253.252209 C355.789914,252.617922 355.74085,251.542087 356.37867,250.848226 L366.888679,239.385504 L356.336616,226.948574 C355.726832,226.237191 355.814445,225.164861 356.529364,224.555104 C357.247787,223.952357 358.316661,224.039965 358.926445,224.754852 L370.449256,238.327191 C371.002968,238.982504 370.985445,239.9462 370.403697,240.576983 L358.880886,253.147078 C358.547959,253.51153 358.088868,253.700765 357.629778,253.700765" id="Fill-50" fill="#153257" mask="url(#mask-2)"></path>
                <path d="M56.0128459,89.5094539 C55.5537559,89.5094539 55.0911613,89.3202191 54.7652423,88.9592713 L43.238927,76.3891757 C42.6606838,75.758393 42.6431613,74.7946974 43.196873,74.1393843 L54.7161793,60.5635409 C55.3259631,59.8486539 56.3983414,59.7610452 57.1132604,60.3672974 C57.8316838,60.9735496 57.9192964,62.0493843 57.3095126,62.7642713 L46.753945,75.1976974 L57.2674586,86.6639235 C57.8982694,87.35428 57.8527108,88.4266104 57.1623234,89.0644017 C56.8329,89.3622713 56.4263775,89.5094539 56.0128459,89.5094539" id="Fill-51" fill="#153257" mask="url(#mask-2)"></path>
                <path d="M70.5134342,89.5094539 C70.1034072,89.5094539 69.6933802,89.3622713 69.3674613,89.0644017 C68.6770739,88.4266104 68.6315153,87.35428 69.2623261,86.6639235 L79.7758396,75.1976974 L69.2202721,62.7642713 C68.6104883,62.0493843 68.6981009,60.9735496 69.4130198,60.3672974 C70.1384523,59.7610452 71.2038216,59.8486539 71.8136054,60.5635409 L83.3329117,74.1393843 C83.8866234,74.7946974 83.8691009,75.758393 83.2908577,76.3891757 L71.7680468,88.9592713 C71.4386234,89.3202191 70.9725243,89.5094539 70.5134342,89.5094539" id="Fill-52" fill="#153257" mask="url(#mask-2)"></path>
                <path d="M187.97286,334.967993 C187.759086,334.967993 187.545311,334.929445 187.331536,334.848845 C186.462419,334.491402 186.045383,333.499671 186.402842,332.630593 L196.804212,307.066376 C197.154662,306.200802 198.142932,305.776776 199.015554,306.130715 C199.884671,306.491663 200.305212,307.479889 199.951257,308.348967 L189.549887,333.913184 C189.283545,334.572002 188.645725,334.967993 187.97286,334.967993" id="Fill-53" fill="#153257" mask="url(#mask-2)"></path>
                <path d="M248.644595,312.282247 C248.644595,312.282247 243.23364,329.509621 262.098387,337.531073" id="Fill-54" fill="#A0DCF6" mask="url(#mask-2)"></path>
                <path d="M262.097686,339.232083 C261.873398,339.232083 261.64911,339.186527 261.435335,339.09191 C241.379056,330.569336 246.965236,311.957744 247.024813,311.76851 C247.305173,310.874901 248.261903,310.380788 249.155551,310.661136 C250.0492,310.937979 250.550344,311.891162 250.269984,312.78477 C250.063218,313.454101 245.605488,328.669979 262.760038,335.966031 C263.62565,336.333988 264.032173,337.332727 263.6642,338.198301 C263.387344,338.843101 262.760038,339.232083 262.097686,339.232083" id="Fill-55" fill="#153257" mask="url(#mask-2)"></path>
                <path d="M322.498873,322.949131 L354.999648,322.949131" id="Fill-56" fill="#020303" mask="url(#mask-2)"></path>
                <path d="M354.998246,324.650142 L322.497471,324.650142 C321.561768,324.650142 320.797786,323.889698 320.797786,322.950533 C320.797786,322.011368 321.561768,321.24742 322.497471,321.24742 L354.998246,321.24742 C355.937453,321.24742 356.697931,322.011368 356.697931,322.950533 C356.697931,323.889698 355.937453,324.650142 354.998246,324.650142" id="Fill-57" fill="#153257" mask="url(#mask-2)"></path>
                <path d="M64.4762243,205.245447 L46.357936,205.245447 C45.4222333,205.245447 44.6617559,204.481499 44.6617559,203.545838 C44.6617559,202.603169 45.4222333,201.84623 46.357936,201.84623 L64.4762243,201.84623 C65.4154315,201.84623 66.175909,202.603169 66.175909,203.545838 C66.175909,204.481499 65.4154315,205.245447 64.4762243,205.245447" id="Fill-58" fill="#153257" mask="url(#mask-2)"></path>
                <path d="M55.4209351,214.30734 C54.4782234,214.30734 53.7177459,213.543392 53.7177459,212.604227 L53.7177459,194.486749 C53.7177459,193.544079 54.4782234,192.78714 55.4209351,192.78714 C56.3601423,192.78714 57.1171153,193.544079 57.1171153,194.486749 L57.1171153,212.604227 C57.1171153,213.543392 56.3601423,214.30734 55.4209351,214.30734" id="Fill-59" fill="#153257" mask="url(#mask-2)"></path>
                <path d="M177.797882,76.4399887 L159.679594,76.4399887 C158.743891,76.4399887 157.983414,75.6760409 157.983414,74.74038 C157.983414,73.7977104 158.743891,73.037267 159.679594,73.037267 L177.797882,73.037267 C178.737089,73.037267 179.497567,73.7977104 179.497567,74.74038 C179.497567,75.6760409 178.737089,76.4399887 177.797882,76.4399887" id="Fill-60" fill="#153257" mask="url(#mask-2)"></path>
                <path d="M168.738738,85.4952235 C167.799531,85.4952235 167.039053,84.7312757 167.039053,83.7991191 L167.039053,65.6816409 C167.039053,64.7389713 167.799531,63.9785278 168.738738,63.9785278 C169.68145,63.9785278 170.438423,64.7389713 170.438423,65.6816409 L170.438423,83.7991191 C170.438423,84.7312757 169.68145,85.4952235 168.738738,85.4952235" id="Fill-61" fill="#153257" mask="url(#mask-2)"></path>
                <polygon id="Fill-62" fill="#A0DCF6" mask="url(#mask-2)" points="189.814477 148.174339 283.255081 148.174339 283.255081 46.6218435 189.814477 46.6218435"></polygon>
                <path d="M191.510658,146.471226 L281.555396,146.471226 L281.555396,48.3214522 L191.510658,48.3214522 L191.510658,146.471226 Z M283.255081,149.873948 L189.814477,149.873948 C188.871766,149.873948 188.111288,149.113504 188.111288,148.174339 L188.111288,46.6218435 C188.111288,45.6826783 188.871766,44.9222348 189.814477,44.9222348 L283.255081,44.9222348 C284.194288,44.9222348 284.954766,45.6826783 284.954766,46.6218435 L284.954766,148.174339 C284.954766,149.113504 284.194288,149.873948 283.255081,149.873948 Z" id="Fill-63" fill="#153257" mask="url(#mask-2)"></path>
                <polygon id="Fill-64" fill="#FDDC4C" mask="url(#mask-2)" points="230.981892 42.6163739 242.45564 42.6163739 242.45564 25.4906261 230.981892 25.4906261"></polygon>
                <path d="M232.678072,40.9132609 L240.755955,40.9132609 L240.755955,27.1867304 L232.678072,27.1867304 L232.678072,40.9132609 Z M242.45564,44.3124783 L230.981892,44.3124783 C230.042685,44.3124783 229.282207,43.5520348 229.282207,42.6163739 L229.282207,25.4906261 C229.282207,24.5479565 230.042685,23.787513 230.981892,23.787513 L242.45564,23.787513 C243.398351,23.787513 244.158829,24.5479565 244.158829,25.4906261 L244.158829,42.6163739 C244.158829,43.5520348 243.398351,44.3124783 242.45564,44.3124783 Z" id="Fill-65" fill="#153257" mask="url(#mask-2)"></path>
                <path d="M249.150995,19.5185165 C249.150995,26.3870383 243.582338,31.9519426 236.717014,31.9519426 C229.851689,31.9519426 224.286536,26.3870383 224.286536,19.5185165 C224.286536,12.6534991 229.851689,7.08509043 236.717014,7.08509043 C243.582338,7.08509043 249.150995,12.6534991 249.150995,19.5185165" id="Fill-66" fill="#FDDC4C" mask="url(#mask-2)"></path>
                <path d="M236.717364,8.7864513 C230.80176,8.7864513 225.990076,13.6014252 225.990076,19.5202687 C225.990076,25.4356078 230.80176,30.2505817 236.717364,30.2505817 C242.636472,30.2505817 247.451661,25.4356078 247.451661,19.5202687 C247.451661,13.6014252 242.636472,8.7864513 236.717364,8.7864513 M236.717364,33.6497991 C228.92685,33.6497991 222.587202,27.3139383 222.587202,19.5202687 C222.587202,11.7265991 228.92685,5.38723391 236.717364,5.38723391 C244.514886,5.38723391 250.851031,11.7265991 250.851031,19.5202687 C250.851031,27.3139383 244.514886,33.6497991 236.717364,33.6497991" id="Fill-67" fill="#153257" mask="url(#mask-2)"></path>
                <path d="M270.284209,76.4126548 L230.981191,76.4126548 C230.045488,76.4126548 229.281506,75.6557157 229.281506,74.7165504 C229.281506,73.7738809 230.045488,73.0169417 230.981191,73.0169417 L270.284209,73.0169417 C271.223416,73.0169417 271.980389,73.7738809 271.980389,74.7165504 C271.980389,75.6557157 271.223416,76.4126548 270.284209,76.4126548" id="Fill-68" fill="#153257" mask="url(#mask-2)"></path>
                <path d="M270.284209,108.379666 L230.981191,108.379666 C230.045488,108.379666 229.281506,107.622727 229.281506,106.683562 C229.281506,105.744397 230.045488,104.983953 230.981191,104.983953 L270.284209,104.983953 C271.223416,104.983953 271.980389,105.744397 271.980389,106.683562 C271.980389,107.622727 271.223416,108.379666 270.284209,108.379666" id="Fill-69" fill="#153257" mask="url(#mask-2)"></path>
                <path d="M270.284209,130.045647 L230.981191,130.045647 C230.045488,130.045647 229.281506,129.288708 229.281506,128.349543 C229.281506,127.406873 230.045488,126.64643 230.981191,126.64643 L270.284209,126.64643 C271.223416,126.64643 271.980389,127.406873 271.980389,128.349543 C271.980389,129.288708 271.223416,130.045647 270.284209,130.045647" id="Fill-70" fill="#153257" mask="url(#mask-2)"></path>
                <polygon id="Fill-71" fill="#FDDC4C" mask="url(#mask-2)" points="206.758757 54.1877304 267.106324 54.1877304 267.106324 39.2171565 206.758757 39.2171565"></polygon>
                <path d="M208.454937,52.4846174 L265.403135,52.4846174 L265.403135,40.9167652 L208.454937,40.9167652 L208.454937,52.4846174 Z M267.106324,55.8873391 L206.758757,55.8873391 C205.81955,55.8873391 205.055568,55.1268957 205.055568,54.1877304 L205.055568,39.2171565 C205.055568,38.274487 205.81955,37.5140435 206.758757,37.5140435 L267.106324,37.5140435 C268.045532,37.5140435 268.806009,38.274487 268.806009,39.2171565 L268.806009,54.1877304 C268.806009,55.1268957 268.045532,55.8873391 267.106324,55.8873391 Z" id="Fill-72" fill="#153257" mask="url(#mask-2)"></path>
                <path d="M206.857233,82.8224574 C206.450711,82.8224574 206.044188,82.6787791 205.714765,82.3844139 L197.454648,74.8956226 C196.760756,74.2683443 196.711693,73.1925096 197.338999,72.4951443 C197.96981,71.7977791 199.045693,71.7522226 199.743089,72.3795009 L206.787143,78.7644226 L218.120711,67.1194748 C218.776053,66.44664 219.851936,66.4291183 220.524801,67.0844313 C221.20117,67.7397443 221.215188,68.8155791 220.556341,69.4919183 L208.076801,82.3108226 C207.743873,82.6542487 207.298801,82.8224574 206.857233,82.8224574" id="Fill-73" fill="#153257" mask="url(#mask-2)"></path>
                <path d="M206.857233,100.980937 C206.450711,100.980937 206.044188,100.837258 205.714765,100.542893 L197.454648,93.0505974 C196.760756,92.4233191 196.711693,91.3509887 197.338999,90.6571278 C197.96981,89.9597626 199.045693,89.903693 199.743089,90.53798 L206.787143,96.9229017 L218.120711,85.2744496 C218.776053,84.6051191 219.851936,84.5875974 220.524801,85.2429104 C221.20117,85.8947191 221.215188,86.9740583 220.556341,87.646893 L208.076801,100.469302 C207.743873,100.809223 207.298801,100.980937 206.857233,100.980937" id="Fill-74" fill="#153257" mask="url(#mask-2)"></path>
                <path d="M206.857233,117.975622 C206.450711,117.975622 206.044188,117.835448 205.714765,117.534074 L197.454648,110.048787 C196.760756,109.418004 196.711693,108.34217 197.338999,107.648309 C197.96981,106.950943 199.045693,106.901883 199.743089,107.532665 L206.787143,113.917587 L218.120711,102.269135 C218.776053,101.599804 219.851936,101.578778 220.524801,102.234091 C221.20117,102.892909 221.215188,103.968743 220.556341,104.641578 L208.076801,117.463987 C207.743873,117.807413 207.298801,117.975622 206.857233,117.975622" id="Fill-75" fill="#153257" mask="url(#mask-2)"></path>
                <path d="M206.857233,136.45545 C206.450711,136.45545 206.044188,136.315276 205.714765,136.013902 L197.454648,128.528615 C196.760756,127.897832 196.711693,126.821997 197.338999,126.128137 C197.96981,125.434276 199.045693,125.38171 199.743089,126.012493 L206.787143,132.397415 L218.120711,120.752467 C218.776053,120.076128 219.851936,120.06211 220.524801,120.713919 C221.20117,121.369232 221.215188,122.448571 220.556341,123.121406 L208.076801,135.943815 C207.743873,136.283737 207.298801,136.45545 206.857233,136.45545" id="Fill-76" fill="#153257" mask="url(#mask-2)"></path>
                <polygon id="Fill-77" fill="#7BBFE9" mask="url(#mask-2)" points="250.635153 170.619687 344.170378 170.619687 344.170378 91.7228 250.635153 91.7228"></polygon>
                <path d="M252.331333,168.923583 L342.470694,168.923583 L342.470694,93.425913 L252.331333,93.425913 L252.331333,168.923583 Z M344.170378,172.319296 L250.631649,172.319296 C249.692441,172.319296 248.931964,171.562357 248.931964,170.619687 L248.931964,91.7228 C248.931964,90.7871391 249.692441,90.0266957 250.631649,90.0266957 L344.170378,90.0266957 C345.109586,90.0266957 345.870063,90.7871391 345.870063,91.7228 L345.870063,170.619687 C345.870063,171.562357 345.109586,172.319296 344.170378,172.319296 Z" id="Fill-78" fill="#153257" mask="url(#mask-2)"></path>
                <path d="M285.239682,108.167653 L261.500168,108.167653 C260.560961,108.167653 259.796979,107.40721 259.796979,106.468044 C259.796979,105.528879 260.560961,104.764931 261.500168,104.764931 L285.239682,104.764931 C286.178889,104.764931 286.942871,105.528879 286.942871,106.468044 C286.942871,107.40721 286.178889,108.167653 285.239682,108.167653" id="Fill-79" fill="#153257" mask="url(#mask-2)"></path>
                <path d="M285.239682,123.594843 L261.500168,123.594843 C260.560961,123.594843 259.796979,122.8344 259.796979,121.895235 C259.796979,120.952565 260.560961,120.192122 261.500168,120.192122 L285.239682,120.192122 C286.178889,120.192122 286.942871,120.952565 286.942871,121.895235 C286.942871,122.8344 286.178889,123.594843 285.239682,123.594843" id="Fill-80" fill="#153257" mask="url(#mask-2)"></path>
                <path d="M285.239682,140.158494 L261.500168,140.158494 C260.560961,140.158494 259.796979,139.401555 259.796979,138.458885 C259.796979,137.516216 260.560961,136.759277 261.500168,136.759277 L285.239682,136.759277 C286.178889,136.759277 286.942871,137.516216 286.942871,138.458885 C286.942871,139.401555 286.178889,140.158494 285.239682,140.158494" id="Fill-81" fill="#153257" mask="url(#mask-2)"></path>
                <path d="M285.239682,156.677289 L261.500168,156.677289 C260.560961,156.677289 259.796979,155.916845 259.796979,154.97768 C259.796979,154.038515 260.560961,153.274567 261.500168,153.274567 L285.239682,153.274567 C286.178889,153.274567 286.942871,154.038515 286.942871,154.97768 C286.942871,155.916845 286.178889,156.677289 285.239682,156.677289" id="Fill-82" fill="#153257" mask="url(#mask-2)"></path>
                <path d="M335.384235,108.619363 L311.648226,108.619363 C310.70201,108.619363 309.941532,107.855416 309.941532,106.919755 C309.941532,105.977085 310.70201,105.213137 311.648226,105.213137 L335.384235,105.213137 C336.326947,105.213137 337.087424,105.977085 337.087424,106.919755 C337.087424,107.855416 336.326947,108.619363 335.384235,108.619363" id="Fill-83" fill="#153257" mask="url(#mask-2)"></path>
                <path d="M335.384235,124.04305 L311.648226,124.04305 C310.70201,124.04305 309.941532,123.282606 309.941532,122.346945 C309.941532,121.40778 310.70201,120.643832 311.648226,120.643832 L335.384235,120.643832 C336.326947,120.643832 337.087424,121.40778 337.087424,122.346945 C337.087424,123.282606 336.326947,124.04305 335.384235,124.04305" id="Fill-84" fill="#153257" mask="url(#mask-2)"></path>
                <path d="M335.384235,140.610204 L311.648226,140.610204 C310.70201,140.610204 309.941532,139.849761 309.941532,138.9141 C309.941532,137.967926 310.70201,137.207483 311.648226,137.207483 L335.384235,137.207483 C336.326947,137.207483 337.087424,137.967926 337.087424,138.9141 C337.087424,139.849761 336.326947,140.610204 335.384235,140.610204" id="Fill-85" fill="#153257" mask="url(#mask-2)"></path>
                <path d="M335.384235,157.128999 L311.648226,157.128999 C310.70201,157.128999 309.941532,156.368556 309.941532,155.432895 C309.941532,154.486721 310.70201,153.729782 311.648226,153.729782 L335.384235,153.729782 C336.326947,153.729782 337.087424,154.486721 337.087424,155.432895 C337.087424,156.368556 336.326947,157.128999 335.384235,157.128999" id="Fill-86" fill="#153257" mask="url(#mask-2)"></path>
                <path d="M304.291921,111.565819 C303.352714,111.565819 302.592236,110.80888 302.592236,109.869715 C302.578218,109.095254 302.255804,106.530071 298.768822,106.530071 C297.542245,106.530071 296.624065,106.83495 296.038813,107.437697 C295.131146,108.362845 295.152173,109.796123 295.155677,109.806637 C295.1732,110.742297 294.440759,111.523767 293.50856,111.555306 C292.523795,111.63941 291.798362,110.871958 291.756308,109.939802 C291.745795,109.648941 291.686218,107.055723 293.564632,105.103802 C294.815741,103.793176 296.567993,103.134358 298.768822,103.134358 C304.691434,103.134358 305.988101,107.991384 305.988101,109.869715 C305.988101,110.80888 305.231128,111.565819 304.291921,111.565819" id="Fill-87" fill="#153257" mask="url(#mask-2)"></path>
                <path d="M304.291921,126.113769 C303.352714,126.113769 302.592236,125.349821 302.592236,124.410656 C302.578218,123.639699 302.255804,121.078021 298.768822,121.078021 C297.542245,121.078021 296.624065,121.379395 296.038813,121.982143 C295.131146,122.903786 295.152173,124.337064 295.155677,124.354586 C295.1732,125.286743 294.440759,126.071717 293.50856,126.096247 C292.523795,126.190864 291.798362,125.412899 291.756308,124.480743 C291.745795,124.193386 291.686218,121.600169 293.564632,119.648247 C294.815741,118.337621 296.567993,117.675299 298.768822,117.675299 C304.691434,117.675299 305.988101,122.53583 305.988101,124.410656 C305.988101,125.349821 305.231128,126.113769 304.291921,126.113769" id="Fill-88" fill="#153257" mask="url(#mask-2)"></path>
                <path d="M304.291921,142.677069 C303.352714,142.677069 302.592236,141.916625 302.592236,140.97746 C302.578218,140.210008 302.255804,137.644825 298.768822,137.644825 C297.542245,137.644825 296.624065,137.949703 296.038813,138.545443 C295.131146,139.474095 295.152173,140.907373 295.155677,140.92139 C295.1732,141.857051 294.440759,142.635017 293.50856,142.666556 L293.452488,142.666556 C292.544822,142.666556 291.798362,141.962182 291.756308,141.047547 C291.745795,140.756686 291.686218,138.166973 293.564632,136.211547 C294.815741,134.904425 296.567993,134.245608 298.768822,134.245608 C304.691434,134.245608 305.988101,139.109643 305.988101,140.97746 C305.988101,141.916625 305.231128,142.677069 304.291921,142.677069" id="Fill-89" fill="#153257" mask="url(#mask-2)"></path>
                <path d="M304.291921,159.196214 C303.352714,159.196214 302.592236,158.432266 302.592236,157.496605 C302.578218,156.725649 302.255804,154.160466 298.768822,154.160466 C297.542245,154.160466 296.624065,154.465344 296.038813,155.068092 C295.131146,155.99324 295.152173,157.423014 295.155677,157.440536 C295.1732,158.376197 294.440759,159.154162 293.50856,159.185701 C292.523795,159.262797 291.798362,158.495344 291.756308,157.563188 C291.745795,157.275831 291.686218,154.682614 293.564632,152.727188 C294.815741,151.420066 296.567993,150.761249 298.768822,150.761249 C304.691434,150.761249 305.988101,155.621779 305.988101,157.496605 C305.988101,158.432266 305.231128,159.196214 304.291921,159.196214" id="Fill-90" fill="#153257" mask="url(#mask-2)"></path>
                <path d="M280.633361,339.35859 L299.305361,359.312347" id="Fill-91" fill="#020303" mask="url(#mask-2)"></path>
                <path d="M299.306062,361.017913 C298.846972,361.017913 298.398395,360.835687 298.061963,360.478243 L279.386459,340.517478 C278.748639,339.83413 278.787188,338.758296 279.470567,338.113496 C280.153945,337.468696 281.229828,337.507243 281.871152,338.194096 L300.546657,358.154861 C301.187981,358.838209 301.152936,359.914043 300.466053,360.555339 C300.13663,360.863722 299.723098,361.017913 299.306062,361.017913" id="Fill-92" fill="#153257" mask="url(#mask-2)"></path>
                <path d="M301.845076,362.383207 L315.179715,376.631885" id="Fill-93" fill="#020303" mask="url(#mask-2)"></path>
                <path d="M315.178664,378.334297 C314.719574,378.334297 314.270997,378.148567 313.934565,377.798132 L300.60343,363.542445 C299.962105,362.855593 299.99715,361.783263 300.680529,361.141967 C301.367412,360.497167 302.43979,360.535715 303.084619,361.222567 L316.419259,375.47475 C317.060583,376.158097 317.025538,377.233932 316.338655,377.878732 C316.009232,378.18361 315.592195,378.334297 315.178664,378.334297" id="Fill-94" fill="#153257" mask="url(#mask-2)"></path>
            </g>
        </g>
    </g>
</svg>