<?xml version="1.0" encoding="UTF-8"?>
<svg width="363px" height="200px" viewBox="0 0 363 200" version="1.1" xmlns="http://www.w3.org/2000/svg" xmlns:xlink="http://www.w3.org/1999/xlink">
    <!-- Generator: Sketch 49.3 (51167) - http://www.bohemiancoding.com/sketch -->
    <title>graphic_keuntungan_investasi-2</title>
    <desc>Created with Sketch.</desc>
    <defs>
        <polygon id="path-1" points="0 198.571507 211.654231 198.571507 211.654231 -0.00109589041 0 -0.00109589041"></polygon>
    </defs>
    <g id="01a-Home---guest" stroke="none" stroke-width="1" fill="none" fill-rule="evenodd">
        <g id="00b---Landing-page---pinjaman" transform="translate(-735.000000, -1711.000000)">
            <g id="Group-12" transform="translate(735.000000, 1711.000000)">
                <rect id="Rectangle-4-Copy" opacity="0.5" x="0" y="0" width="363" height="200"></rect>
                <g id="Page-1" transform="translate(1.000000, 0.000000)">
                    <path d="M115.197297,37.3731507 C115.161631,37.3731507 115.128708,37.370411 115.093041,37.3676712 C113.18899,37.2361644 111.235554,37.2032877 109.317785,37.2663014 C108.530374,37.3238356 107.814297,36.649863 107.786862,35.8334247 C107.762169,35.0169863 108.398682,34.3320548 109.221759,34.3046575 C111.235554,34.2389041 113.29599,34.2745205 115.29881,34.4142466 C116.1164,34.4690411 116.733708,35.1786301 116.676092,35.9950685 C116.623964,36.7758904 115.973733,37.3731507 115.197297,37.3731507 Z M94.6779897,39.6608219 C94.0414769,39.6608219 93.4543487,39.2471233 93.2595538,38.6060274 C93.0208615,37.8224658 93.4680667,36.9950685 94.2499897,36.7594521 C96.1869641,36.1758904 98.1733231,35.6882192 100.159682,35.310137 C100.969041,35.1621918 101.73999,35.6854795 101.893631,36.4882192 C102.047272,37.2909589 101.517759,38.0663014 100.713887,38.2224658 C98.8317846,38.5786301 96.9469385,39.0389041 95.1087333,39.5950685 C94.9633231,39.6389041 94.8206564,39.6608219 94.6779897,39.6608219 Z M129.691682,40.2964384 C129.532554,40.2964384 129.367938,40.2717808 129.20881,40.2169863 C127.392554,39.5950685 125.524169,39.0635616 123.655785,38.6361644 C122.8574,38.4526027 122.358067,37.6580822 122.544631,36.8608219 C122.725708,36.0635616 123.524092,35.5649315 124.319733,35.7484932 C126.286887,36.1978082 128.256785,36.7567123 130.17181,37.4142466 C130.945503,37.6772603 131.359785,38.5210959 131.093656,39.2936986 C130.885144,39.910137 130.30899,40.2964384 129.691682,40.2964384 Z M81.2042205,45.7347945 C80.7103744,45.7347945 80.2220154,45.4854795 79.9421692,45.0306849 C79.5114256,44.3375342 79.7254256,43.4224658 80.4222974,42.9950685 C82.1452718,41.9293151 83.9368359,40.9430137 85.7530923,40.0690411 C86.4883744,39.7128767 87.3772974,40.0224658 87.7339641,40.7594521 C88.0906308,41.4936986 87.7806051,42.3813699 87.0453231,42.7375342 C85.3196051,43.5676712 83.6185795,44.5019178 81.9834,45.5128767 C81.7419641,45.6608219 81.4703487,45.7347945 81.2042205,45.7347945 Z M142.937733,46.8635616 C142.655144,46.8635616 142.36981,46.7841096 142.114656,46.6142466 C140.517887,45.5430137 138.849785,44.5484932 137.15699,43.6526027 C136.432682,43.2690411 136.158323,42.3731507 136.539682,41.649863 C136.923785,40.9265753 137.823682,40.6526027 138.545246,41.0334247 C140.328579,41.9758904 142.084477,43.0279452 143.769041,44.1512329 C144.446708,44.6115068 144.627785,45.5293151 144.172349,46.2087671 C143.887015,46.6334247 143.417862,46.8635616 142.937733,46.8635616 Z M69.7442462,55.0663014 C69.3793487,55.0663014 69.0089641,54.9293151 68.7236308,54.6608219 C68.1310154,54.0964384 68.1035795,53.1567123 68.6660154,52.5649315 C70.0570154,51.0991781 71.5358103,49.6882192 73.0667333,48.3731507 C73.6922718,47.8416438 74.6250923,47.9128767 75.1600923,48.5320548 C75.6950923,49.1512329 75.623759,50.0882192 75.0037077,50.619726 C73.5468615,51.8690411 72.1394,53.2060274 70.8224769,54.6005479 C70.5289128,54.9073973 70.1365795,55.0663014 69.7442462,55.0663014 Z M154.054759,56.6087671 C153.643221,56.6087671 153.234426,56.4389041 152.940862,56.1046575 C151.673323,54.6663014 150.315246,53.2772603 148.907785,51.9731507 C148.306938,51.419726 148.268528,50.4827397 148.825477,49.88 C149.382426,49.28 150.320733,49.2443836 150.921579,49.8005479 C152.408605,51.170411 153.832528,52.6334247 155.165913,54.1484932 C155.709144,54.7649315 155.648785,55.6964384 155.034221,56.2389041 C154.751631,56.4854795 154.403195,56.6087671 154.054759,56.6087671 Z M61.0525538,67.0142466 C60.8138615,67.0142466 60.5696821,66.9567123 60.3447077,66.8334247 C59.6258872,66.4416438 59.3570154,65.5430137 59.7493487,64.8252055 C60.7150923,63.0526027 61.7850923,61.310137 62.9319128,59.6471233 C63.3983231,58.9731507 64.3201692,58.8005479 64.9950923,59.2663014 C65.6672718,59.7293151 65.8401179,60.6526027 65.3737077,61.3265753 C64.2872462,62.9046575 63.2721179,64.5594521 62.355759,66.2416438 C62.0868872,66.7347945 61.5765795,67.0142466 61.0525538,67.0142466 Z M162.299246,68.8635616 C161.756015,68.8635616 161.229246,68.5621918 160.974092,68.0416438 C160.115349,66.3238356 159.160579,64.6334247 158.131733,63.019726 C157.695503,62.3293151 157.898528,61.4142466 158.589913,60.9758904 C159.284041,60.5347945 160.2004,60.7430137 160.636631,61.4334247 C161.720349,63.1320548 162.724503,64.9128767 163.627144,66.7210959 C163.992041,67.4526027 163.695733,68.3430137 162.960451,68.7073973 C162.749195,68.8115068 162.521477,68.8635616 162.299246,68.8635616 Z M55.7409641,80.7978082 C55.6229897,80.7978082 55.507759,80.7841096 55.3897846,80.7567123 C54.5941436,80.5649315 54.103041,79.7649315 54.2950923,78.970411 C54.7697333,77.0032877 55.3541179,75.0443836 56.029041,73.1457534 C56.3061436,72.3758904 57.1511692,71.9731507 57.9221179,72.2471233 C58.6958103,72.5210959 59.1018615,73.3676712 58.824759,74.1375342 C58.182759,75.940274 57.6312974,77.8005479 57.1786051,79.6635616 C57.0167333,80.3430137 56.4076564,80.7978082 55.7409641,80.7978082 Z M167.100528,82.8279452 C166.409144,82.8279452 165.791836,82.3430137 165.649169,81.6416438 C165.26781,79.7594521 164.779451,77.88 164.206041,76.0580822 C163.961862,75.2772603 164.398092,74.4443836 165.177272,74.2005479 C165.959195,73.9594521 166.790503,74.389589 167.037426,75.170411 C167.643759,77.0909589 168.154067,79.0717808 168.554631,81.0526027 C168.719246,81.8526027 168.197964,82.6361644 167.394092,82.8005479 C167.298067,82.819726 167.196554,82.8279452 167.100528,82.8279452 Z M54.1634,95.48 C53.3622718,95.48 52.7010667,94.8389041 52.6818615,94.0334247 C52.6708872,93.5950685 52.6681436,93.1567123 52.6681436,92.7156164 C52.6681436,91.1320548 52.7312462,89.5347945 52.8601949,87.9621918 C52.9232974,87.1457534 53.6229128,86.5293151 54.4542205,86.6060274 C55.2745538,86.6690411 55.8808872,87.3841096 55.815041,88.1978082 C55.6970667,89.6936986 55.6339641,91.2115068 55.6339641,92.7156164 C55.6339641,93.1375342 55.6367077,93.5512329 55.6476821,93.9649315 C55.6668872,94.7841096 55.0166564,95.4608219 54.1990667,95.48 L54.1634,95.48 Z M167.934579,100.110137 C167.885195,100.110137 167.833067,100.107397 167.780938,100.101918 C166.966092,100.016986 166.376221,99.2909589 166.461272,98.4772603 C166.656067,96.5758904 166.754836,94.6389041 166.754836,92.7156164 C166.754836,91.88 166.738374,91.049863 166.699964,90.2224658 C166.661554,89.4032877 167.298067,88.7128767 168.115656,88.6745205 C168.914041,88.649863 169.627374,89.2717808 169.663041,90.0882192 C169.701451,90.9594521 169.720656,91.8361644 169.720656,92.7156164 C169.720656,94.740274 169.6164,96.7813699 169.407887,98.7786301 C169.331067,99.5430137 168.689067,100.110137 167.934579,100.110137 Z M56.3939385,110.07726 C55.7519385,110.07726 55.1620667,109.655342 54.972759,109.006027 C54.4103231,107.063562 53.9439128,105.071781 53.5872462,103.090959 C53.4418359,102.285479 53.9795795,101.515616 54.7861949,101.370411 C55.5982974,101.219726 56.363759,101.762192 56.5064256,102.567671 C56.8438872,104.449863 57.2883487,106.340274 57.8206051,108.18137 C58.0483231,108.967671 57.5956308,109.789589 56.8082205,110.016986 C56.671041,110.055342 56.5338615,110.07726 56.3939385,110.07726 Z M164.51881,114.47726 C164.343221,114.47726 164.164887,114.444384 163.989297,114.37589 C163.223836,114.088219 162.839733,113.230685 163.130554,112.466301 C163.813708,110.671781 164.41181,108.827945 164.900169,106.97589 C165.114169,106.189589 165.918041,105.715616 166.716426,105.926575 C167.506579,106.134795 167.978477,106.948493 167.769964,107.740274 C167.254169,109.685479 166.625887,111.633425 165.904323,113.521096 C165.676605,114.112877 165.114169,114.47726 164.51881,114.47726 Z M62.3283231,123.600548 C61.8262462,123.600548 61.3378872,123.345753 61.0607846,122.885479 C60.0099897,121.151233 59.0469897,119.348493 58.1909897,117.529315 C57.8425538,116.786849 58.1608103,115.907397 58.9015795,115.559452 C59.6396051,115.211507 60.5257846,115.529315 60.8742205,116.269041 C61.6890667,117.997808 62.6026821,119.710137 63.5958615,121.353973 C64.0211179,122.052603 63.7961436,122.964932 63.0937846,123.386849 C62.8550923,123.529315 62.5889641,123.600548 62.3283231,123.600548 Z M157.492477,127.47726 C157.193426,127.47726 156.888887,127.38411 156.628246,127.197808 C155.964297,126.718356 155.8134,125.792329 156.290785,125.129315 C157.415656,123.570411 158.469195,121.943014 159.423964,120.28274 C159.832759,119.570411 160.738144,119.326575 161.448733,119.734795 C162.156579,120.140274 162.403503,121.044384 161.997451,121.753973 C160.990554,123.504658 159.884887,125.222466 158.699656,126.860822 C158.408836,127.263562 157.9534,127.47726 157.492477,127.47726 Z M71.5412974,135.148493 C71.1709128,135.148493 70.7977846,135.008767 70.5097077,134.732055 C69.0583487,133.326575 67.6618615,131.836164 66.3614,130.288219 C65.8373744,129.663562 65.9169385,128.729315 66.5452205,128.200548 C67.170759,127.67726 68.1063231,127.756712 68.6330923,128.38137 C69.8677077,129.849863 71.1928615,131.269041 72.5728872,132.603288 C73.162759,133.170411 73.1764769,134.107397 72.6085538,134.696438 C72.3177333,134.995068 71.9281436,135.148493 71.5412974,135.148493 Z M147.371374,138.241644 C146.943374,138.241644 146.518118,138.055342 146.224554,137.701918 C145.706015,137.066301 145.79381,136.132055 146.430323,135.614247 C147.911862,134.400548 149.346759,133.093699 150.696605,131.729315 C151.272759,131.148493 152.21381,131.143014 152.795451,131.718356 C153.377092,132.293699 153.382579,133.230685 152.806426,133.811507 C151.385246,135.247123 149.873528,136.625205 148.312426,137.904658 C148.038067,138.132055 147.703349,138.241644 147.371374,138.241644 Z M83.4100667,143.956712 C83.1631436,143.956712 82.9162205,143.899178 82.6885026,143.770411 C80.9216308,142.786849 79.1904256,141.699178 77.536041,140.534795 C76.8666051,140.063562 76.7074769,139.140274 77.1793744,138.469041 C77.6485282,137.800548 78.5731179,137.641644 79.2452974,138.115616 C80.8146308,139.216986 82.458041,140.249863 84.1343744,141.18411 C84.8477077,141.58411 85.1056051,142.485479 84.705041,143.200548 C84.4361692,143.685479 83.9286051,143.956712 83.4100667,143.956712 Z M134.830426,146.055342 C134.26799,146.055342 133.730246,145.734795 133.480579,145.192329 C133.140374,144.447123 133.469605,143.567671 134.213118,143.227945 C135.960785,142.433425 137.683759,141.537534 139.3354,140.564932 C140.040503,140.151233 140.948631,140.386849 141.365656,141.090959 C141.779938,141.797808 141.546733,142.701918 140.838887,143.118356 C139.099451,144.143014 137.283195,145.08274 135.44499,145.923836 C135.244708,146.014247 135.036195,146.055342 134.830426,146.055342 Z M97.1554513,149.422466 C97.0347333,149.422466 96.9112718,149.408767 96.7905538,149.37589 C94.8288872,148.88274 92.8727077,148.27726 90.9768872,147.57863 C90.2086821,147.296438 89.8136051,146.447123 90.0989385,145.67726 C90.3815282,144.910137 91.232041,144.515616 92.0002462,144.797808 C93.800041,145.460822 95.6574513,146.036164 97.5176051,146.504658 C98.3105026,146.707397 98.7906308,147.512877 98.5930923,148.301918 C98.4229897,148.973151 97.8166564,149.422466 97.1554513,149.422466 Z M120.687221,150.37589 C119.976631,150.37589 119.348349,149.863562 119.227631,149.137534 C119.090451,148.332055 119.639169,147.567671 120.445785,147.430685 C122.341605,147.115616 124.237426,146.693699 126.081118,146.18411 C126.871272,145.964932 127.688862,146.427945 127.908349,147.214247 C128.127836,148.003288 127.664169,148.822466 126.874015,149.036164 C124.931554,149.57589 122.931477,150.019726 120.936887,150.353973 C120.851836,150.370411 120.769528,150.37589 120.687221,150.37589 Z M111.1944,151.162192 C109.391862,151.162192 107.570118,151.07726 105.77581,150.912877 C104.963708,150.838904 104.362862,150.115616 104.436938,149.304658 C104.511015,148.488219 105.218862,147.885479 106.047426,147.964932 C107.751195,148.118356 109.479656,148.200548 111.1944,148.200548 L111.822682,148.195068 L111.8364,148.195068 C112.648503,148.195068 113.312451,148.847123 113.320682,149.660822 C113.328913,150.47726 112.673195,151.148493 111.850118,151.156712 L111.1944,151.162192 Z" id="Fill-1" fill="#143258"></path>
                    <path d="M94.7825205,178.739178 L90.8207769,178.739178 C89.8495462,178.739178 89.0593923,177.947397 89.0593923,176.983014 C89.0593923,176.007671 89.8495462,175.22411 90.8207769,175.22411 L94.7825205,175.22411 C95.7537513,175.22411 96.5439051,176.007671 96.5439051,176.983014 C96.5439051,177.947397 95.7537513,178.739178 94.7825205,178.739178" id="Fill-3" fill="#143258"></path>
                    <path d="M82.6802718,178.739178 L71.6812205,178.739178 C70.7045026,178.739178 69.9198359,177.947397 69.9198359,176.983014 C69.9198359,176.007671 70.7045026,175.22411 71.6812205,175.22411 L82.6802718,175.22411 C83.6515026,175.22411 84.4361692,176.007671 84.4361692,176.983014 C84.4361692,177.947397 83.6515026,178.739178 82.6802718,178.739178" id="Fill-5" fill="#143258"></path>
                    <path d="M93.738859,167.674521 L89.7771154,167.674521 C88.8058846,167.674521 88.0157308,166.888219 88.0157308,165.918356 C88.0157308,164.948493 88.8058846,164.162192 89.7771154,164.162192 L93.738859,164.162192 C94.7100897,164.162192 95.4975,164.948493 95.4975,165.918356 C95.4975,166.888219 94.7100897,167.674521 93.738859,167.674521" id="Fill-7" fill="#143258"></path>
                    <path d="M112.882531,167.674521 L101.883479,167.674521 C100.906762,167.674521 100.119351,166.888219 100.119351,165.918356 C100.119351,164.948493 100.906762,164.162192 101.883479,164.162192 L112.882531,164.162192 C113.853762,164.162192 114.643915,164.948493 114.643915,165.918356 C114.643915,166.888219 113.853762,167.674521 112.882531,167.674521" id="Fill-9" fill="#143258"></path>
                    <mask id="mask-2" fill="white">
                        <use xlink:href="#path-1"></use>
                    </mask>
                    <g id="Clip-12"></g>
                    <path d="M12.0717949,122.856438 L36.5089487,122.856438 L36.5089487,91.1934247 L12.0717949,91.1934247 L12.0717949,122.856438 Z M1.52817949,151.771507 L124.026718,151.771507 L124.026718,81.1660274 L1.52817949,81.1660274 L1.52817949,151.771507 Z" id="Fill-11" fill="#F4F5F5" mask="url(#mask-2)"></path>
                    <path d="M102.296664,74.9090411 C102.296664,73.5254795 101.174536,72.4213699 99.8082282,72.4213699 C98.4227154,72.4213699 97.2978436,73.5254795 97.2978436,74.9090411 C97.2978436,76.2926027 98.4227154,77.4158904 99.8082282,77.4158904 C101.174536,77.4158904 102.296664,76.2926027 102.296664,74.9090411 Z M109.366895,74.9090411 C109.366895,73.5254795 108.261228,72.4213699 106.875715,72.4213699 C105.490203,72.4213699 104.387279,73.5254795 104.387279,74.9090411 C104.387279,76.2926027 105.490203,77.4158904 106.875715,77.4158904 C108.261228,77.4158904 109.366895,76.2926027 109.366895,74.9090411 Z M116.19569,74.9090411 C116.19569,73.5254795 115.070818,72.4213699 113.70451,72.4213699 C112.318997,72.4213699 111.194126,73.5254795 111.194126,74.9090411 C111.194126,76.2926027 112.318997,77.4158904 113.70451,77.4158904 C115.070818,77.4158904 116.19569,76.2926027 116.19569,74.9090411 Z M1.52735641,81.1665753 L124.025895,81.1665753 L124.025895,68.1309589 L1.52735641,68.1309589 L1.52735641,81.1665753 Z" id="Fill-13" fill="#71C3CA" mask="url(#mask-2)"></path>
                    <path d="M113.705059,72.4221918 C115.068623,72.4221918 116.196238,73.5235616 116.196238,74.909863 C116.196238,76.2934247 115.068623,77.4139726 113.705059,77.4139726 C112.319546,77.4139726 111.194674,76.2934247 111.194674,74.909863 C111.194674,73.5235616 112.319546,72.4221918 113.705059,72.4221918" id="Fill-14" fill="#143258" mask="url(#mask-2)"></path>
                    <path d="M106.876813,72.4221918 C108.262326,72.4221918 109.365249,73.5235616 109.365249,74.909863 C109.365249,76.2934247 108.262326,77.4139726 106.876813,77.4139726 C105.4913,77.4139726 104.385633,76.2934247 104.385633,74.909863 C104.385633,73.5235616 105.4913,72.4221918 106.876813,72.4221918" id="Fill-15" fill="#143258" mask="url(#mask-2)"></path>
                    <path d="M99.8087769,72.4221918 C101.175085,72.4221918 102.297213,73.5235616 102.297213,74.909863 C102.297213,76.2934247 101.175085,77.4139726 99.8087769,77.4139726 C98.4232641,77.4139726 97.2983923,76.2934247 97.2983923,74.909863 C97.2983923,73.5235616 98.4232641,72.4221918 99.8087769,72.4221918" id="Fill-16" fill="#143258" mask="url(#mask-2)"></path>
                    <polygon id="Fill-17" fill="#F6B848" mask="url(#mask-2)" points="12.0717949 122.856438 36.5089487 122.856438 36.5089487 91.1934247 12.0717949 91.1934247"></polygon>
                    <path d="M3.05635897,150.248219 L122.498538,150.248219 L122.498538,69.6564384 L3.05635897,69.6564384 L3.05635897,150.248219 Z M124.026718,153.300274 L1.52817949,153.300274 C0.683153846,153.300274 0,152.618082 0,151.771507 L0,68.130411 C0,67.2865753 0.683153846,66.6071233 1.52817949,66.6071233 L124.026718,66.6071233 C124.869,66.6071233 125.554897,67.2865753 125.554897,68.130411 L125.554897,151.771507 C125.554897,152.618082 124.869,153.300274 124.026718,153.300274 Z" id="Fill-18" fill="#143258" mask="url(#mask-2)"></path>
                    <path d="M124.026992,82.6923288 L1.52845385,82.6923288 C0.683428205,82.6923288 0.000274358974,82.0073973 0.000274358974,81.1663014 C0.000274358974,80.3224658 0.683428205,79.640274 1.52845385,79.640274 L124.026992,79.640274 C124.869274,79.640274 125.555172,80.3224658 125.555172,81.1663014 C125.555172,82.0073973 124.869274,82.6923288 124.026992,82.6923288" id="Fill-19" fill="#143258" mask="url(#mask-2)"></path>
                    <path d="M13.7673333,121.163288 L34.8106667,121.163288 L34.8106667,92.8893151 L13.7673333,92.8893151 L13.7673333,121.163288 Z M36.5089487,124.552329 L12.0717949,124.552329 C11.1334872,124.552329 10.3735128,123.793425 10.3735128,122.856438 L10.3735128,91.1934247 C10.3735128,90.2564384 11.1334872,89.4975342 12.0717949,89.4975342 L36.5089487,89.4975342 C37.4472564,89.4975342 38.2044872,90.2564384 38.2044872,91.1934247 L38.2044872,122.856438 C38.2044872,123.793425 37.4472564,124.552329 36.5089487,124.552329 Z" id="Fill-20" fill="#143258" mask="url(#mask-2)"></path>
                    <path d="M115.491959,92.7172603 L47.8761897,92.7172603 C47.0339077,92.7172603 46.3480103,92.0350685 46.3480103,91.1939726 C46.3480103,90.350137 47.0339077,89.6679452 47.8761897,89.6679452 L115.491959,89.6679452 C116.334241,89.6679452 117.020138,90.350137 117.020138,91.1939726 C117.020138,92.0350685 116.334241,92.7172603 115.491959,92.7172603" id="Fill-21" fill="#143258" mask="url(#mask-2)"></path>
                    <path d="M115.491959,100.057534 L47.8761897,100.057534 C47.0339077,100.057534 46.3480103,99.3726027 46.3480103,98.5315068 C46.3480103,97.690411 47.0339077,97.0054795 47.8761897,97.0054795 L115.491959,97.0054795 C116.334241,97.0054795 117.020138,97.690411 117.020138,98.5315068 C117.020138,99.3726027 116.334241,100.057534 115.491959,100.057534" id="Fill-22" fill="#143258" mask="url(#mask-2)"></path>
                    <path d="M115.491959,108.080274 L47.8761897,108.080274 C47.0339077,108.080274 46.3480103,107.395342 46.3480103,106.554247 C46.3480103,105.710411 47.0339077,105.028219 47.8761897,105.028219 L115.491959,105.028219 C116.334241,105.028219 117.020138,105.710411 117.020138,106.554247 C117.020138,107.395342 116.334241,108.080274 115.491959,108.080274" id="Fill-23" fill="#143258" mask="url(#mask-2)"></path>
                    <path d="M115.491959,116.1 L47.8761897,116.1 C47.0339077,116.1 46.3480103,115.417808 46.3480103,114.573973 C46.3480103,113.732877 47.0339077,113.047945 47.8761897,113.047945 L115.491959,113.047945 C116.334241,113.047945 117.020138,113.732877 117.020138,114.573973 C117.020138,115.417808 116.334241,116.1 115.491959,116.1" id="Fill-24" fill="#143258" mask="url(#mask-2)"></path>
                    <path d="M115.491959,124.122466 L47.8761897,124.122466 C47.0339077,124.122466 46.3480103,123.440274 46.3480103,122.596438 C46.3480103,121.752603 47.0339077,121.070411 47.8761897,121.070411 L115.491959,121.070411 C116.334241,121.070411 117.020138,121.752603 117.020138,122.596438 C117.020138,123.440274 116.334241,124.122466 115.491959,124.122466" id="Fill-25" fill="#143258" mask="url(#mask-2)"></path>
                    <path d="M115.491959,132.142466 L12.0723436,132.142466 C11.2273179,132.142466 10.5441641,131.460274 10.5441641,130.616438 C10.5441641,129.775342 11.2273179,129.093151 12.0723436,129.093151 L115.491959,129.093151 C116.334241,129.093151 117.020138,129.775342 117.020138,130.616438 C117.020138,131.460274 116.334241,132.142466 115.491959,132.142466" id="Fill-26" fill="#143258" mask="url(#mask-2)"></path>
                    <path d="M115.491959,140.164932 L12.0723436,140.164932 C11.2273179,140.164932 10.5441641,139.48274 10.5441641,138.638904 C10.5441641,137.795068 11.2273179,137.112877 12.0723436,137.112877 L115.491959,137.112877 C116.334241,137.112877 117.020138,137.795068 117.020138,138.638904 C117.020138,139.48274 116.334241,140.164932 115.491959,140.164932" id="Fill-27" fill="#143258" mask="url(#mask-2)"></path>
                    <path d="M149.5753,33.3745205 C146.675326,33.3745205 144.315838,35.7306849 144.315838,38.6293151 L144.315838,126.426575 C144.315838,129.325205 146.675326,131.68137 149.5753,131.68137 L189.895095,131.68137 C192.795069,131.68137 195.1573,129.325205 195.1573,126.426575 L195.1573,38.6293151 C195.1573,35.7306849 192.795069,33.3745205 189.895095,33.3745205 L149.5753,33.3745205 Z M189.895095,134.736164 L149.5753,134.736164 C144.990762,134.736164 141.259479,131.007397 141.259479,126.426575 L141.259479,38.6293151 C141.259479,34.0512329 144.990762,30.3224658 149.5753,30.3224658 L189.895095,30.3224658 C194.482377,30.3224658 198.216403,34.0512329 198.216403,38.6293151 L198.216403,126.426575 C198.216403,131.007397 194.482377,134.736164 189.895095,134.736164 Z" id="Fill-28" fill="#143258" mask="url(#mask-2)"></path>
                    <polygon id="Fill-29" fill="#F69321" mask="url(#mask-2)" points="142.784641 120.286575 196.685205 120.286575 196.685205 42.0208219 142.784641 42.0208219"></polygon>
                    <path d="M144.482923,118.590685 L194.986923,118.590685 L194.986923,43.7139726 L144.482923,43.7139726 L144.482923,118.590685 Z M196.685205,121.979726 L142.787385,121.979726 C141.849077,121.979726 141.089103,121.223562 141.089103,120.286575 L141.089103,42.0180822 C141.089103,41.0838356 141.849077,40.3249315 142.787385,40.3249315 L196.685205,40.3249315 C197.623513,40.3249315 198.383487,41.0838356 198.383487,42.0180822 L198.383487,120.286575 C198.383487,121.223562 197.623513,121.979726 196.685205,121.979726 Z" id="Fill-30" fill="#143258" mask="url(#mask-2)"></path>
                    <path d="M174.918662,38.3175342 L164.553379,38.3175342 C163.711097,38.3175342 163.0252,37.6326027 163.0252,36.7915068 C163.0252,35.9476712 163.711097,35.2654795 164.553379,35.2654795 L174.918662,35.2654795 C175.763687,35.2654795 176.446841,35.9476712 176.446841,36.7915068 C176.446841,37.6326027 175.763687,38.3175342 174.918662,38.3175342" id="Fill-31" fill="#143258" mask="url(#mask-2)"></path>
                    <path d="M172.493877,126.463562 C172.493877,128.101918 171.163236,129.430685 169.522569,129.430685 C167.881903,129.430685 166.554005,128.101918 166.554005,126.463562 C166.554005,124.822466 167.881903,123.496438 169.522569,123.496438 C171.163236,123.496438 172.493877,124.822466 172.493877,126.463562" id="Fill-32" fill="#BE272E" mask="url(#mask-2)"></path>
                    <path d="M169.522569,124.344658 C168.3538,124.344658 167.401774,125.295342 167.401774,126.462466 C167.401774,127.632329 168.3538,128.583014 169.522569,128.583014 C170.694082,128.583014 171.643364,127.632329 171.643364,126.462466 C171.643364,125.295342 170.694082,124.344658 169.522569,124.344658 M169.522569,130.276164 C167.418236,130.276164 165.700749,128.563836 165.700749,126.462466 C165.700749,124.361096 167.418236,122.648767 169.522569,122.648767 C171.629646,122.648767 173.34439,124.361096 173.34439,126.462466 C173.34439,128.563836 171.629646,130.276164 169.522569,130.276164" id="Fill-33" fill="#302D2D" mask="url(#mask-2)"></path>
                    <path d="M210.960377,120.039726 C211.009762,119.143836 211.050915,115.680822 209.004197,113.478082 C207.898531,112.291781 206.408762,111.694521 204.5733,111.694521 C202.905197,111.694521 201.442864,112.20137 200.326223,113.119178 L200.260377,112.289041 C199.703428,109.872603 197.563428,107.047945 193.362992,107.047945 C191.094044,107.047945 189.480813,107.856164 188.380633,108.913699 L188.37789,108.9 C187.818197,106.480822 185.680941,103.656164 181.480505,103.656164 C179.310326,103.656164 177.691608,104.412329 176.555762,105.475342 L176.550274,78.9575342 L176.558505,78.8424658 L176.555762,78.7273973 C176.498146,74.9547945 173.375941,71.8835616 169.595274,71.8835616 C165.814608,71.8835616 162.692403,74.9547945 162.637531,78.7273973 L162.637531,119.965753 C161.334326,117.735616 159.575685,115.634247 157.871915,114.143836 C156.398608,112.858904 155.037787,112.083562 153.929377,111.90274 L151.671403,111.527397 L151.062326,113.730137 C150.947095,114.130137 150.894967,114.576712 150.894967,115.1 L150.894967,138.549315 C150.472454,140.450685 146.658864,160.110959 166.643172,167.930137 C168.574659,168.590411 169.183736,169.020548 169.183736,173.669863 L169.183736,176.212329 L195.887095,176.212329 L198.852915,176.258904 L198.40571,173.335616 C198.422172,173.023288 199.001069,171.760274 201.429146,169.669863 L201.772095,169.310959 C203.311249,167.357534 210.974095,157.171233 210.974095,148.667123 L210.960377,120.039726 Z" id="Fill-34" fill="#F4F5F5" mask="url(#mask-2)"></path>
                    <path d="M187.424218,114.067945 C186.579192,114.067945 185.896038,113.383014 185.896038,112.539178 L185.896038,109.300822 C185.756115,108.681644 184.944013,106.029589 181.484346,106.029589 C177.989013,106.029589 177.196115,108.72 177.06991,109.298082 L177.06991,111.569315 C177.06991,112.413151 176.386756,113.095342 175.541731,113.095342 C174.699449,113.095342 174.013551,112.413151 174.013551,111.569315 L174.013551,109.150137 C174.013551,109.067945 174.021782,108.983014 174.0355,108.900822 C174.375705,106.851507 176.370295,102.977534 181.484346,102.977534 C186.59291,102.977534 188.590244,106.851507 188.930449,108.898082 C188.944167,108.980274 188.952397,109.065205 188.952397,109.150137 L188.952397,112.539178 C188.952397,113.383014 188.269244,114.067945 187.424218,114.067945" id="Fill-35" fill="#143258" mask="url(#mask-2)"></path>
                    <path d="M199.308077,119.027123 C198.463051,119.027123 197.779897,118.342192 197.779897,117.501096 L197.779897,112.692877 C197.637231,112.070959 196.827872,109.421644 193.368205,109.421644 C189.538154,109.421644 188.956513,112.651781 188.931821,112.791507 C188.794641,113.621644 188.004487,114.183288 187.173179,114.046301 C186.344615,113.909315 185.779436,113.123014 185.916615,112.290137 C186.256821,110.240822 188.254154,106.369589 193.368205,106.369589 C198.474026,106.369589 200.474103,110.240822 200.814308,112.287397 C200.828026,112.372329 200.836256,112.45726 200.836256,112.539452 L200.836256,117.501096 C200.836256,118.342192 200.153103,119.027123 199.308077,119.027123" id="Fill-36" fill="#143258" mask="url(#mask-2)"></path>
                    <path d="M170.202979,175.026849 C169.357954,175.026849 168.6748,174.341918 168.6748,173.500822 C168.6748,169.185753 168.169979,168.82137 166.411338,168.21863 C146.503851,160.426849 149.938826,140.530959 150.383287,138.333699 L150.383287,114.930959 C150.383287,113.835068 150.611005,112.988493 151.074672,112.341918 C151.615159,111.593973 152.440979,111.180274 153.401236,111.180274 C157.459005,111.180274 165.184954,120.026849 165.184954,125.980274 C165.184954,126.82411 164.5018,127.506301 163.656774,127.506301 C162.814492,127.506301 162.128595,126.82411 162.128595,125.980274 C162.128595,122.947397 159.050287,118.377534 156.196954,115.889863 C154.778518,114.654247 153.873133,114.300822 153.513723,114.240548 C153.4808,114.358356 153.44239,114.574795 153.44239,114.930959 L153.44239,138.492603 C153.44239,138.610411 153.425928,138.730959 153.398492,138.846027 C153.214672,139.632329 149.052646,158.147397 167.467621,165.355616 C171.127569,166.610411 171.731159,168.785753 171.731159,173.500822 C171.731159,174.341918 171.045262,175.026849 170.202979,175.026849" id="Fill-37" fill="#143258" mask="url(#mask-2)"></path>
                    <path d="M163.657597,136.476712 C162.812572,136.476712 162.129418,135.791781 162.129418,134.950685 L162.129418,78.7041096 C162.129418,78.6493151 162.132162,78.5917808 162.137649,78.5369863 C162.241905,74.4410959 165.547931,71.2054795 169.600213,71.2054795 C173.715597,71.2054795 177.071008,74.5534247 177.071008,78.6657534 L177.071008,78.6821918 L177.071008,78.7041096 L177.071008,111.569863 C177.071008,112.413699 176.38511,113.09589 175.542828,113.09589 C174.697803,113.09589 174.011905,112.413699 174.011905,111.569863 L174.011905,78.9232877 C174.003674,78.8657534 174.000931,78.8082192 174.000931,78.7479452 C174.000931,78.7013699 174.006418,78.6438356 174.011905,78.5863014 C173.970751,76.1945205 172.006341,74.2575342 169.600213,74.2575342 C167.163905,74.2575342 165.185777,76.2356164 165.185777,78.6657534 L165.185777,78.6849315 L165.185777,78.7041096 L165.185777,134.950685 C165.185777,135.791781 164.502623,136.476712 163.657597,136.476712" id="Fill-38" fill="#143258" mask="url(#mask-2)"></path>
                    <path d="M197.383174,174.834247 C196.683559,174.834247 196.052533,174.349315 195.890662,173.636986 C195.473636,171.752055 197.739841,169.316438 199.772841,167.573973 C200.664508,166.434247 208.426123,156.313699 208.426123,148.5 L208.426123,131.491781 C208.417892,131.428767 208.412405,131.357534 208.412405,131.291781 L208.412405,119.79589 C208.478251,118.836986 208.368508,116.360274 207.136636,115.039726 C206.527559,114.384932 205.690764,114.067123 204.576867,114.067123 C201.605559,114.067123 200.875764,116.308219 200.741328,116.889041 L200.741328,117.894521 C200.741328,118.735616 200.055431,119.420548 199.213149,119.420548 C198.368123,119.420548 197.682226,118.735616 197.682226,117.894521 L197.682226,116.732877 C197.682226,116.647945 197.690456,116.563014 197.706918,116.480822 C198.019687,114.590411 199.863379,111.015068 204.576867,111.015068 C206.53579,111.015068 208.201149,111.694521 209.389123,112.976712 C211.776046,115.557534 211.476995,119.738356 211.466021,119.913699 L211.468764,131.089041 C211.476995,131.154795 211.482482,131.223288 211.482482,131.291781 L211.482482,148.5 C211.482482,157.828767 202.447841,169.119178 202.063738,169.593151 C202.006123,169.667123 201.940277,169.735616 201.8662,169.79589 C200.472456,170.987671 199.095174,172.543836 198.903123,173.138356 C198.988174,173.90274 198.486097,174.626027 197.717892,174.79589 C197.605405,174.820548 197.492918,174.834247 197.383174,174.834247" id="Fill-39" fill="#143258" mask="url(#mask-2)"></path>
                    <path d="M169.241351,63.0178082 C168.396326,63.0178082 167.713172,62.3328767 167.713172,61.4917808 L167.713172,56.7027397 C167.713172,55.8616438 168.396326,55.1767123 169.241351,55.1767123 C170.086377,55.1767123 170.769531,55.8616438 170.769531,56.7027397 L170.769531,61.4917808 C170.769531,62.3328767 170.086377,63.0178082 169.241351,63.0178082" id="Fill-40" fill="#143258" mask="url(#mask-2)"></path>
                    <path d="M161.3774,65.1235616 C160.847887,65.1235616 160.337579,64.849589 160.05499,64.3619178 L157.654349,60.2112329 C157.229092,59.479726 157.481503,58.5482192 158.211297,58.1263014 C158.943836,57.7043836 159.876656,57.9564384 160.296426,58.6852055 L162.697067,62.8331507 C163.122323,63.5646575 162.869913,64.4961644 162.140118,64.9180822 C161.898682,65.0550685 161.635297,65.1235616 161.3774,65.1235616" id="Fill-41" fill="#143258" mask="url(#mask-2)"></path>
                    <path d="M155.615587,70.8745205 C155.35769,70.8745205 155.094305,70.8087671 154.852869,70.6690411 L150.699074,68.2717808 C149.966536,67.849863 149.716869,66.9183562 150.139382,66.189589 C150.561895,65.4608219 151.497459,65.2087671 152.227254,65.6306849 L156.381049,68.0279452 C157.113587,68.4471233 157.363254,69.3813699 156.940741,70.110137 C156.658151,70.6005479 156.142356,70.8745205 155.615587,70.8745205" id="Fill-42" fill="#143258" mask="url(#mask-2)"></path>
                    <path d="M153.50851,78.7284932 L148.715459,78.7284932 C147.86769,78.7284932 147.184536,78.0435616 147.184536,77.2024658 C147.184536,76.3586301 147.86769,75.6764384 148.715459,75.6764384 L153.50851,75.6764384 C154.353536,75.6764384 155.03669,76.3586301 155.03669,77.2024658 C155.03669,78.0435616 154.353536,78.7284932 153.50851,78.7284932" id="Fill-43" fill="#143258" mask="url(#mask-2)"></path>
                    <path d="M151.464262,88.979726 C150.934749,88.979726 150.421697,88.7030137 150.141851,88.2153425 C149.716595,87.4865753 149.969005,86.5523288 150.6988,86.130411 L154.852595,83.7386301 C155.58239,83.3139726 156.520697,83.5660274 156.940467,84.2975342 C157.362979,85.0263014 157.110569,85.9605479 156.380774,86.379726 L152.226979,88.7742466 C151.985544,88.9139726 151.722159,88.979726 151.464262,88.979726" id="Fill-44" fill="#143258" mask="url(#mask-2)"></path>
                    <path d="M187.018167,88.979726 C186.760269,88.979726 186.496885,88.9139726 186.255449,88.7742466 L182.101654,86.379726 C181.371859,85.9605479 181.119449,85.0263014 181.541962,84.2975342 C181.964474,83.5660274 182.897295,83.3139726 183.629833,83.7386301 L187.783628,86.130411 C188.513423,86.5523288 188.765833,87.4865753 188.343321,88.2153425 C188.060731,88.7030137 187.544936,88.979726 187.018167,88.979726" id="Fill-45" fill="#143258" mask="url(#mask-2)"></path>
                    <path d="M189.772731,78.7284932 L184.974192,78.7284932 C184.129167,78.7284932 183.446013,78.0435616 183.446013,77.2024658 C183.446013,76.3586301 184.129167,75.6764384 184.974192,75.6764384 L189.772731,75.6764384 C190.617756,75.6764384 191.30091,76.3586301 191.30091,77.2024658 C191.30091,78.0435616 190.617756,78.7284932 189.772731,78.7284932" id="Fill-46" fill="#143258" mask="url(#mask-2)"></path>
                    <path d="M182.866841,70.8745205 C182.337328,70.8745205 181.827021,70.6005479 181.541687,70.110137 C181.119174,69.3813699 181.374328,68.4471233 182.101379,68.0279452 L186.255174,65.6334247 C186.987713,65.2087671 187.923277,65.4608219 188.343046,66.1950685 C188.765559,66.9210959 188.513149,67.8553425 187.783354,68.2745205 L183.629559,70.6690411 C183.388123,70.8087671 183.124738,70.8745205 182.866841,70.8745205" id="Fill-47" fill="#143258" mask="url(#mask-2)"></path>
                    <path d="M177.103656,65.1235616 C176.845759,65.1235616 176.582374,65.0550685 176.343682,64.9180822 C175.611144,64.4961644 175.358733,63.5646575 175.78399,62.8331507 L178.181887,58.6852055 C178.607144,57.9564384 179.539964,57.7043836 180.272503,58.1263014 C180.999554,58.5482192 181.251964,59.479726 180.829451,60.2112329 L178.42881,64.3619178 C178.146221,64.849589 177.633169,65.1235616 177.103656,65.1235616" id="Fill-48" fill="#143258" mask="url(#mask-2)"></path>
                    <polygon id="Fill-49" fill="#4DC1BF" mask="url(#mask-2)" points="158.977308 196.875616 209.955949 196.875616 209.955949 173.308493 158.977308 173.308493"></polygon>
                    <path d="M160.672846,195.179726 L208.257667,195.179726 L208.257667,175.001644 L160.672846,175.001644 L160.672846,195.179726 Z M209.955949,198.571507 L158.974564,198.571507 C158.039,198.571507 157.279026,197.812603 157.279026,196.875616 L157.279026,173.308493 C157.279026,172.371507 158.039,171.612603 158.974564,171.612603 L209.955949,171.612603 C210.894256,171.612603 211.654231,172.371507 211.654231,173.308493 L211.654231,196.875616 C211.654231,197.812603 210.894256,198.571507 209.955949,198.571507 Z" id="Fill-50" fill="#143258" mask="url(#mask-2)"></path>
                    <path d="M50.4096205,28.7739726 C50.4096205,24.2369863 46.7249795,20.5684932 42.1815949,20.5684932 C37.6409538,20.5684932 33.9645436,24.2369863 33.9645436,28.7739726 C33.9645436,33.3082192 37.6409538,36.9876712 42.1815949,36.9876712 C46.7249795,36.9876712 50.4096205,33.3082192 50.4096205,28.7739726 Z M29.8765949,10.3465753 C32.2607744,8.7739726 34.9632103,7.6260274 37.8906205,7.05890411 L37.8522103,7.05890411 L39.1773641,1.35205479 L45.1995436,1.35205479 L46.5219538,7.05890411 L46.4862872,7.05890411 C49.3999795,7.6260274 52.1133897,8.76027397 54.4865949,10.3465753 L59.4579795,7.26164384 L63.7105436,11.5054795 L60.6212615,16.4616438 C62.2098,18.8287671 63.3593641,21.5383562 63.9410051,24.439726 L69.6284667,25.7465753 L69.6284667,31.7712329 L63.9410051,33.0835616 C63.3703385,35.9931507 62.2235179,38.6890411 60.6322359,41.0726027 L63.7242615,46.0123288 L59.4716974,50.2726027 L54.5112872,47.1849315 C52.1380821,48.7739726 49.4274154,49.9191781 46.5109795,50.5 L45.1995436,56.1712329 L39.1773641,56.1712329 L37.8659282,50.5 C34.9494923,49.9191781 32.2388256,48.7739726 29.8656205,47.1849315 L24.8914923,50.2726027 L20.6389282,46.0260274 L23.7419282,41.0589041 C22.1533897,38.6890411 21.0175436,35.9794521 20.4386462,33.0835616 L14.7347231,31.7712329 L14.7347231,25.7465753 L20.4386462,24.439726 C21.0175436,21.5383562 22.1671077,18.8452055 23.7583897,16.4726027 L20.6499026,11.5054795 L24.9052103,7.24794521 L29.8765949,10.3465753 Z" id="Fill-51" fill="#D8DF27" mask="url(#mask-2)"></path>
                    <path d="M29.8647974,11.7120548 C29.1157974,11.7120548 28.5122077,11.1065753 28.5122077,10.3613699 C28.5122077,10.0408219 28.6246949,9.74493151 28.8140026,9.50931507 C29.0636692,9.19972603 29.4450282,8.9969863 29.8757718,8.9969863 C30.6220282,8.9969863 31.2283615,9.59972603 31.2283615,10.3449315 C31.2283615,11.0928767 30.6110538,11.7120548 29.8647974,11.7120548" id="Fill-52" fill="#302D2D" mask="url(#mask-2)"></path>
                    <path d="M40.2536744,54.82 L44.1248795,54.82 L45.1921359,50.1953425 C45.3128538,49.680274 45.7243923,49.280274 46.2456744,49.1734247 C48.9508538,48.6364384 51.4777,47.589863 53.7603667,46.0638356 C54.2020846,45.7706849 54.7754949,45.759726 55.2254436,46.0391781 L59.2722385,48.559726 L62.0075974,45.8172603 L59.4834949,41.7871233 C59.2063923,41.3378082 59.2146231,40.7652055 59.5081872,40.3213699 C61.0445974,38.02 62.0871615,35.4967123 62.6111872,32.8254795 C62.7127,32.2994521 63.1132641,31.8884932 63.6345462,31.7679452 L68.2767,30.6967123 L68.2767,26.82 L63.6345462,25.7542466 C63.1160077,25.6336986 62.7181872,25.2227397 62.6111872,24.7021918 C62.0734436,22.0090411 61.0226487,19.4884932 59.4972128,17.2117808 C59.2009051,16.7706849 59.1899308,16.1980822 59.4725205,15.7460274 L61.9966231,11.7021918 L59.2612641,8.97342466 L55.2007513,11.4939726 C54.7508026,11.7706849 54.1773923,11.7652055 53.7356744,11.4693151 C51.4612385,9.94876712 48.9343923,8.91041096 46.2264692,8.38438356 C45.5844692,8.25835616 45.1290333,7.69671233 45.1317769,7.05287671 L44.1248795,2.70219178 L40.2509308,2.70219178 L39.219341,7.13780822 C39.1919051,7.74328767 38.7611615,8.26657534 38.1465974,8.38438356 C35.4798282,8.90219178 32.9447513,9.94054795 30.6209308,11.4720548 C30.1819564,11.7679452 29.6085462,11.7706849 29.1585974,11.4939726 L25.1008282,8.96246575 L22.3654692,11.6994521 L24.9032897,15.7569863 C25.1858795,16.2090411 25.1776487,16.7843836 24.8785974,17.2227397 C23.3449308,19.510411 22.2996231,22.0254795 21.7618795,24.7021918 C21.6603667,25.2227397 21.2598026,25.6336986 20.7385205,25.7542466 L16.0853923,26.8227397 L16.0853923,30.6967123 L20.7412641,31.7679452 C21.2598026,31.8857534 21.6603667,32.2967123 21.7618795,32.82 C22.3023667,35.5268493 23.3476744,38.0446575 24.8676231,40.3076712 C25.1639308,40.7487671 25.1721615,41.3241096 24.8895718,41.7734247 L22.3544949,45.8282192 L25.0898538,48.559726 L29.1531103,46.0391781 C29.6003154,45.759726 30.1764692,45.7706849 30.6154436,46.0638356 C32.8981103,47.589863 35.4249564,48.6364384 38.1273923,49.1734247 C38.6459308,49.280274 39.0602128,49.6775342 39.1809308,50.1926027 L40.2536744,54.82 Z M45.1976231,57.5213699 L39.1781872,57.5213699 C38.5499051,57.5213699 38.0039308,57.0884932 37.8612641,56.4747945 L36.7391359,51.6336986 C34.297341,51.0556164 31.9844949,50.0967123 29.8527256,48.7816438 L25.6056487,51.4172603 C25.0733923,51.7460274 24.3792641,51.6693151 23.9348026,51.2254795 L19.6822385,46.9816438 C19.2377769,46.5378082 19.1582128,45.8446575 19.4929308,45.310411 L22.1432385,41.0720548 C20.8345462,38.9542466 19.8825205,36.650137 19.3008795,34.2063014 L14.4282641,33.0857534 C13.8164436,32.9460274 13.3802128,32.4008219 13.3802128,31.7706849 L13.3802128,25.7460274 C13.3802128,25.1186301 13.8164436,24.5734247 14.4310077,24.4309589 L19.3008795,23.3158904 C19.8797769,20.8912329 20.8372897,18.5926027 22.1569564,16.4610959 L19.5039051,12.2227397 C19.1719308,11.6912329 19.2487513,10.9980822 19.6932128,10.5542466 L23.9457769,6.2939726 C24.3902385,5.85013699 25.0843667,5.76794521 25.6193667,6.10219178 L29.8719308,8.75424658 C32.0174179,7.44191781 34.3192897,6.4939726 36.7281615,5.92684932 L37.8612641,1.04739726 C38.0039308,0.43369863 38.5499051,0.000821917808 39.1781872,0.000821917808 L45.1976231,0.000821917808 C45.8286487,0.000821917808 46.3746231,0.43369863 46.5172897,1.04739726 L47.6476487,5.92684932 C50.0839564,6.49945205 52.380341,7.44465753 54.4983923,8.75150685 L58.7454692,6.11589041 C59.2777256,5.78438356 59.9691103,5.86109589 60.4163154,6.30493151 L64.6661359,10.5515068 C65.113341,10.9953425 65.1901615,11.6884932 64.8581872,12.22 L62.2188538,16.450137 C63.5357769,18.5761644 64.4932897,20.8775342 65.0749308,23.3158904 L69.9338282,24.4309589 C70.5456487,24.5734247 70.9818795,25.1186301 70.9818795,25.7460274 L70.9818795,31.7706849 C70.9818795,32.4008219 70.5456487,32.9460274 69.9338282,33.0857534 L65.0804179,34.2035616 C64.5070077,36.6282192 63.5549821,38.9350685 62.2353154,41.080274 L64.8719051,45.2967123 C65.2038795,45.8282192 65.1243154,46.5186301 64.6825974,46.9652055 L60.4300333,51.2254795 C59.9828282,51.6693151 59.2859564,51.7487671 58.7564436,51.4172603 L54.5230846,48.7843836 C52.3913154,50.0967123 50.0812128,51.0556164 47.6339308,51.6336986 L46.5172897,56.4747945 C46.3746231,57.0857534 45.8286487,57.5213699 45.1976231,57.5213699 Z" id="Fill-53" fill="#143258" mask="url(#mask-2)"></path>
                    <path d="M42.1813205,21.9178082 C38.3979103,21.9178082 35.3196026,24.9945205 35.3196026,28.7753425 C35.3196026,32.5589041 38.3979103,35.6383562 42.1813205,35.6383562 C45.9729615,35.6383562 49.0567564,32.5589041 49.0567564,28.7753425 C49.0567564,24.9945205 45.9729615,21.9178082 42.1813205,21.9178082 M42.1813205,38.339726 C36.9053974,38.339726 32.6144231,34.0493151 32.6144231,28.7753425 C32.6144231,23.5041096 36.9053974,19.2191781 42.1813205,19.2191781 C47.4627308,19.2191781 51.7619359,23.5041096 51.7619359,28.7753425 C51.7619359,34.0493151 47.4627308,38.339726 42.1813205,38.339726" id="Fill-54" fill="#143258" mask="url(#mask-2)"></path>
                    <path d="M26.4701538,30.1249315 C25.7238974,30.1249315 25.1175641,29.5194521 25.1175641,28.7742466 C25.1175641,24.2153425 26.8954103,19.9358904 30.1246154,16.7249315 C33.3318718,13.5084932 37.6146154,11.7331507 42.1826923,11.7331507 C42.9289487,11.7331507 43.5352821,12.3358904 43.5352821,13.0838356 C43.5352821,13.8290411 42.9289487,14.4345205 42.1826923,14.4345205 C38.3389231,14.4345205 34.7365897,15.9249315 32.0341538,18.6345205 C29.3152564,21.3358904 27.8227436,24.9386301 27.8227436,28.7742466 C27.8227436,29.5194521 27.2164103,30.1249315 26.4701538,30.1249315" id="Fill-55" fill="#143258" mask="url(#mask-2)"></path>
                </g>
            </g>
        </g>
    </g>
</svg>