<svg width="450" height="517" viewBox="0 0 450 517" fill="none" xmlns="http://www.w3.org/2000/svg">
<path fill-rule="evenodd" clip-rule="evenodd" d="M221.46 371.337H318.126V245.655H221.46V371.337Z" fill="#EBEBEB"/>
<mask id="mask0" style="mask-type:alpha" maskUnits="userSpaceOnUse" x="0" y="147" width="448" height="226">
<path fill-rule="evenodd" clip-rule="evenodd" d="M0 147.151H447.952V372.692H0V147.151Z" fill="white"/>
</mask>
<g mask="url(#mask0)">
<path fill-rule="evenodd" clip-rule="evenodd" d="M222.812 369.986H316.77V247.006H222.812V369.986ZM318.124 372.692H221.46C220.713 372.692 220.106 372.086 220.106 371.337V245.655C220.106 244.911 220.713 244.305 221.46 244.305H318.124C318.871 244.305 319.476 244.911 319.476 245.655V371.337C319.476 372.086 318.871 372.692 318.124 372.692Z" fill="#143258"/>
<path fill-rule="evenodd" clip-rule="evenodd" d="M279.993 235.465V233.281C279.993 227.252 275.099 222.363 269.063 222.363C263.028 222.363 258.134 227.252 258.134 233.281V235.465H242.832C236.797 235.465 231.903 240.354 231.903 246.385V252.449H306.222V246.385C306.222 240.354 301.33 235.465 295.293 235.465H279.993Z" fill="#F9C148"/>
<path fill-rule="evenodd" clip-rule="evenodd" d="M233.256 251.097H304.871V246.386C304.871 241.108 300.575 236.815 295.294 236.815H279.992C279.245 236.815 278.64 236.21 278.64 235.464V233.283C278.64 228.007 274.344 223.718 269.062 223.718C263.783 223.718 259.488 228.007 259.488 233.283V235.464C259.488 236.21 258.88 236.815 258.133 236.815H242.833C237.554 236.815 233.256 241.108 233.256 246.386V251.097ZM306.223 253.803H231.904C231.157 253.803 230.55 253.198 230.55 252.45V246.386C230.55 239.617 236.06 234.113 242.833 234.113H256.781V233.283C256.781 226.516 262.291 221.012 269.062 221.012C275.836 221.012 281.344 226.516 281.344 233.283V234.113H295.294C302.065 234.113 307.577 239.617 307.577 246.386V252.45C307.577 253.198 306.97 253.803 306.223 253.803Z" fill="#143258"/>
<path fill-rule="evenodd" clip-rule="evenodd" d="M272.788 232.635C272.788 234.689 271.119 236.356 269.063 236.356C267.007 236.356 265.34 234.689 265.34 232.635C265.34 230.579 267.007 228.914 269.063 228.914C271.119 228.914 272.788 230.579 272.788 232.635Z" fill="#143258"/>
<path fill-rule="evenodd" clip-rule="evenodd" d="M293.702 285.123H303.094V275.743H293.702V285.123Z" fill="#EC7C6C"/>
<path fill-rule="evenodd" clip-rule="evenodd" d="M295.054 283.773H301.739V277.094H295.054V283.773ZM303.093 286.474H293.701C292.954 286.474 292.347 285.87 292.347 285.123V275.743C292.347 274.995 292.954 274.39 293.701 274.39H303.093C303.84 274.39 304.445 274.995 304.445 275.743V285.123C304.445 285.87 303.84 286.474 303.093 286.474Z" fill="#143258"/>
<path fill-rule="evenodd" clip-rule="evenodd" d="M281.671 277.889H236.494C235.745 277.889 235.14 277.285 235.14 276.538C235.14 275.792 235.745 275.188 236.494 275.188H281.671C282.418 275.188 283.025 275.792 283.025 276.538C283.025 277.285 282.418 277.889 281.671 277.889Z" fill="#143258"/>
<path fill-rule="evenodd" clip-rule="evenodd" d="M281.671 285.678H236.494C235.745 285.678 235.14 285.073 235.14 284.327C235.14 283.58 235.745 282.976 236.494 282.976H281.671C282.418 282.976 283.025 283.58 283.025 284.327C283.025 285.073 282.418 285.678 281.671 285.678Z" fill="#143258"/>
<path fill-rule="evenodd" clip-rule="evenodd" d="M295.915 311.018H302.6V304.34H295.915V311.018ZM303.952 313.724H294.56C293.815 313.724 293.21 313.118 293.21 312.371V302.989C293.21 302.243 293.815 301.638 294.56 301.638H303.952C304.699 301.638 305.307 302.243 305.307 302.989V312.371C305.307 313.118 304.699 313.724 303.952 313.724Z" fill="#143258"/>
<path fill-rule="evenodd" clip-rule="evenodd" d="M280.81 305.137H235.632C234.882 305.137 234.277 304.533 234.277 303.784C234.277 303.04 234.882 302.434 235.632 302.434H280.81C281.557 302.434 282.163 303.04 282.163 303.784C282.163 304.533 281.557 305.137 280.81 305.137Z" fill="#143258"/>
<path fill-rule="evenodd" clip-rule="evenodd" d="M280.81 312.926H235.632C234.882 312.926 234.277 312.321 234.277 311.573C234.277 310.824 234.882 310.222 235.632 310.222H280.81C281.557 310.222 282.163 310.824 282.163 311.573C282.163 312.321 281.557 312.926 280.81 312.926Z" fill="#143258"/>
<path fill-rule="evenodd" clip-rule="evenodd" d="M295.915 338.266H302.6V331.588H295.915V338.266ZM303.952 340.97H294.56C293.815 340.97 293.21 340.366 293.21 339.617V330.235C293.21 329.488 293.815 328.886 294.56 328.886H303.952C304.699 328.886 305.307 329.488 305.307 330.235V339.617C305.307 340.366 304.699 340.97 303.952 340.97Z" fill="#143258"/>
<path fill-rule="evenodd" clip-rule="evenodd" d="M280.81 332.385H235.632C234.882 332.385 234.277 331.781 234.277 331.032C234.277 330.288 234.882 329.681 235.632 329.681H280.81C281.557 329.681 282.163 330.288 282.163 331.032C282.163 331.781 281.557 332.385 280.81 332.385Z" fill="#143258"/>
<path fill-rule="evenodd" clip-rule="evenodd" d="M280.81 340.174H235.632C234.882 340.174 234.277 339.57 234.277 338.821C234.277 338.075 234.882 337.47 235.632 337.47H280.81C281.557 337.47 282.163 338.075 282.163 338.821C282.163 339.57 281.557 340.174 280.81 340.174Z" fill="#143258"/>
<path fill-rule="evenodd" clip-rule="evenodd" d="M264.277 247.683H238.466C237.346 247.683 236.438 246.774 236.438 245.657C236.438 244.537 237.346 243.629 238.466 243.629H264.277C265.397 243.629 266.305 244.537 266.305 245.657C266.305 246.774 265.397 247.683 264.277 247.683Z" fill="#F4F5F5"/>
<path fill-rule="evenodd" clip-rule="evenodd" d="M80.7334 199.369C80.7334 193.275 85.6748 188.339 91.7745 188.339H112.507V243.083H80.7334V199.369Z" fill="#B1B1B1"/>
<path fill-rule="evenodd" clip-rule="evenodd" d="M82.0852 241.731H111.152V189.691H91.7742C86.4301 189.691 82.0852 194.031 82.0852 199.37V241.731ZM112.506 244.435H80.733C79.9859 244.435 79.3809 243.83 79.3809 243.084V199.37C79.3809 192.543 84.9402 186.989 91.7742 186.989H112.506C113.256 186.989 113.859 187.594 113.859 188.34V243.084C113.859 243.83 113.256 244.435 112.506 244.435Z" fill="#143258"/>
<path fill-rule="evenodd" clip-rule="evenodd" d="M112.996 314.665C106.898 314.665 101.957 309.725 101.957 303.635L102.14 199.368C102.14 193.275 97.1965 188.34 91.1011 188.34H159.871C165.969 188.34 170.913 193.275 170.913 199.368V314.665H112.996Z" fill="#EBEBEB"/>
<path fill-rule="evenodd" clip-rule="evenodd" d="M98.8215 189.69C101.666 191.961 103.492 195.457 103.492 199.369L103.309 303.638C103.309 308.973 107.656 313.313 112.995 313.313H169.56V199.369C169.56 194.033 165.215 189.69 159.871 189.69H98.8215ZM170.912 316.017H112.995C106.164 316.017 100.604 310.463 100.604 303.636L100.787 199.367C100.787 194.033 96.4423 189.69 91.1004 189.69C90.3533 189.69 89.7461 189.088 89.7461 188.339C89.7461 187.593 90.3533 186.988 91.1004 186.988H159.871C166.705 186.988 172.264 192.542 172.264 199.369V314.666C172.264 315.413 171.659 316.017 170.912 316.017Z" fill="#143258"/>
<path fill-rule="evenodd" clip-rule="evenodd" d="M155.152 314.665V240.744H134.42C128.323 240.744 123.379 245.682 123.379 251.772V257.747V303.635C123.379 309.724 118.435 314.665 112.338 314.665H155.152Z" fill="#B1B1B1"/>
<path fill-rule="evenodd" clip-rule="evenodd" d="M120.06 313.313H153.799V242.095H134.419C129.077 242.095 124.73 246.435 124.73 251.772V303.635C124.73 307.548 122.904 311.043 120.06 313.313ZM155.151 316.016H112.339C111.592 316.016 110.987 315.414 110.987 314.666C110.987 313.917 111.592 313.313 112.339 313.313C117.681 313.313 122.028 308.972 122.028 303.635V251.772C122.028 244.945 127.585 239.391 134.419 239.391H155.151C155.901 239.391 156.506 239.996 156.506 240.744V314.666C156.506 315.414 155.901 316.016 155.151 316.016Z" fill="#143258"/>
<path fill-rule="evenodd" clip-rule="evenodd" d="M133.577 240.743C139.674 240.743 144.618 245.682 144.618 251.771V360.31C144.618 366.401 149.559 371.338 155.657 371.338H213.39V251.771C213.39 245.682 208.447 240.743 202.349 240.743H133.577Z" fill="#EBEBEB"/>
<path fill-rule="evenodd" clip-rule="evenodd" d="M141.297 242.094C144.143 244.365 145.969 247.858 145.969 251.771V360.31C145.969 365.644 150.316 369.987 155.658 369.987H212.037V251.771C212.037 246.437 207.69 242.094 202.35 242.094H141.297ZM213.389 372.693H155.658C148.824 372.693 143.265 367.137 143.265 360.31V251.771C143.265 246.437 138.92 242.094 133.578 242.094C132.829 242.094 132.224 241.489 132.224 240.743C132.224 239.995 132.829 239.39 133.578 239.39H202.35C209.182 239.39 214.742 244.944 214.742 251.771V371.338C214.742 372.086 214.137 372.693 213.389 372.693Z" fill="#143258"/>
<path fill-rule="evenodd" clip-rule="evenodd" d="M234.963 354.332V360.309C234.963 366.401 230.022 371.337 223.922 371.337H155.152C161.249 371.337 166.193 366.401 166.193 360.309V354.332H234.963Z" fill="#B1B1B1"/>
<path fill-rule="evenodd" clip-rule="evenodd" d="M162.874 369.987H223.921C229.265 369.987 233.61 365.644 233.61 360.31V355.683H167.544V360.31C167.544 364.222 165.718 367.715 162.874 369.987ZM223.921 372.693H155.153C154.404 372.693 153.799 372.086 153.799 371.338C153.799 370.591 154.404 369.987 155.153 369.987C160.493 369.987 164.84 365.644 164.84 360.31V354.332C164.84 353.586 165.447 352.981 166.192 352.981H234.962C235.712 352.981 236.317 353.586 236.317 354.332V360.31C236.317 367.137 230.757 372.693 223.921 372.693Z" fill="#143258"/>
<path fill-rule="evenodd" clip-rule="evenodd" d="M188.316 272.218H152.826C152.077 272.218 151.472 271.613 151.472 270.867C151.472 270.119 152.077 269.514 152.826 269.514H188.316C189.063 269.514 189.668 270.119 189.668 270.867C189.668 271.613 189.063 272.218 188.316 272.218Z" fill="#143258"/>
<path fill-rule="evenodd" clip-rule="evenodd" d="M188.316 294.815H152.826C152.077 294.815 151.472 294.213 151.472 293.465C151.472 292.718 152.077 292.114 152.826 292.114H188.316C189.063 292.114 189.668 292.718 189.668 293.465C189.668 294.213 189.063 294.815 188.316 294.815Z" fill="#143258"/>
<path fill-rule="evenodd" clip-rule="evenodd" d="M188.316 306.118H152.826C152.077 306.118 151.472 305.514 151.472 304.765C151.472 304.019 152.077 303.415 152.826 303.415H188.316C189.063 303.415 189.668 304.019 189.668 304.765C189.668 305.514 189.063 306.118 188.316 306.118Z" fill="#143258"/>
<path fill-rule="evenodd" clip-rule="evenodd" d="M188.316 283.516H152.826C152.077 283.516 151.472 282.912 151.472 282.165C151.472 281.417 152.077 280.812 152.826 280.812H188.316C189.063 280.812 189.668 281.417 189.668 282.165C189.668 282.912 189.063 283.516 188.316 283.516Z" fill="#143258"/>
<path fill-rule="evenodd" clip-rule="evenodd" d="M158.865 206.299H123.375C122.626 206.299 122.021 205.695 122.021 204.946C122.021 204.2 122.626 203.595 123.375 203.595H158.865C159.612 203.595 160.217 204.2 160.217 204.946C160.217 205.695 159.612 206.299 158.865 206.299Z" fill="#143258"/>
<path fill-rule="evenodd" clip-rule="evenodd" d="M158.865 228.901H123.375C122.626 228.901 122.021 228.296 122.021 227.548C122.021 226.799 122.626 226.197 123.375 226.197H158.865C159.612 226.197 160.217 226.799 160.217 227.548C160.217 228.296 159.612 228.901 158.865 228.901Z" fill="#143258"/>
<path fill-rule="evenodd" clip-rule="evenodd" d="M158.865 217.599H123.375C122.626 217.599 122.021 216.995 122.021 216.246C122.021 215.5 122.626 214.894 123.375 214.894H158.865C159.612 214.894 160.217 215.5 160.217 216.246C160.217 216.995 159.612 217.599 158.865 217.599Z" fill="#143258"/>
<path fill-rule="evenodd" clip-rule="evenodd" d="M188.316 317.417H152.826C152.077 317.417 151.472 316.813 151.472 316.066C151.472 315.32 152.077 314.715 152.826 314.715H188.316C189.063 314.715 189.668 315.32 189.668 316.066C189.668 316.813 189.063 317.417 188.316 317.417Z" fill="#143258"/>
<path fill-rule="evenodd" clip-rule="evenodd" d="M188.316 328.716H152.826C152.077 328.716 151.472 328.111 151.472 327.365C151.472 326.619 152.077 326.014 152.826 326.014H188.316C189.063 326.014 189.668 326.619 189.668 327.365C189.668 328.111 189.063 328.716 188.316 328.716Z" fill="#143258"/>
<path fill-rule="evenodd" clip-rule="evenodd" d="M203.775 256.279C203.775 260.413 200.42 263.762 196.282 263.762C192.146 263.762 188.792 260.413 188.792 256.279C188.792 252.147 192.146 248.795 196.282 248.795C200.42 248.795 203.775 252.147 203.775 256.279Z" fill="#F9C148"/>
<path fill-rule="evenodd" clip-rule="evenodd" d="M196.283 250.147C192.901 250.147 190.145 252.898 190.145 256.278C190.145 259.663 192.901 262.414 196.283 262.414C199.668 262.414 202.422 259.663 202.422 256.278C202.422 252.898 199.668 250.147 196.283 250.147ZM196.283 265.116C191.406 265.116 187.44 261.149 187.44 256.278C187.44 251.41 191.406 247.446 196.283 247.446C201.16 247.446 205.126 251.41 205.126 256.278C205.126 261.149 201.16 265.116 196.283 265.116Z" fill="#143258"/>
<path fill-rule="evenodd" clip-rule="evenodd" d="M199.422 257.634H193.146C192.397 257.634 191.792 257.027 191.792 256.279C191.792 255.534 192.397 254.928 193.146 254.928H199.422C200.169 254.928 200.774 255.534 200.774 256.279C200.774 257.027 200.169 257.634 199.422 257.634Z" fill="#143258"/>
<path fill-rule="evenodd" clip-rule="evenodd" d="M196.283 260.768C195.536 260.768 194.931 260.163 194.931 259.417V253.143C194.931 252.396 195.536 251.792 196.283 251.792C197.033 251.792 197.635 252.396 197.635 253.143V259.417C197.635 260.163 197.033 260.768 196.283 260.768Z" fill="#143258"/>
<path fill-rule="evenodd" clip-rule="evenodd" d="M169.495 342.829C169.495 346.959 166.141 350.312 162.003 350.312C157.869 350.312 154.514 346.959 154.514 342.829C154.514 338.693 157.869 335.344 162.003 335.344C166.141 335.344 169.495 338.693 169.495 342.829Z" fill="#EB6C62"/>
<path fill-rule="evenodd" clip-rule="evenodd" d="M162.003 336.696C158.619 336.696 155.865 339.447 155.865 342.83C155.865 346.209 158.619 348.96 162.003 348.96C165.39 348.96 168.144 346.209 168.144 342.83C168.144 339.447 165.39 336.696 162.003 336.696ZM162.003 351.662C157.127 351.662 153.161 347.7 153.161 342.83C153.161 337.956 157.127 333.99 162.003 333.99C166.88 333.99 170.848 337.956 170.848 342.83C170.848 347.7 166.88 351.662 162.003 351.662Z" fill="#143258"/>
<path fill-rule="evenodd" clip-rule="evenodd" d="M165.143 344.178H158.865C158.115 344.178 157.51 343.573 157.51 342.829C157.51 342.08 158.115 341.476 158.865 341.476H165.143C165.89 341.476 166.495 342.08 166.495 342.829C166.495 343.573 165.89 344.178 165.143 344.178Z" fill="#143258"/>
<path fill-rule="evenodd" clip-rule="evenodd" d="M250.153 347.207H197.856C196.241 347.207 194.937 345.899 194.937 344.288V273.184C194.937 271.573 196.241 270.268 197.856 270.268H250.153C251.766 270.268 253.075 271.573 253.075 273.184V344.288C253.075 345.899 251.766 347.207 250.153 347.207Z" fill="#374558"/>
<path fill-rule="evenodd" clip-rule="evenodd" d="M198.523 271.619C197.292 271.619 196.288 272.622 196.288 273.852V343.62C196.288 344.852 197.292 345.853 198.523 345.853H249.488C250.719 345.853 251.722 344.852 251.722 343.62V273.852C251.722 272.622 250.719 271.619 249.488 271.619H198.523ZM249.488 348.559H198.523C195.798 348.559 193.582 346.341 193.582 343.62V273.852C193.582 271.129 195.798 268.916 198.523 268.916H249.488C252.211 268.916 254.427 271.129 254.427 273.852V343.62C254.427 346.341 252.211 348.559 249.488 348.559Z" fill="#143258"/>
<path fill-rule="evenodd" clip-rule="evenodd" d="M242.468 290.66H205.544C202.893 290.66 200.745 288.514 200.745 285.866V281.123C200.745 278.477 202.893 276.331 205.544 276.331H242.468C245.116 276.331 247.267 278.477 247.267 281.123V285.866C247.267 288.514 245.116 290.66 242.468 290.66Z" fill="#EBEBEB"/>
<path fill-rule="evenodd" clip-rule="evenodd" d="M206.734 304.892H203.756C202.092 304.892 200.744 303.547 200.744 301.887V298.845C200.744 297.187 202.092 295.84 203.756 295.84H206.734C208.396 295.84 209.742 297.187 209.742 298.845V301.887C209.742 303.547 208.396 304.892 206.734 304.892Z" fill="#EB6C62"/>
<path fill-rule="evenodd" clip-rule="evenodd" d="M219.241 304.892H216.263C214.599 304.892 213.251 303.547 213.251 301.887V298.845C213.251 297.187 214.599 295.84 216.263 295.84H219.241C220.903 295.84 222.249 297.187 222.249 298.845V301.887C222.249 303.547 220.903 304.892 219.241 304.892Z" fill="#EB6C62"/>
<path fill-rule="evenodd" clip-rule="evenodd" d="M231.748 304.892H228.77C227.105 304.892 225.76 303.547 225.76 301.887V298.845C225.76 297.187 227.105 295.84 228.77 295.84H231.748C233.41 295.84 234.758 297.187 234.758 298.845V301.887C234.758 303.547 233.41 304.892 231.748 304.892Z" fill="#EB6C62"/>
<path fill-rule="evenodd" clip-rule="evenodd" d="M244.254 304.892H241.276C239.614 304.892 238.266 303.547 238.266 301.887V298.845C238.266 297.187 239.614 295.84 241.276 295.84H244.254C245.916 295.84 247.266 297.187 247.266 298.845V301.887C247.266 303.547 245.916 304.892 244.254 304.892Z" fill="#F9C148"/>
<path fill-rule="evenodd" clip-rule="evenodd" d="M206.734 316.976H203.756C202.092 316.976 200.744 315.629 200.744 313.969V310.93C200.744 309.269 202.092 307.923 203.756 307.923H206.734C208.396 307.923 209.742 309.269 209.742 310.93V313.969C209.742 315.629 208.396 316.976 206.734 316.976Z" fill="#FEFEFE"/>
<path fill-rule="evenodd" clip-rule="evenodd" d="M219.241 316.976H216.263C214.599 316.976 213.251 315.629 213.251 313.969V310.93C213.251 309.269 214.599 307.923 216.263 307.923H219.241C220.903 307.923 222.249 309.269 222.249 310.93V313.969C222.249 315.629 220.903 316.976 219.241 316.976Z" fill="#FEFEFE"/>
<path fill-rule="evenodd" clip-rule="evenodd" d="M231.748 316.976H228.77C227.105 316.976 225.76 315.629 225.76 313.969V310.93C225.76 309.269 227.105 307.923 228.77 307.923H231.748C233.41 307.923 234.758 309.269 234.758 310.93V313.969C234.758 315.629 233.41 316.976 231.748 316.976Z" fill="#FEFEFE"/>
<path fill-rule="evenodd" clip-rule="evenodd" d="M244.254 316.976H241.276C239.614 316.976 238.266 315.629 238.266 313.969V310.93C238.266 309.269 239.614 307.923 241.276 307.923H244.254C245.916 307.923 247.266 309.269 247.266 310.93V313.969C247.266 315.629 245.916 316.976 244.254 316.976Z" fill="#EB6C62"/>
<path fill-rule="evenodd" clip-rule="evenodd" d="M206.734 329.058H203.756C202.092 329.058 200.744 327.712 200.744 326.051V323.012C200.744 321.354 202.092 320.005 203.756 320.005H206.734C208.396 320.005 209.742 321.354 209.742 323.012V326.051C209.742 327.712 208.396 329.058 206.734 329.058Z" fill="#FEFEFE"/>
<path fill-rule="evenodd" clip-rule="evenodd" d="M219.241 329.058H216.263C214.599 329.058 213.251 327.712 213.251 326.051V323.012C213.251 321.354 214.599 320.005 216.263 320.005H219.241C220.903 320.005 222.249 321.354 222.249 323.012V326.051C222.249 327.712 220.903 329.058 219.241 329.058Z" fill="#FEFEFE"/>
<path fill-rule="evenodd" clip-rule="evenodd" d="M231.748 329.058H228.77C227.105 329.058 225.76 327.712 225.76 326.051V323.012C225.76 321.354 227.105 320.005 228.77 320.005H231.748C233.41 320.005 234.758 321.354 234.758 323.012V326.051C234.758 327.712 233.41 329.058 231.748 329.058Z" fill="#FEFEFE"/>
<path fill-rule="evenodd" clip-rule="evenodd" d="M244.254 329.058H241.276C239.614 329.058 238.266 327.712 238.266 326.051V323.012C238.266 321.354 239.614 320.005 241.276 320.005H244.254C245.916 320.005 247.266 321.354 247.266 323.012V326.051C247.266 327.712 245.916 329.058 244.254 329.058Z" fill="#EB6C62"/>
<path fill-rule="evenodd" clip-rule="evenodd" d="M206.734 341.14H203.756C202.092 341.14 200.744 339.794 200.744 338.133V335.094C200.744 333.436 202.092 332.089 203.756 332.089H206.734C208.396 332.089 209.742 333.436 209.742 335.094V338.133C209.742 339.794 208.396 341.14 206.734 341.14Z" fill="#FEFEFE"/>
<path fill-rule="evenodd" clip-rule="evenodd" d="M219.241 341.14H216.263C214.599 341.14 213.251 339.794 213.251 338.133V335.094C213.251 333.436 214.599 332.089 216.263 332.089H219.241C220.903 332.089 222.249 333.436 222.249 335.094V338.133C222.249 339.794 220.903 341.14 219.241 341.14Z" fill="#FEFEFE"/>
<path fill-rule="evenodd" clip-rule="evenodd" d="M231.748 341.14H228.77C227.105 341.14 225.76 339.794 225.76 338.133V335.094C225.76 333.436 227.105 332.089 228.77 332.089H231.748C233.41 332.089 234.758 333.436 234.758 335.094V338.133C234.758 339.794 233.41 341.14 231.748 341.14Z" fill="#FEFEFE"/>
<path fill-rule="evenodd" clip-rule="evenodd" d="M244.254 341.14H241.276C239.614 341.14 238.266 339.794 238.266 338.133V335.094C238.266 333.436 239.614 332.089 241.276 332.089H244.254C245.916 332.089 247.266 333.436 247.266 335.094V338.133C247.266 339.794 245.916 341.14 244.254 341.14Z" fill="#EB6C62"/>
<path fill-rule="evenodd" clip-rule="evenodd" d="M307.086 289.112L315.102 275.484C311.474 270.079 309.358 263.583 309.358 256.59C309.358 237.829 324.58 222.62 343.362 222.62C362.141 222.62 377.366 237.829 377.366 256.59C377.366 275.353 362.141 290.56 343.362 290.56C336.285 290.56 329.713 288.398 324.27 284.701L309.713 291.926C307.926 292.814 306.074 290.835 307.086 289.112Z" fill="#71C3CA"/>
<path fill-rule="evenodd" clip-rule="evenodd" d="M343.361 223.971C325.359 223.971 310.711 238.603 310.711 256.588C310.711 263.083 312.617 269.358 316.223 274.731C316.514 275.163 316.531 275.72 316.266 276.168L308.252 289.796C308.031 290.175 308.24 290.469 308.339 290.575C308.44 290.684 308.715 290.914 309.112 290.717L323.669 283.492C324.108 283.274 324.625 283.311 325.029 283.584C330.449 287.264 336.788 289.207 343.361 289.207C361.365 289.207 376.013 274.576 376.013 256.588C376.013 238.603 361.365 223.971 343.361 223.971ZM308.81 293.491C307.906 293.491 307.017 293.121 306.358 292.418C305.337 291.325 305.161 289.719 305.921 288.428L313.51 275.52C309.904 269.861 308.005 263.335 308.005 256.588C308.005 237.115 323.865 221.269 343.361 221.269C362.857 221.269 378.719 237.115 378.719 256.588C378.719 276.066 362.857 291.912 343.361 291.912C336.508 291.912 329.893 289.959 324.173 286.26L310.315 293.134C309.833 293.377 309.318 293.491 308.81 293.491Z" fill="#143258"/>
<path fill-rule="evenodd" clip-rule="evenodd" d="M349.824 265.152C349.824 264.377 349.621 263.734 349.214 263.218C348.81 262.699 348.071 262.222 347.001 261.781V268.58C348.883 267.991 349.824 266.849 349.824 265.152ZM341.134 245.027C339.549 245.578 338.755 246.591 338.755 248.067C338.755 249.54 339.549 250.665 341.134 251.439V245.027ZM341.134 280.135V276.1C337.768 275.571 334.593 274.33 331.608 272.372C329.651 271.09 329.343 268.333 330.829 266.53C332.14 264.936 334.478 264.547 336.169 265.734C337.943 266.986 339.599 267.84 341.134 268.305V260.067C337.26 259.071 334.418 257.735 332.612 256.055C330.801 254.377 329.899 251.964 329.899 248.813C329.899 245.66 330.932 243.061 332.999 241.016C335.064 238.97 337.775 237.746 341.134 237.338V234.632H347.001V237.452C349.352 237.781 351.701 238.521 354.037 239.674C356.227 240.753 357.006 243.489 355.611 245.494C354.49 247.109 352.315 247.682 350.586 246.742C349.335 246.06 348.142 245.565 347.001 245.247V253.21C350.986 254.24 353.928 255.623 355.829 257.357C357.728 259.09 358.679 261.538 358.679 264.711C358.679 267.883 357.62 270.495 355.497 272.559C353.374 274.624 350.543 275.859 347.001 276.265V280.135H341.134Z" fill="#F4F5F5"/>
<path fill-rule="evenodd" clip-rule="evenodd" d="M294.62 189.266C292.602 189.266 290.962 190.905 290.962 192.918C290.962 194.936 292.602 196.573 294.62 196.573C296.635 196.573 298.278 194.936 298.278 192.918C298.278 190.905 296.635 189.266 294.62 189.266ZM294.62 199.274C291.11 199.274 288.255 196.426 288.255 192.918C288.255 189.412 291.11 186.56 294.62 186.56C298.13 186.56 300.982 189.412 300.982 192.918C300.982 196.426 298.13 199.274 294.62 199.274Z" fill="#FEFEFE"/>
<path fill-rule="evenodd" clip-rule="evenodd" d="M50.9251 253.976C48.9077 253.976 47.2649 255.616 47.2649 257.633C47.2649 259.646 48.9077 261.285 50.9251 261.285C52.9405 261.285 54.5811 259.646 54.5811 257.633C54.5811 255.616 52.9405 253.976 50.9251 253.976ZM50.9251 263.989C47.4156 263.989 44.5605 261.137 44.5605 257.633C44.5605 254.123 47.4156 251.275 50.9251 251.275C54.4326 251.275 57.2876 254.123 57.2876 257.633C57.2876 261.137 54.4326 263.989 50.9251 263.989Z" fill="#FEFEFE"/>
<path fill-rule="evenodd" clip-rule="evenodd" d="M430.668 272.676C428.651 272.676 427.01 274.317 427.01 276.33C427.01 278.346 428.651 279.985 430.668 279.985C432.684 279.985 434.326 278.346 434.326 276.33C434.326 274.317 432.684 272.676 430.668 272.676ZM430.668 282.688C427.161 282.688 424.304 279.836 424.304 276.33C424.304 272.824 427.161 269.974 430.668 269.974C434.178 269.974 437.033 272.824 437.033 276.33C437.033 279.836 434.178 282.688 430.668 282.688Z" fill="#FEFEFE"/>
<path fill-rule="evenodd" clip-rule="evenodd" d="M420.509 217.062H414.229C413.481 217.062 412.876 216.458 412.876 215.711C412.876 214.965 413.481 214.36 414.229 214.36H420.509C421.256 214.36 421.861 214.965 421.861 215.711C421.861 216.458 421.256 217.062 420.509 217.062Z" fill="#FEFEFE"/>
<path fill-rule="evenodd" clip-rule="evenodd" d="M417.37 220.2C416.623 220.2 416.018 219.596 416.018 218.847V212.575C416.018 211.827 416.623 211.222 417.37 211.222C418.117 211.222 418.722 211.827 418.722 212.575V218.847C418.722 219.596 418.117 220.2 417.37 220.2Z" fill="#FEFEFE"/>
<path fill-rule="evenodd" clip-rule="evenodd" d="M21.4467 244.434H15.1661C14.419 244.434 13.814 243.83 13.814 243.083C13.814 242.335 14.419 241.73 15.1661 241.73H21.4467C22.1939 241.73 22.7989 242.335 22.7989 243.083C22.7989 243.83 22.1939 244.434 21.4467 244.434Z" fill="#FEFEFE"/>
<path fill-rule="evenodd" clip-rule="evenodd" d="M18.3077 247.57C17.5606 247.57 16.9556 246.966 16.9556 246.217V239.945C16.9556 239.199 17.5606 238.594 18.3077 238.594C19.0548 238.594 19.6599 239.199 19.6599 239.945V246.217C19.6599 246.966 19.0548 247.57 18.3077 247.57Z" fill="#FEFEFE"/>
<path fill-rule="evenodd" clip-rule="evenodd" d="M339.49 305.137H333.212C332.462 305.137 331.857 304.533 331.857 303.784C331.857 303.04 332.462 302.434 333.212 302.434H339.49C340.239 302.434 340.842 303.04 340.842 303.784C340.842 304.533 340.239 305.137 339.49 305.137Z" fill="#FEFEFE"/>
<path fill-rule="evenodd" clip-rule="evenodd" d="M336.35 308.273C335.605 308.273 335 307.671 335 306.922V300.65C335 299.902 335.605 299.297 336.35 299.297C337.099 299.297 337.704 299.902 337.704 300.65V306.922C337.704 307.671 337.099 308.273 336.35 308.273Z" fill="#FEFEFE"/>
<path fill-rule="evenodd" clip-rule="evenodd" d="M354.709 337.095H346.416C345.669 337.095 345.063 336.49 345.063 335.742C345.063 334.995 345.669 334.391 346.416 334.391H354.709C355.454 334.391 356.062 334.995 356.062 335.742C356.062 336.49 355.454 337.095 354.709 337.095Z" fill="#1D1C1A"/>
<path fill-rule="evenodd" clip-rule="evenodd" d="M367.84 358.795C367.093 358.795 366.488 358.191 366.488 357.444V352.592C366.488 351.848 367.093 351.239 367.84 351.239C368.587 351.239 369.192 351.848 369.192 352.592V357.444C369.192 358.191 368.587 358.795 367.84 358.795Z" fill="#1D1C1A"/>
<path fill-rule="evenodd" clip-rule="evenodd" d="M435.087 329.071C435.087 310.815 415.016 296.015 390.257 296.015C384.312 296.015 378.637 296.869 373.446 298.42L362.525 288.36C361.08 287.03 358.744 288.071 358.774 290.037C358.869 296.127 358.966 305.404 358.68 305.606C352.617 310.043 348.265 315.75 346.416 322.138H339.153C337.019 322.138 335.286 323.87 335.286 326.003V332.138C335.286 334.271 337.019 336.003 339.153 336.003H346.416C349.1 345.269 357.045 353.099 367.841 357.706V366.493C367.841 369.312 370.13 371.597 372.953 371.597H373.939C376.761 371.597 379.05 369.312 379.05 366.493V361.085C382.631 361.767 386.386 362.128 390.257 362.128C394.128 362.128 397.884 361.767 401.464 361.085V366.493C401.464 369.312 403.753 371.597 406.573 371.597H407.562C410.384 371.597 412.673 369.312 412.673 366.493V357.706C426.072 351.987 435.087 341.307 435.087 329.071Z" fill="#EB6C62"/>
<path fill-rule="evenodd" clip-rule="evenodd" d="M401.464 359.476C401.776 359.476 402.082 359.583 402.327 359.783C402.637 360.042 402.816 360.422 402.816 360.827V366.234C402.816 368.303 404.502 369.987 406.573 369.987H407.561C409.633 369.987 411.319 368.303 411.319 366.234V357.445C411.319 356.903 411.641 356.413 412.141 356.2C425.46 350.521 433.735 340.025 433.735 328.812C433.735 311.329 414.23 297.107 390.255 297.107C384.577 297.107 379.054 297.896 373.833 299.458C373.374 299.591 372.879 299.477 372.528 299.155L361.608 289.093C361.224 288.738 360.807 288.869 360.647 288.938C360.488 289.009 360.118 289.232 360.126 289.757C360.376 305.793 360.221 305.907 359.472 306.444C353.514 310.802 349.447 316.272 347.716 322.256C347.548 322.835 347.018 323.232 346.417 323.232H339.155C337.766 323.232 336.638 324.36 336.638 325.745V331.877C336.638 333.264 337.766 334.392 339.155 334.392H346.417C347.018 334.392 347.548 334.789 347.716 335.368C350.237 344.084 357.766 351.679 368.373 356.2C368.87 356.413 369.193 356.903 369.193 357.445V366.234C369.193 368.303 370.879 369.987 372.95 369.987H373.938C376.012 369.987 377.696 368.303 377.696 366.234V360.827C377.696 360.422 377.874 360.042 378.186 359.783C378.497 359.527 378.903 359.424 379.302 359.499C386.418 360.85 394.096 360.85 401.212 359.499C401.296 359.482 401.38 359.476 401.464 359.476ZM407.561 372.693H406.573C403.01 372.693 400.112 369.794 400.112 366.234V362.436C393.667 363.477 386.844 363.477 380.4 362.436V366.234C380.4 369.794 377.504 372.693 373.938 372.693H372.95C369.387 372.693 366.489 369.794 366.489 366.234V358.327C355.949 353.615 348.351 345.951 345.418 337.095H339.155C336.276 337.095 333.934 334.755 333.934 331.877V325.745C333.934 322.869 336.276 320.529 339.155 320.529H345.418C347.41 314.502 351.542 309.017 357.437 304.586C357.504 303.607 357.588 300.381 357.42 289.798C357.398 288.342 358.212 287.066 359.543 286.471C360.873 285.873 362.368 286.118 363.442 287.105L373.798 296.649C379.052 295.16 384.583 294.403 390.255 294.403C415.722 294.403 436.441 309.839 436.441 328.812C436.441 340.89 427.876 352.133 414.023 358.327V366.234C414.023 369.794 411.127 372.693 407.561 372.693Z" fill="#143258"/>
<path fill-rule="evenodd" clip-rule="evenodd" d="M411.67 308.393C411.491 308.393 411.308 308.356 411.131 308.279C404.433 305.364 396.751 303.824 388.918 303.824C388.171 303.824 387.563 303.22 387.563 302.474C387.563 301.725 388.171 301.121 388.918 301.121C397.119 301.121 405.174 302.74 412.212 305.801C412.897 306.098 413.209 306.898 412.912 307.58C412.69 308.088 412.193 308.393 411.67 308.393Z" fill="#143258"/>
<path fill-rule="evenodd" clip-rule="evenodd" d="M373.204 318.77C369.285 318.77 366.097 315.584 366.097 311.669C366.097 310.923 366.702 310.316 367.449 310.316C368.196 310.316 368.803 310.923 368.803 311.669C368.803 314.093 370.778 316.068 373.204 316.068C375.633 316.068 377.607 314.093 377.607 311.669C377.607 310.923 378.214 310.316 378.962 310.316C379.706 310.316 380.314 310.923 380.314 311.669C380.314 315.584 377.125 318.77 373.204 318.77Z" fill="#143258"/>
<path fill-rule="evenodd" clip-rule="evenodd" d="M440.843 335.179C436.922 335.179 433.736 331.996 433.736 328.079C433.736 327.332 434.341 326.726 435.086 326.726C435.835 326.726 436.44 327.332 436.44 328.079C436.44 330.505 438.415 332.475 440.843 332.475C443.27 332.475 445.246 330.505 445.246 328.079C445.246 327.332 445.854 326.726 446.599 326.726C447.346 326.726 447.953 327.332 447.953 328.079C447.953 331.996 444.764 335.179 440.843 335.179Z" fill="#143258"/>
<path fill-rule="evenodd" clip-rule="evenodd" d="M411.215 352.935C410.427 352.935 409.678 352.474 409.349 351.704C408.909 350.674 409.387 349.483 410.419 349.042C420.562 344.716 426.862 336.779 426.862 328.326C426.862 327.21 427.769 326.304 428.892 326.304C430.01 326.304 430.921 327.21 430.921 328.326C430.921 338.431 423.675 347.796 412.012 352.771C411.752 352.881 411.482 352.935 411.215 352.935Z" fill="#F4F5F5"/>
<path fill-rule="evenodd" clip-rule="evenodd" d="M351.101 331.707H342.084C340.964 331.707 340.053 330.801 340.053 329.681C340.053 328.562 340.964 327.652 342.084 327.652H351.101C352.223 327.652 353.129 328.562 353.129 329.681C353.129 330.801 352.223 331.707 351.101 331.707Z" fill="#F4F5F5"/>
<path fill-rule="evenodd" clip-rule="evenodd" d="M405.396 265.194C405.049 265.194 404.702 265.063 404.44 264.796L397.974 258.337C397.446 257.812 397.446 256.956 397.974 256.426C398.501 255.9 399.358 255.9 399.886 256.426L405.396 261.929L410.905 256.426C411.433 255.9 412.29 255.9 412.817 256.426C413.345 256.956 413.345 257.812 412.817 258.337L406.352 264.796C406.089 265.063 405.742 265.194 405.396 265.194Z" fill="#FEFEFE"/>
<path fill-rule="evenodd" clip-rule="evenodd" d="M405.396 265.194C404.648 265.194 404.043 264.589 404.043 263.843V227.473C404.043 226.724 404.648 226.12 405.396 226.12C406.143 226.12 406.748 226.724 406.748 227.473V263.843C406.748 264.589 406.143 265.194 405.396 265.194Z" fill="#FEFEFE"/>
<path fill-rule="evenodd" clip-rule="evenodd" d="M417.37 285.691C417.37 293.712 410.863 300.21 402.839 300.21C394.81 300.21 388.305 293.712 388.305 285.691C388.305 277.672 394.81 271.172 402.839 271.172C410.863 271.172 417.37 277.672 417.37 285.691Z" fill="#F9C148"/>
<path fill-rule="evenodd" clip-rule="evenodd" d="M402.838 272.525C395.569 272.525 389.654 278.429 389.654 285.69C389.654 292.952 395.569 298.856 402.838 298.856C410.105 298.856 416.017 292.952 416.017 285.69C416.017 278.429 410.105 272.525 402.838 272.525ZM402.838 301.562C394.077 301.562 386.952 294.44 386.952 285.69C386.952 276.94 394.077 269.821 402.838 269.821C411.597 269.821 418.721 276.94 418.721 285.69C418.721 294.44 411.597 301.562 402.838 301.562Z" fill="#143258"/>
<path fill-rule="evenodd" clip-rule="evenodd" d="M402.838 274.772C396.811 274.772 391.906 279.67 391.906 285.69C391.906 291.711 396.811 296.608 402.838 296.608C408.862 296.608 413.767 291.711 413.767 285.69C413.767 279.67 408.862 274.772 402.838 274.772ZM402.838 297.284C396.436 297.284 391.232 292.083 391.232 285.69C391.232 279.298 396.436 274.097 402.838 274.097C409.235 274.097 414.441 279.298 414.441 285.69C414.441 292.083 409.235 297.284 402.838 297.284Z" fill="#F1D395"/>
<path fill-rule="evenodd" clip-rule="evenodd" d="M404.554 288.102C404.554 287.861 404.492 287.661 404.365 287.502C404.24 287.341 404.012 287.192 403.678 287.054V289.167C404.262 288.982 404.554 288.627 404.554 288.102ZM401.859 281.856C401.366 282.028 401.12 282.344 401.12 282.798C401.12 283.258 401.366 283.604 401.859 283.845V281.856ZM401.859 292.75V291.498C400.814 291.337 399.828 290.948 398.902 290.341C398.295 289.943 398.198 289.089 398.661 288.528C399.066 288.035 399.794 287.913 400.317 288.283C400.868 288.672 401.381 288.934 401.859 289.078V286.523C400.655 286.213 399.774 285.8 399.215 285.28C398.651 284.757 398.371 284.011 398.371 283.032C398.371 282.051 398.691 281.245 399.333 280.612C399.975 279.978 400.817 279.597 401.859 279.47V278.631H403.678V279.505C404.408 279.61 405.138 279.836 405.861 280.195C406.542 280.531 406.783 281.38 406.352 282.002C406.001 282.503 405.327 282.679 404.791 282.389C404.404 282.178 404.033 282.023 403.678 281.924V284.396C404.914 284.716 405.827 285.144 406.419 285.682C407.007 286.22 407.302 286.981 407.302 287.964C407.302 288.947 406.974 289.76 406.313 290.399C405.657 291.042 404.778 291.423 403.678 291.552V292.75H401.859Z" fill="#F0AC1E"/>
<path fill-rule="evenodd" clip-rule="evenodd" d="M321.059 371.337H318.273C309.827 371.337 302.982 364.5 302.982 356.061C302.982 347.628 309.827 340.788 318.273 340.788H321.059C329.506 340.788 336.353 347.628 336.353 356.061C336.353 364.5 329.506 371.337 321.059 371.337Z" fill="#71C3CA"/>
<path fill-rule="evenodd" clip-rule="evenodd" d="M313.633 342.138C308.506 342.138 304.333 346.304 304.333 351.428V360.696C304.333 365.82 308.506 369.986 313.633 369.986H325.701C330.827 369.986 334.998 365.82 334.998 360.696V351.428C334.998 346.304 330.827 342.138 325.701 342.138H313.633ZM325.701 372.692H313.633C307.014 372.692 301.627 367.308 301.627 360.696V351.428C301.627 344.816 307.014 339.434 313.633 339.434H325.701C332.32 339.434 337.704 344.816 337.704 351.428V360.696C337.704 367.308 332.32 372.692 325.701 372.692Z" fill="#143258"/>
<path fill-rule="evenodd" clip-rule="evenodd" d="M330.625 340.787H326.022V332.612C326.022 329.048 323.12 326.146 319.55 326.146C315.982 326.146 313.077 329.048 313.077 332.612V340.787H308.474V332.612C308.474 326.512 313.443 321.552 319.55 321.552C325.656 321.552 330.625 326.512 330.625 332.612V340.787Z" fill="#71C3CA"/>
<path fill-rule="evenodd" clip-rule="evenodd" d="M327.375 339.435H329.27V332.612C329.27 327.258 324.91 322.9 319.549 322.9C314.188 322.9 309.828 327.258 309.828 332.612V339.435H311.722V332.612C311.722 328.303 315.234 324.795 319.549 324.795C323.864 324.795 327.375 328.303 327.375 332.612V339.435ZM330.624 342.138H326.023C325.276 342.138 324.669 341.534 324.669 340.788V332.612C324.669 329.794 322.374 327.497 319.549 327.497C316.726 327.497 314.429 329.794 314.429 332.612V340.788C314.429 341.534 313.826 342.138 313.077 342.138H308.473C307.726 342.138 307.121 341.534 307.121 340.788V332.612C307.121 325.765 312.695 320.199 319.549 320.199C326.402 320.199 331.979 325.765 331.979 332.612V340.788C331.979 341.534 331.372 342.138 330.624 342.138Z" fill="#143258"/>
<path fill-rule="evenodd" clip-rule="evenodd" d="M323.893 352.542C323.893 350.212 322 348.32 319.666 348.32C317.332 348.32 315.438 350.212 315.438 352.542C315.438 353.822 316.008 354.966 316.906 355.74L316.34 363.804H322.993L322.426 355.74C323.322 354.966 323.893 353.822 323.893 352.542Z" fill="#F9C148"/>
<path fill-rule="evenodd" clip-rule="evenodd" d="M317.791 362.452H321.544L321.077 355.836C321.049 355.412 321.221 354.995 321.544 354.716C322.177 354.169 322.539 353.378 322.539 352.543C322.539 350.962 321.249 349.674 319.666 349.674C318.082 349.674 316.792 350.962 316.792 352.543C316.792 353.378 317.156 354.169 317.789 354.716C318.112 354.995 318.284 355.412 318.254 355.836L317.791 362.452ZM322.993 365.156H316.34C315.963 365.156 315.603 365.003 315.349 364.728C315.093 364.455 314.962 364.085 314.99 363.709L315.513 356.264C314.598 355.247 314.085 353.926 314.085 352.543C314.085 349.472 316.587 346.97 319.666 346.97C322.743 346.97 325.245 349.472 325.245 352.543C325.245 353.926 324.733 355.247 323.82 356.264L324.343 363.709C324.369 364.085 324.237 364.455 323.981 364.728C323.727 365.003 323.368 365.156 322.993 365.156Z" fill="#143258"/>
<path fill-rule="evenodd" clip-rule="evenodd" d="M326.734 367.706C325.614 367.706 324.703 366.796 324.703 365.677C324.703 364.559 325.614 363.651 326.734 363.651C328.282 363.651 329.541 362.391 329.541 360.846V354.331C329.541 353.213 330.45 352.305 331.569 352.305C332.691 352.305 333.6 353.213 333.6 354.331V360.846C333.6 364.626 330.519 367.706 326.734 367.706Z" fill="#F4F5F5"/>
<path fill-rule="evenodd" clip-rule="evenodd" d="M416.815 165.313C413.176 161.68 407.275 161.68 403.638 165.313C399.999 168.946 399.999 174.842 403.638 178.477C407.275 182.114 413.176 182.114 416.815 178.477C420.454 174.842 420.454 168.946 416.815 165.313ZM426.784 155.352C427.934 156.501 427.934 158.361 426.784 159.512L424.558 161.736C423.653 162.639 423.462 164.007 424.028 165.152C424.31 165.726 424.553 166.318 424.76 166.913C425.176 168.122 426.274 168.955 427.553 168.955H430.7C432.326 168.955 433.644 170.273 433.644 171.897C433.644 173.519 432.326 174.837 430.7 174.837H427.553C426.274 174.837 425.176 175.668 424.76 176.877C424.553 177.474 424.31 178.066 424.028 178.638C423.462 179.785 423.653 181.148 424.558 182.054L426.784 184.278C427.934 185.429 427.934 187.289 426.784 188.436C425.636 189.584 423.772 189.584 422.624 188.436L420.396 186.209C419.491 185.31 418.122 185.121 416.979 185.682C416.402 185.964 415.812 186.209 415.211 186.416C414.003 186.831 413.17 187.928 413.17 189.204V192.348C413.17 193.972 411.85 195.289 410.227 195.289C408.601 195.289 407.283 193.972 407.283 192.348V189.204C407.283 187.928 406.45 186.831 405.24 186.416C404.641 186.209 404.051 185.964 403.477 185.682C402.329 185.121 400.962 185.31 400.06 186.209L397.831 188.436C396.681 189.584 394.817 189.584 393.667 188.436C392.517 187.289 392.517 185.429 393.667 184.278L395.895 182.054C396.798 181.148 396.989 179.785 396.427 178.638C396.143 178.066 395.898 177.474 395.691 176.877C395.277 175.668 394.177 174.837 392.9 174.837H389.753C388.125 174.837 386.807 173.519 386.807 171.897C386.807 170.273 388.125 168.955 389.753 168.955H392.9C394.177 168.955 395.277 168.122 395.691 166.913C395.898 166.318 396.143 165.726 396.427 165.152C396.989 164.007 396.798 162.639 395.895 161.736L393.667 159.512C392.517 158.361 392.517 156.501 393.667 155.352C394.817 154.206 396.681 154.206 397.831 155.352L400.06 157.58C400.962 158.479 402.329 158.671 403.477 158.107C404.051 157.828 404.643 157.583 405.242 157.376C406.45 156.961 407.283 155.862 407.283 154.588V151.442C407.283 149.815 408.601 148.503 410.227 148.503C411.85 148.503 413.17 149.815 413.168 151.442V154.588C413.168 155.862 414.003 156.961 415.211 157.376C415.812 157.583 416.402 157.828 416.979 158.107C418.122 158.671 419.491 158.479 420.396 157.58L422.624 155.352C423.772 154.206 425.636 154.206 426.784 155.352Z" fill="#F9C148"/>
<path fill-rule="evenodd" clip-rule="evenodd" d="M410.226 163.943C408.187 163.943 406.146 164.716 404.594 166.269C403.089 167.77 402.26 169.77 402.26 171.896C402.26 174.021 403.089 176.019 404.594 177.52C407.701 180.624 412.752 180.624 415.859 177.52C417.362 176.019 418.191 174.021 418.191 171.896C418.191 169.77 417.362 167.77 415.859 166.269C414.307 164.716 412.265 163.943 410.226 163.943ZM410.226 182.549C407.492 182.549 404.762 181.51 402.682 179.43C400.664 177.419 399.556 174.743 399.556 171.896C399.556 169.048 400.664 166.372 402.682 164.356C406.84 160.203 413.611 160.201 417.771 164.356C419.788 166.372 420.897 169.048 420.897 171.896C420.897 174.743 419.788 177.419 417.771 179.43C415.691 181.51 412.959 182.549 410.226 182.549ZM402.124 184.016C402.785 184.016 403.448 184.16 404.073 184.468C404.592 184.724 405.134 184.95 405.681 185.135C407.449 185.743 408.637 187.38 408.637 189.204V192.349C408.637 193.224 409.348 193.938 410.226 193.938C411.103 193.938 411.815 193.224 411.815 192.349V189.204C411.815 187.38 413.004 185.745 414.772 185.135C415.319 184.95 415.861 184.724 416.38 184.468C418.057 183.646 420.055 183.962 421.352 185.255L423.58 187.481C424.2 188.101 425.208 188.101 425.828 187.481C426.129 187.182 426.293 186.782 426.293 186.361C426.293 185.935 426.129 185.535 425.828 185.234L423.597 183.007C422.303 181.717 421.989 179.721 422.811 178.043C423.07 177.52 423.294 176.98 423.481 176.438C424.09 174.668 425.724 173.485 427.552 173.485H430.7C431.579 173.485 432.291 172.771 432.291 171.896C432.291 171.02 431.579 170.306 430.7 170.306H427.552C425.724 170.306 424.09 169.119 423.481 167.355C423.294 166.809 423.068 166.267 422.811 165.746C421.989 164.073 422.303 162.076 423.597 160.784L425.828 158.553C426.448 157.936 426.448 156.927 425.828 156.308C425.208 155.688 424.2 155.688 423.58 156.308L421.352 158.534C420.055 159.829 418.059 160.145 416.38 159.323C415.859 159.063 415.319 158.839 414.772 158.654C413.004 158.048 411.815 156.411 411.815 154.587V151.442C411.815 150.562 411.103 149.851 410.226 149.851C409.348 149.851 408.637 150.562 408.637 151.442V154.587C408.637 156.411 407.449 158.048 405.681 158.654C405.134 158.841 404.592 159.065 404.071 159.323C402.393 160.145 400.397 159.829 399.101 158.534L396.873 156.308C396.253 155.688 395.245 155.688 394.623 156.308C394.003 156.927 394.003 157.936 394.623 158.553L396.853 160.784C398.147 162.076 398.466 164.073 397.641 165.746C397.385 166.267 397.159 166.806 396.972 167.355C396.365 169.119 394.728 170.306 392.9 170.306H389.752C388.874 170.306 388.159 171.02 388.159 171.896C388.159 172.771 388.874 173.485 389.752 173.485H392.9C394.726 173.485 396.365 174.668 396.972 176.438C397.159 176.983 397.385 177.52 397.639 178.043C398.466 179.721 398.147 181.717 396.853 183.007L394.623 185.234C394.324 185.535 394.158 185.935 394.158 186.361C394.158 186.782 394.324 187.182 394.623 187.481C394.924 187.782 395.325 187.946 395.749 187.946C396.173 187.946 396.574 187.782 396.873 187.481L399.101 185.255C399.915 184.44 401.009 184.016 402.124 184.016ZM410.226 196.64C407.856 196.64 405.931 194.717 405.931 192.349V189.204C405.931 188.524 405.487 187.927 404.801 187.692C404.146 187.468 403.5 187.199 402.88 186.894C402.241 186.58 401.491 186.69 401.015 187.167L398.787 189.393C397.973 190.204 396.894 190.65 395.749 190.65C394.601 190.65 393.523 190.204 392.711 189.393C391.899 188.583 391.451 187.505 391.451 186.361C391.451 185.212 391.899 184.134 392.711 183.323L394.939 181.099C395.415 180.62 395.525 179.871 395.211 179.235C394.907 178.613 394.638 177.968 394.414 177.316C394.177 176.63 393.583 176.187 392.9 176.187H389.752C387.384 176.187 385.457 174.262 385.457 171.896C385.457 169.527 387.384 167.602 389.752 167.602H392.9C393.583 167.602 394.177 167.161 394.414 166.477C394.638 165.823 394.907 165.176 395.211 164.554C395.525 163.918 395.415 163.171 394.939 162.694L392.711 160.465C391.036 158.792 391.036 156.071 392.711 154.398C394.386 152.722 397.112 152.722 398.787 154.398L401.015 156.626C401.491 157.099 402.243 157.209 402.88 156.895C403.5 156.592 404.146 156.323 404.801 156.097C405.487 155.862 405.931 155.269 405.931 154.587V151.442C405.931 149.074 407.856 147.149 410.226 147.149C412.595 147.149 414.522 149.074 414.522 151.442V154.587C414.522 155.269 414.965 155.862 415.65 156.097C416.302 156.321 416.948 156.592 417.573 156.895C418.214 157.209 418.959 157.097 419.437 156.626L421.668 154.398C423.341 152.722 426.067 152.722 427.742 154.398C429.417 156.071 429.417 158.792 427.742 160.465L425.513 162.694C425.035 163.171 424.928 163.918 425.24 164.554C425.548 165.176 425.815 165.823 426.041 166.477C426.276 167.161 426.87 167.602 427.552 167.602H430.7C433.071 167.602 434.996 169.527 434.996 171.896C434.996 174.262 433.071 176.187 430.7 176.187H427.552C426.87 176.187 426.276 176.63 426.041 177.316C425.815 177.965 425.548 178.611 425.242 179.235C424.928 179.871 425.035 180.62 425.513 181.099L427.742 183.323C428.554 184.134 428.999 185.212 428.999 186.361C428.999 187.505 428.554 188.58 427.742 189.393C426.067 191.065 423.341 191.065 421.668 189.393L419.437 187.167C418.959 186.69 418.214 186.58 417.573 186.894C416.953 187.199 416.305 187.468 415.65 187.692C414.965 187.927 414.522 188.524 414.522 189.204V192.349C414.522 194.717 412.595 196.64 410.226 196.64Z" fill="#143258"/>
<path fill-rule="evenodd" clip-rule="evenodd" d="M381.426 194.74C377.867 193.069 373.621 194.596 371.948 198.153C370.273 201.711 371.803 205.951 375.365 207.622C378.926 209.295 383.17 207.766 384.843 204.208C386.518 200.653 384.987 196.411 381.426 194.74ZM386.014 184.992C387.138 185.519 387.622 186.859 387.093 187.982L386.068 190.16C385.652 191.042 385.87 192.077 386.572 192.755C386.925 193.094 387.254 193.456 387.558 193.832C388.169 194.596 389.177 194.91 390.096 194.579L392.361 193.761C393.53 193.342 394.82 193.946 395.242 195.114V195.116C395.662 196.282 395.057 197.57 393.888 197.992L391.621 198.809C390.703 199.136 390.129 200.023 390.144 200.999C390.152 201.485 390.129 201.969 390.075 202.457C389.965 203.425 390.456 204.363 391.341 204.778L393.522 205.8C394.648 206.329 395.13 207.669 394.603 208.792C394.073 209.917 392.732 210.397 391.608 209.87L389.424 208.844C388.542 208.428 387.508 208.648 386.83 209.349C386.49 209.702 386.13 210.029 385.751 210.336C384.989 210.945 384.675 211.954 385.004 212.87L385.822 215.131C386.242 216.301 385.637 217.589 384.468 218.011C383.299 218.432 382.009 217.826 381.587 216.658L380.771 214.395C380.44 213.477 379.555 212.902 378.577 212.915C378.093 212.924 377.606 212.902 377.119 212.849C376.146 212.739 375.212 213.232 374.796 214.113L373.771 216.294C373.244 217.417 371.902 217.901 370.776 217.37C369.652 216.843 369.17 215.503 369.698 214.38L370.723 212.201C371.138 211.319 370.921 210.287 370.217 209.607C369.866 209.267 369.536 208.908 369.233 208.53C368.621 207.768 367.613 207.454 366.694 207.783L364.429 208.601C363.26 209.022 361.97 208.416 361.55 207.245C361.126 206.077 361.733 204.791 362.902 204.372L365.167 203.557C366.087 203.223 366.662 202.339 366.647 201.363C366.64 200.881 366.662 200.393 366.716 199.904C366.825 198.934 366.334 198.003 365.452 197.586L363.266 196.564C362.142 196.035 361.66 194.695 362.188 193.57C362.719 192.449 364.059 191.965 365.183 192.492L367.366 193.518C368.249 193.933 369.282 193.714 369.96 193.01C370.301 192.66 370.66 192.331 371.039 192.028C371.801 191.417 372.118 190.408 371.784 189.494L370.968 187.229C370.546 186.063 371.155 184.772 372.322 184.351C373.491 183.934 374.781 184.538 375.201 185.704L376.019 187.969C376.351 188.885 377.236 189.459 378.213 189.444C378.695 189.436 379.184 189.461 379.673 189.515C380.644 189.623 381.576 189.132 381.994 188.248L383.019 186.069C383.546 184.947 384.888 184.463 386.014 184.992Z" fill="#71C3CA"/>
<path fill-rule="evenodd" clip-rule="evenodd" d="M378.4 195.409C377.739 195.409 377.078 195.526 376.436 195.756C374.987 196.278 373.826 197.335 373.17 198.726C371.815 201.604 373.06 205.046 375.939 206.399C377.334 207.055 378.901 207.128 380.352 206.605C381.804 206.082 382.964 205.028 383.619 203.635C384.275 202.241 384.346 200.673 383.825 199.223C383.302 197.778 382.247 196.616 380.85 195.962C380.07 195.597 379.237 195.409 378.4 195.409ZM378.389 209.655C377.159 209.655 375.934 209.384 374.789 208.844C370.558 206.859 368.734 201.804 370.724 197.58C371.686 195.532 373.387 193.979 375.521 193.213C377.65 192.445 379.954 192.555 382.002 193.517C384.051 194.476 385.604 196.177 386.37 198.309C387.139 200.438 387.031 202.736 386.067 204.781C385.102 206.833 383.399 208.382 381.27 209.15C380.329 209.485 379.358 209.655 378.389 209.655ZM378.615 211.567C380.154 211.567 381.53 212.514 382.043 213.936L382.859 216.198C383.027 216.667 383.543 216.906 384.008 216.74C384.234 216.659 384.413 216.493 384.517 216.276C384.62 216.059 384.631 215.815 384.549 215.592L383.733 213.327C383.212 211.886 383.683 210.26 384.902 209.281C385.236 209.012 385.556 208.722 385.858 208.41C386.945 207.285 388.61 206.969 390.001 207.623L392.182 208.646C392.629 208.855 393.166 208.664 393.377 208.214C393.588 207.769 393.394 207.235 392.946 207.02L390.763 205.999C389.374 205.345 388.556 203.863 388.73 202.308C388.775 201.882 388.797 201.447 388.79 201.017C388.767 199.455 389.721 198.055 391.163 197.535L393.428 196.719C393.893 196.552 394.137 196.04 393.969 195.573C393.887 195.347 393.723 195.166 393.506 195.065C393.29 194.964 393.045 194.951 392.819 195.033L390.554 195.848C389.111 196.369 387.484 195.898 386.504 194.68C386.235 194.347 385.942 194.024 385.63 193.725C384.506 192.639 384.187 190.974 384.842 189.587L385.869 187.406C386.08 186.958 385.886 186.423 385.438 186.214H385.436C385.221 186.113 384.979 186.1 384.751 186.182C384.525 186.261 384.346 186.427 384.243 186.642L383.218 188.821C382.564 190.211 381.08 191.028 379.523 190.858C379.095 190.809 378.656 190.787 378.232 190.794H378.176C376.634 190.794 375.26 189.847 374.746 188.425L373.93 186.163C373.848 185.939 373.684 185.756 373.467 185.655C373.251 185.554 373.006 185.541 372.782 185.621C372.315 185.788 372.072 186.307 372.242 186.769L373.056 189.034C373.577 190.475 373.107 192.101 371.889 193.082C371.555 193.347 371.234 193.639 370.933 193.951C369.843 195.076 368.179 195.392 366.788 194.741L364.607 193.715C364.157 193.506 363.625 193.697 363.412 194.145C363.201 194.592 363.395 195.128 363.842 195.338L366.026 196.362C367.414 197.016 368.235 198.5 368.06 200.053C368.015 200.479 367.994 200.914 368 201.346C368.024 202.905 367.07 204.308 365.627 204.826L363.36 205.641C362.895 205.809 362.652 206.323 362.822 206.79C362.901 207.016 363.067 207.194 363.283 207.296C363.5 207.397 363.743 207.407 363.969 207.328L366.237 206.513C367.677 205.992 369.305 206.463 370.284 207.681C370.554 208.012 370.846 208.337 371.159 208.636C372.283 209.722 372.601 211.387 371.947 212.774L370.922 214.953C370.711 215.402 370.907 215.938 371.352 216.147C371.798 216.357 372.336 216.164 372.545 215.719L373.572 213.54C374.225 212.15 375.71 211.331 377.267 211.503C377.693 211.55 378.128 211.576 378.557 211.567H378.615ZM383.707 219.494C382.232 219.494 380.843 218.579 380.316 217.117L379.5 214.852C379.366 214.49 379.002 214.252 378.598 214.269C378.055 214.275 377.506 214.25 376.968 214.189C376.554 214.144 376.184 214.34 376.02 214.688L374.995 216.867C374.586 217.738 373.861 218.399 372.956 218.724C372.05 219.048 371.073 219.003 370.201 218.592C369.331 218.184 368.67 217.461 368.347 216.555C368.017 215.652 368.065 214.675 368.474 213.806L369.499 211.625C369.662 211.277 369.576 210.866 369.277 210.58C368.885 210.199 368.515 209.795 368.177 209.373C367.916 209.051 367.516 208.924 367.152 209.057L364.889 209.87C363.016 210.543 360.949 209.571 360.275 207.706C359.95 206.801 359.995 205.824 360.404 204.953C360.813 204.084 361.539 203.426 362.443 203.099L364.71 202.284C365.07 202.153 365.3 201.8 365.294 201.383C365.287 200.841 365.313 200.292 365.373 199.754C365.418 199.344 365.223 198.971 364.874 198.808L362.693 197.784C361.823 197.375 361.162 196.651 360.837 195.747C360.509 194.844 360.555 193.865 360.964 192.996C361.808 191.2 363.961 190.426 365.759 191.269L367.94 192.295C368.286 192.456 368.7 192.37 368.986 192.071C369.365 191.682 369.772 191.312 370.192 190.972C370.517 190.712 370.642 190.312 370.513 189.95L369.695 187.688C369.023 185.821 369.994 183.753 371.863 183.08C372.769 182.753 373.747 182.798 374.619 183.209C375.489 183.62 376.15 184.341 376.475 185.244L377.291 187.507C377.422 187.87 377.758 188.118 378.191 188.094C378.731 188.085 379.28 188.109 379.821 188.169C380.238 188.217 380.604 188.021 380.77 187.673L381.795 185.496C382.204 184.625 382.93 183.964 383.832 183.637C384.738 183.313 385.716 183.358 386.588 183.769C388.386 184.612 389.161 186.761 388.317 188.554L387.292 190.735C387.126 191.082 387.212 191.495 387.512 191.781C387.903 192.159 388.272 192.566 388.612 192.985C388.874 193.31 389.277 193.437 389.637 193.304L391.902 192.493C392.806 192.164 393.786 192.209 394.656 192.618C395.528 193.028 396.186 193.751 396.514 194.654C396.839 195.56 396.794 196.539 396.387 197.408C395.975 198.279 395.25 198.937 394.345 199.262L392.08 200.077C391.719 200.21 391.49 200.561 391.495 200.978C391.503 201.52 391.478 202.069 391.415 202.607C391.37 203.017 391.566 203.389 391.917 203.553L394.098 204.577C395.896 205.42 396.669 207.571 395.827 209.365C395.416 210.236 394.69 210.894 393.786 211.221C392.881 211.548 391.902 211.499 391.032 211.092L388.851 210.066C388.5 209.903 388.091 209.991 387.802 210.288C387.423 210.681 387.016 211.049 386.599 211.389C386.273 211.649 386.149 212.049 386.278 212.411L387.094 214.675C387.421 215.579 387.374 216.555 386.965 217.427C386.556 218.298 385.832 218.956 384.926 219.283C384.523 219.427 384.112 219.494 383.707 219.494Z" fill="#143258"/>
<path fill-rule="evenodd" clip-rule="evenodd" d="M230.873 199.443C230.873 199.096 231.006 198.75 231.269 198.488C231.796 197.959 232.655 197.959 233.183 198.488L239.649 204.945C239.903 205.199 240.045 205.545 240.045 205.902C240.045 206.259 239.903 206.603 239.649 206.855L233.183 213.316C232.655 213.843 231.796 213.843 231.269 213.316C230.741 212.791 230.741 211.933 231.269 211.404L236.779 205.902L231.269 200.398C231.006 200.131 230.873 199.789 230.873 199.443Z" fill="#FEFEFE"/>
<path fill-rule="evenodd" clip-rule="evenodd" d="M200.931 205.902C200.931 205.155 201.536 204.551 202.281 204.551H238.692C239.44 204.551 240.045 205.155 240.045 205.902C240.045 206.648 239.44 207.252 238.692 207.252H202.281C201.536 207.252 200.931 206.648 200.931 205.902Z" fill="#FEFEFE"/>
<path fill-rule="evenodd" clip-rule="evenodd" d="M202.875 220.477C202.875 220.12 203.017 219.778 203.271 219.524L209.739 213.065C210.267 212.538 211.121 212.538 211.651 213.065C212.179 213.592 212.179 214.448 211.651 214.977L206.143 220.477L211.651 225.984C212.179 226.511 212.179 227.365 211.651 227.894C211.121 228.421 210.267 228.421 209.739 227.894L203.271 221.434C203.017 221.181 202.875 220.839 202.875 220.477Z" fill="#FEFEFE"/>
<path fill-rule="evenodd" clip-rule="evenodd" d="M202.875 220.477C202.875 219.733 203.482 219.126 204.227 219.126H240.636C241.386 219.126 241.991 219.733 241.991 220.477C241.991 221.226 241.386 221.832 240.636 221.832H204.227C203.482 221.832 202.875 221.226 202.875 220.477Z" fill="#FEFEFE"/>
<path fill-rule="evenodd" clip-rule="evenodd" d="M100.801 366.254H11.4747C10.5703 366.254 9.83398 365.523 9.83398 364.615V281.397C9.83398 280.492 10.5703 279.758 11.4747 279.758C12.3811 279.758 13.1153 280.492 13.1153 281.397V362.978H100.801C101.707 362.978 102.439 363.712 102.439 364.615C102.439 365.523 101.707 366.254 100.801 366.254Z" fill="#143258"/>
<path fill-rule="evenodd" clip-rule="evenodd" d="M21.9292 364.616H38.4005V319.05H21.9292V364.616Z" fill="#EB6C62"/>
<path fill-rule="evenodd" clip-rule="evenodd" d="M23.568 362.976H36.7601V320.687H23.568V362.976ZM38.4007 366.255H21.9294C21.023 366.255 20.2866 365.523 20.2866 364.615V319.05C20.2866 318.144 21.023 317.411 21.9294 317.411H38.4007C39.305 317.411 40.0414 318.144 40.0414 319.05V364.615C40.0414 365.523 39.305 366.255 38.4007 366.255Z" fill="#143258"/>
<path fill-rule="evenodd" clip-rule="evenodd" d="M47.9023 364.616H64.3736V331.708H47.9023V364.616Z" fill="#F9C148"/>
<path fill-rule="evenodd" clip-rule="evenodd" d="M49.5431 362.977H62.733V333.343H49.5431V362.977ZM64.3737 366.255H47.9024C46.9959 366.255 46.2617 365.523 46.2617 364.616V331.708C46.2617 330.801 46.9959 330.069 47.9024 330.069H64.3737C65.2801 330.069 66.0144 330.801 66.0144 331.708V364.616C66.0144 365.523 65.2801 366.255 64.3737 366.255Z" fill="#143258"/>
<path fill-rule="evenodd" clip-rule="evenodd" d="M73.8755 364.616H90.3468V303.353H73.8755V364.616Z" fill="#71C3CA"/>
<path fill-rule="evenodd" clip-rule="evenodd" d="M75.516 362.977H88.7081V304.989H75.516V362.977ZM90.3488 366.255H73.8775C72.971 366.255 72.2368 365.523 72.2368 364.616V303.352C72.2368 302.447 72.971 301.713 73.8775 301.713H90.3488C91.2531 301.713 91.9894 302.447 91.9894 303.352V364.616C91.9894 365.523 91.2531 366.255 90.3488 366.255Z" fill="#143258"/>
<path fill-rule="evenodd" clip-rule="evenodd" d="M19.9464 315.816C19.3758 315.816 18.8246 315.517 18.5189 314.988C18.0732 314.203 18.3466 313.203 19.1347 312.753L41.3052 300.129C42.0287 299.716 42.9459 299.91 43.4368 300.579L51.5734 311.613L80.6985 280.28C81.3165 279.618 82.3543 279.579 83.0174 280.192C83.6806 280.814 83.7194 281.848 83.1036 282.513L52.6306 315.291C52.299 315.648 51.8253 315.842 51.3366 315.814C50.85 315.784 50.4 315.541 50.1093 315.149L41.6627 303.696L20.7581 315.599C20.5019 315.745 20.222 315.816 19.9464 315.816Z" fill="#FEFEFE"/>
<path fill-rule="evenodd" clip-rule="evenodd" d="M81.9011 294.109C80.9947 294.109 80.2605 293.374 80.2605 292.468V283.036H70.8169C69.9105 283.036 69.1763 282.301 69.1763 281.397C69.1763 280.492 69.9105 279.758 70.8169 279.758H81.9011C82.8055 279.758 83.5418 280.492 83.5418 281.397V292.468C83.5418 293.374 82.8055 294.109 81.9011 294.109Z" fill="#FEFEFE"/>
<path fill-rule="evenodd" clip-rule="evenodd" d="M11.4751 354.575H1.63969C0.733234 354.575 -0.000976562 353.84 -0.000976562 352.936C-0.000976562 352.029 0.733234 351.297 1.63969 351.297H11.4751C12.3816 351.297 13.1158 352.029 13.1158 352.936C13.1158 353.84 12.3816 354.575 11.4751 354.575Z" fill="#143258"/>
<path fill-rule="evenodd" clip-rule="evenodd" d="M11.4751 338.67H1.63969C0.733234 338.67 -0.000976562 337.935 -0.000976562 337.029C-0.000976562 336.126 0.733234 335.392 1.63969 335.392H11.4751C12.3816 335.392 13.1158 336.126 13.1158 337.029C13.1158 337.935 12.3816 338.67 11.4751 338.67Z" fill="#143258"/>
<path fill-rule="evenodd" clip-rule="evenodd" d="M11.4751 322.763H1.63969C0.733234 322.763 -0.000976562 322.029 -0.000976562 321.122C-0.000976562 320.218 0.733234 319.489 1.63969 319.489H11.4751C12.3816 319.489 13.1158 320.218 13.1158 321.122C13.1158 322.029 12.3816 322.763 11.4751 322.763Z" fill="#143258"/>
<path fill-rule="evenodd" clip-rule="evenodd" d="M11.4751 306.86H1.63969C0.733234 306.86 -0.000976562 306.124 -0.000976562 305.219C-0.000976562 304.313 0.733234 303.584 1.63969 303.584H11.4751C12.3816 303.584 13.1158 304.313 13.1158 305.219C13.1158 306.124 12.3816 306.86 11.4751 306.86Z" fill="#143258"/>
<path fill-rule="evenodd" clip-rule="evenodd" d="M11.4751 290.953H1.63969C0.733234 290.953 -0.000976562 290.219 -0.000976562 289.316C-0.000976562 288.41 0.733234 287.677 1.63969 287.677H11.4751C12.3816 287.677 13.1158 288.41 13.1158 289.316C13.1158 290.219 12.3816 290.953 11.4751 290.953Z" fill="#143258"/>
</g>
</svg>
