<svg width="182" height="56" viewBox="0 0 182 56" fill="none" xmlns="http://www.w3.org/2000/svg">
<path fill-rule="evenodd" clip-rule="evenodd" d="M169.353 23.1641H172.724V24.5409C173.484 23.9003 174.185 23.4618 174.804 23.2113C175.421 22.9627 176.055 22.8383 176.709 22.8383C178.047 22.8383 179.181 23.2994 180.104 24.2245C180.889 25.0082 181.288 26.1803 181.288 27.7132V36.5445H177.934V30.6966C177.934 29.0975 177.87 28.041 177.722 27.5184C177.581 26.9973 177.33 26.5945 176.972 26.3191C176.612 26.0489 176.168 25.9084 175.644 25.9084C174.964 25.9084 174.372 26.138 173.89 26.5903C173.399 27.0435 173.059 27.6739 172.865 28.4697C172.773 28.8909 172.724 29.7895 172.724 31.1823V36.5445H169.353V23.1641ZM159.034 25.9084C157.985 25.9084 157.115 26.2742 156.431 27.0147C155.727 27.7394 155.387 28.6822 155.387 29.8242C155.387 30.9828 155.735 31.9345 156.447 32.6789C157.144 33.4236 158.013 33.7963 159.049 33.7963C160.102 33.7963 160.991 33.4318 161.68 32.6956C162.38 31.9669 162.738 31.0035 162.738 29.8157C162.738 28.6508 162.38 27.7132 161.68 26.9875C160.991 26.272 160.099 25.9084 159.034 25.9084ZM162.584 23.1641H165.946V36.5445H162.584V35.1177C161.924 35.7415 161.259 36.184 160.597 36.461C159.936 36.7318 159.212 36.8697 158.44 36.8697C156.697 36.8697 155.193 36.2046 153.924 34.8662C152.655 33.5254 152.018 31.8651 152.018 29.8749C152.018 27.8183 152.634 26.1279 153.86 24.8091C155.095 23.4952 156.583 22.8383 158.335 22.8383C159.15 22.8383 159.907 22.986 160.619 23.2873C161.321 23.5853 161.981 24.0362 162.584 24.6352V23.1641ZM143.734 23.1641H146.649V24.8641C146.961 24.2016 147.377 23.6979 147.888 23.3501C148.411 23.0115 148.977 22.8383 149.592 22.8383C150.025 22.8383 150.479 22.945 150.955 23.1782L149.913 26.0784C149.518 25.8764 149.192 25.7847 148.936 25.7847C148.422 25.7847 147.987 26.0997 147.631 26.7393C147.269 27.3789 147.095 28.6318 147.095 30.4952L147.106 31.1482V36.5445H143.734V23.1641ZM138.411 28.1789C138.188 27.444 137.749 26.8509 137.097 26.3905C136.438 25.9353 135.675 25.7021 134.804 25.7021C133.865 25.7021 133.04 25.9628 132.328 26.4829C131.887 26.8015 131.47 27.3674 131.088 28.1789H138.411ZM141.768 30.7988H130.942C131.094 31.7501 131.51 32.5106 132.191 33.082C132.863 33.642 133.727 33.9214 134.78 33.9214C136.038 33.9214 137.114 33.4802 138.019 32.5983L140.844 33.9318C140.135 34.9284 139.288 35.6639 138.305 36.1522C137.321 36.6284 136.146 36.8697 134.796 36.8697C132.692 36.8697 130.976 36.2098 129.658 34.8868C128.335 33.5687 127.672 31.9168 127.672 29.9283C127.672 27.8953 128.335 26.196 129.658 24.8585C130.976 23.5054 132.628 22.8383 134.635 22.8383C136.744 22.8383 138.469 23.5054 139.793 24.8458C141.115 26.1917 141.775 27.9588 141.775 30.1677L141.768 30.7988ZM121.877 36.5445H125.243V18H121.877V36.5445ZM116.127 28.1789C115.899 27.444 115.463 26.8509 114.807 26.3905C114.149 25.9353 113.382 25.7021 112.518 25.7021C111.577 25.7021 110.749 25.9628 110.038 26.4829C109.6 26.8015 109.181 27.3674 108.796 28.1789H116.127ZM119.474 30.7988H108.646C108.807 31.7501 109.225 32.5106 109.896 33.082C110.574 33.642 111.441 33.9214 112.483 33.9214C113.747 33.9214 114.825 33.4802 115.726 32.5983L118.56 33.9318C117.85 34.9284 117.006 35.6639 116.017 36.1522C115.029 36.6284 113.861 36.8697 112.503 36.8697C110.399 36.8697 108.683 36.2098 107.363 34.8868C106.041 33.5687 105.38 31.9168 105.38 29.9283C105.38 27.8953 106.041 26.196 107.363 24.8585C108.683 23.5054 110.343 22.8383 112.342 22.8383C114.456 22.8383 116.178 23.5054 117.499 24.8458C118.828 26.1917 119.49 27.9588 119.49 30.1677L119.474 30.7988ZM103.101 25.0589L101.014 27.1408C100.168 26.307 99.4046 25.8806 98.7128 25.8806C98.3351 25.8806 98.0417 25.9628 97.8227 26.1252C97.6057 26.2824 97.5013 26.4829 97.5013 26.719C97.5013 26.8942 97.5698 27.0605 97.7064 27.2086C97.8431 27.3667 98.1813 27.5649 98.7157 27.8331L99.943 28.4481C101.244 29.0831 102.141 29.7351 102.633 30.393C103.114 31.0542 103.355 31.8248 103.355 32.7188C103.355 33.903 102.915 34.8901 102.037 35.6832C101.159 36.4744 99.9779 36.8697 98.503 36.8697C96.547 36.8697 94.9733 36.1116 93.8053 34.5875L95.8844 32.3353C96.275 32.7932 96.7535 33.1655 97.2793 33.4452C97.8148 33.7324 98.2899 33.8722 98.7042 33.8722C99.1481 33.8722 99.4991 33.7688 99.7793 33.5526C100.052 33.3394 100.184 33.0974 100.184 32.8171C100.184 32.3039 99.699 31.795 98.7157 31.3106L97.5734 30.7415C95.3954 29.6591 94.3094 28.2935 94.3094 26.6633C94.3094 25.6058 94.7174 24.702 95.5367 23.9599C96.3642 23.2113 97.4094 22.8383 98.6821 22.8383C99.5548 22.8383 100.371 23.0325 101.146 23.4117C101.912 23.7919 102.567 24.3457 103.101 25.0589ZM80.2008 18H83.5705V28.6777L88.5458 23.1641H92.7571L86.9984 29.5498L93.4941 36.5445H89.2907L83.5705 30.3757V36.5445H80.2008V18ZM69.1207 23.2604L66.6622 29.4928H71.5756L69.1207 23.2604ZM67.3784 18.4509H70.8643L77.8661 36.5445H74.2587L72.8427 32.8079H65.3872L63.931 36.5445H60.3315L67.3784 18.4509Z" fill="white"/>
<path fill-rule="evenodd" clip-rule="evenodd" d="M17.433 15.2398C27.3039 32.2549 43.6945 57.3927 48.3086 50.133C56.3516 37.4577 48.3913 -0.0796658 26.1807 8.99987C22.7906 10.3868 19.6066 12.8062 17.433 15.2398L17.2176 15.5194L17.433 15.2398ZM0.46012 52.8967C0.71697 40.4038 6.9222 26.7561 15.8188 16.8212L14.7551 15.0737C3.44649 27.7916 -0.869243 44.4194 0.14268 51.9371L0.46012 52.8967ZM15.8922 13.5008C21.3423 7.48623 28.2394 3.9841 34.6317 4.8015C58.2306 7.81895 58.663 48.1648 49.2504 55.1367C42.3431 60.2002 26.1978 33.7358 16.9868 17.2866C16.9868 17.2866 15.2764 14.2596 13.4775 10.953C11.1928 6.77362 7.9575 -0.102262 8.18076 0.348358C8.65824 1.30396 10.8895 5.73779 13.3988 9.80417C14.8351 12.1313 15.8922 13.5008 15.8922 13.5008Z" fill="white"/>
</svg>
