<svg xmlns="http://www.w3.org/2000/svg" width="485" height="242" viewBox="0 0 485 242">
    <defs>
        <linearGradient id="prefix__a" x1="0%" x2="100%" y1="50%" y2="50%">
            <stop offset="0%" stop-color="#FEC901"/>
            <stop offset="43%" stop-color="#FEC601"/>
            <stop offset="74%" stop-color="#FEBD01"/>
            <stop offset="100%" stop-color="#FFAE02"/>
        </linearGradient>
        <linearGradient id="prefix__b" x1="0%" x2="99.979%" y1="50%" y2="50%">
            <stop offset="0%" stop-color="#FEC901"/>
            <stop offset="43%" stop-color="#FEC601"/>
            <stop offset="74%" stop-color="#FEBD01"/>
            <stop offset="100%" stop-color="#FFAE02"/>
        </linearGradient>
        <linearGradient id="prefix__c" x1="0%" x2="100%" y1="49.845%" y2="49.845%">
            <stop offset="0%" stop-color="#FEC901"/>
            <stop offset="43%" stop-color="#FEC601"/>
            <stop offset="74%" stop-color="#FEBD01"/>
            <stop offset="100%" stop-color="#FFAE02"/>
        </linearGradient>
    </defs>
    <g fill="none">
        <path fill="#103754" d="M52.996 148.325c-.096-1.907-1.703-3.386-3.611-3.323-1.909.063-3.415 1.644-3.385 3.553.03 1.91 1.586 3.443 3.496 3.445.959.001 1.877-.391 2.538-1.086.662-.695 1.01-1.63.962-2.589zM32.868 35.86h-3.576v-3.91h-.171c-.127-.534-.57-.92-1.095-.95-.52.042-.96.423-1.096.95h-.17v3.963H23.2c-.683.081-1.2.687-1.2 1.408 0 .72.517 1.326 1.2 1.407h3.56v3.981c0 .461.234.887.615 1.118.382.23.851.23 1.232 0 .382-.23.617-.657.617-1.118v-4.035H32.8c.683-.08 1.2-.686 1.2-1.407 0-.72-.517-1.327-1.2-1.408h.068zM49.81 86.895h-3.563V82.95h-.17c-.135-.527-.57-.908-1.085-.95-.52.03-.96.416-1.086.95h-.187v3.963h-3.53c-.677.081-1.189.687-1.189 1.408 0 .72.512 1.326 1.19 1.407h3.529v3.981c0 .713.547 1.291 1.222 1.291.674 0 1.221-.578 1.221-1.291V89.728h3.648c.678-.08 1.19-.687 1.19-1.407 0-.721-.512-1.327-1.19-1.408v-.018zM62.996 3.325C62.9 1.418 61.293-.061 59.385.002 57.476.065 55.97 1.646 56 3.555c.03 1.91 1.586 3.443 3.496 3.445.959.001 1.877-.391 2.538-1.086.662-.695 1.01-1.63.962-2.589zM136.66 25.902h-3.766V21.961h-.18c-.1-.556-.589-.961-1.16-.961-.57 0-1.059.405-1.158.961h-.2v3.96h-3.766c-.79 0-1.43.633-1.43 1.415 0 .781.64 1.415 1.43 1.415h3.766v3.96c0 .46.249.886.652 1.116.404.23.9.23 1.304 0 .403-.23.652-.656.652-1.117v-3.977h3.766c.79 0 1.43-.634 1.43-1.415 0-.782-.64-1.416-1.43-1.416h.09zM473.66 157.888h-3.784v-3.939h-.181c-.134-.533-.604-.918-1.159-.949-.55.042-1.014.422-1.159.949h-.18v3.94h-3.767c-.79 0-1.43.633-1.43 1.414 0 .781.64 1.415 1.43 1.415h3.766v3.957c.009.708.571 1.287 1.286 1.325.718-.037 1.286-.614 1.304-1.325v-3.94h3.784c.79 0 1.43-.633 1.43-1.414 0-.781-.64-1.415-1.43-1.415l.09-.018zM463.996 5.325c-.096-1.907-1.703-3.386-3.611-3.323-1.909.063-3.415 1.644-3.385 3.553.03 1.91 1.586 3.443 3.496 3.445.959.001 1.877-.391 2.538-1.086.662-.695 1.01-1.63.962-2.589zM484.996 110.325c-.096-1.907-1.703-3.386-3.611-3.323-1.909.063-3.415 1.644-3.385 3.553.03 1.91 1.586 3.443 3.496 3.445.959.001 1.877-.391 2.538-1.086.662-.695 1.01-1.63.962-2.589zM469.884 64.852h-3.582v-3.928h-.154c-.113-.54-.573-.924-1.105-.924s-.993.385-1.105.924h-.172v3.928h-3.564c-.685.08-1.202.68-1.202 1.395 0 .714.517 1.315 1.202 1.395h3.564v3.928c-.056.49.165.97.567 1.233.402.263.915.263 1.317 0 .402-.264.623-.743.567-1.233v-3.821h3.581c.685-.08 1.202-.68 1.202-1.395s-.517-1.315-1.202-1.395l.086-.107zM267.644 40.803h-3.76V36.922h-.182c-.119-.538-.604-.922-1.166-.922-.561 0-1.047.384-1.166.922h-.18v3.916h-3.762c-.788 0-1.428.627-1.428 1.4 0 .774.64 1.4 1.428 1.4h3.761v3.917c-.06.495.177.98.607 1.246.43.265.978.265 1.408 0 .43-.266.666-.75.607-1.246v-3.952h3.76c.79 0 1.429-.627 1.429-1.4 0-.773-.64-1.4-1.428-1.4h.072z" opacity=".3"/>
        <path fill="#87AB3D" d="M312 234H453V242H312zM312 225H453V233H312z"/>
        <path fill="#87AB3D" d="M312 218H453V226H312zM312 209H453V217H312zM312 201H453V209H312zM312 193H453V201H312z"/>
        <path fill="#13532D" d="M313 200H396V201H313zM371 208H454V209H371zM342 217H425V218H342zM324 225H407V226H324zM371 233H454V234H371z"/>
        <path fill="#ABC937" d="M452.859 136L453 193 312.159 193 312 136z"/>
        <path fill="#87AB3D" d="M449.875 140L316 140 316.125 189 450 188.982z"/>
        <path fill="#ABC937" d="M323 189.253c.007 1.36-.46 2.682-1.324 3.747H312v-8.635c1.225-.89 2.711-1.369 4.238-1.364 3.62-.068 6.628 2.713 6.762 6.252zM443 189.236c.017 1.37.5 2.695 1.373 3.764H454v-8.633c-1.216-.886-2.691-1.365-4.206-1.363-3.63-.117-6.67 2.672-6.794 6.232zM323 139.832c.004-1.394-.48-2.747-1.37-3.832H312v8.631c1.205.903 2.684 1.383 4.2 1.364 3.607.136 6.648-2.619 6.8-6.163zM443 139.747c.003-1.358.47-2.676 1.324-3.747H454v8.634c-1.22.887-2.7 1.366-4.22 1.364-3.627.078-6.646-2.705-6.78-6.25zM399.978 164.868c.356-6.947-3.558-13.411-9.88-16.316-6.323-2.904-13.778-1.663-18.818 3.134-5.04 4.796-6.648 12.18-4.059 18.637 2.59 6.457 8.852 10.686 15.81 10.673 9.123.199 16.695-7.007 16.947-16.128zM346 164.485c-.09-2.54-2.202-4.536-4.742-4.484-2.452.132-4.345 2.206-4.255 4.662.09 2.455 2.13 4.385 4.586 4.336 2.455-.048 4.418-2.057 4.411-4.514zM428.993 164.746c.101-1.84-.93-3.556-2.604-4.33-1.673-.774-3.649-.45-4.986.82-1.338 1.268-1.766 3.224-1.08 4.935.685 1.711 2.344 2.832 4.188 2.827 1.159.033 2.284-.397 3.125-1.195.841-.798 1.33-1.898 1.357-3.057z"/>
        <path fill="#87AB3F" d="M382.552 154.508V152h2.791v2.454c2.718.04 5.144 1.814 6.144 4.493l-4.544 1.444c-.471-1.215-1.645-1.952-2.876-1.805-1.191 0-1.787.38-1.787 1.155-.018.281.09.555.29.74.524.316 1.102.518 1.701.596 1.532.314 3.044.73 4.527 1.245.913.346 1.708.975 2.28 1.804.619.894.942 1.978.92 3.086.046 1.6-.577 3.139-1.702 4.205-1.377 1.209-3.083 1.917-4.868 2.02V176h-2.79v-2.526c-3.144-.08-5.855-2.365-6.638-5.594l5.106-.939c.423 1.514 1.826 2.473 3.301 2.256 1.362 0 2.06-.379 2.06-1.137.006-.389-.182-.752-.494-.956-.535-.288-1.11-.482-1.702-.578-3.2-.65-5.242-1.497-6.093-2.508-.835-.951-1.303-2.2-1.31-3.5-.002-1.435.502-2.819 1.413-3.88 1.138-1.228 2.653-1.983 4.271-2.13z"/>
        <path fill="#87AB3D" d="M312 212H453V220H312zM312 203H453V211H312z"/>
        <path fill="#87AB3D" d="M312 196H453V204H312zM312 187H453V195H312zM312 179H453V187H312z"/>
        <path fill="#87AB3D" d="M312 172H453V180H312z"/>
        <path fill="#13532D" d="M313 179H396V180H313zM371 187H454V188H371zM342 195H425V196H342zM324 204H407V205H324zM371 211H454V212H371z"/>
        <path fill="#ABC937" d="M452.859 114L453 171 312.159 171 312 114z"/>
        <path fill="#87AB3D" d="M449.875 118L316 118.018 316.125 167 450 166.982z"/>
        <path fill="#ABC937" d="M323 167.253c.005 1.36-.462 2.68-1.324 3.747H312v-8.635c1.218-.903 2.71-1.383 4.238-1.364 3.62-.068 6.628 2.713 6.762 6.252zM443 167.208c-.012 1.374.455 2.711 1.327 3.792H454v-8.62c-1.215-.899-2.7-1.383-4.227-1.378-3.616-.078-6.629 2.683-6.773 6.206zM323 117.747c-.002-1.362-.474-2.682-1.34-3.747H312v8.633c1.213.896 2.694 1.375 4.213 1.364 1.747.055 3.445-.572 4.719-1.745 1.273-1.173 2.017-2.794 2.068-4.505zM443 117.747c.003-1.358.47-2.676 1.324-3.747H454v8.634c-1.22.887-2.7 1.366-4.22 1.364-3.627.078-6.646-2.705-6.78-6.25zM399.977 142.886c.363-6.949-3.546-13.418-9.868-16.328-6.321-2.91-13.778-1.673-18.822 3.121-5.044 4.795-6.655 12.18-4.068 18.64 2.588 6.459 8.852 10.69 15.811 10.677 9.117.199 16.685-6.996 16.947-16.11zM345.995 142.712c.087-1.837-.953-3.541-2.626-4.305-1.672-.764-3.642-.433-4.973.835s-1.757 3.22-1.075 4.927c.682 1.707 2.335 2.828 4.174 2.83 2.423.05 4.432-1.865 4.5-4.287zM428.993 142.747c.101-1.841-.93-3.557-2.604-4.331-1.673-.774-3.649-.45-4.986.82-1.338 1.268-1.766 3.224-1.08 4.936.685 1.711 2.344 2.831 4.188 2.827 2.407.05 4.405-1.847 4.482-4.252z"/>
        <path fill="#87AB3F" d="M382.552 132.505V130h2.791v2.45c2.718.04 5.144 1.811 6.144 4.487l-4.544 1.441c-.476-1.209-1.646-1.942-2.876-1.801-1.191 0-1.787.396-1.787 1.17-.02.277.087.546.29.721.518.333 1.099.542 1.701.613 1.534.305 3.046.72 4.527 1.243.91.35 1.704.978 2.28 1.802.617.9.94 1.988.92 3.1.046 1.596-.577 3.133-1.702 4.197-1.383 1.197-3.085 1.903-4.868 2.018V154h-2.79v-2.523c-3.142-.086-5.85-2.365-6.638-5.585l5.106-.937c.43 1.507 1.828 2.46 3.301 2.252 1.362 0 2.06-.378 2.06-1.153.007-.384-.182-.742-.494-.937-.532-.295-1.107-.49-1.702-.576-3.2-.65-5.242-1.496-6.093-2.523-.837-.941-1.306-2.184-1.31-3.477-.008-1.434.496-2.818 1.413-3.874 1.128-1.247 2.646-2.016 4.271-2.162z"/>
        <path fill="#87AB3D" d="M312 163H453V171H312zM312 155H453V163H312z"/>
        <path fill="#87AB3D" d="M312 148H453V156H312zM312 139H453V147H312zM312 131H453V139H312zM312 122H453V130H312z"/>
        <path fill="#13532D" d="M313 130H396V131H313zM371 138H454V139H371zM342 147H425V148H342zM324 154H407V155H324zM371 163H454V164H371z"/>
        <path fill="#ABC937" d="M452.859 66L453 123 312.159 123 312 66.018z"/>
        <path fill="#87AB3D" d="M449.875 69L316 69.018 316.125 118 450 118z"/>
        <path fill="#ABC937" d="M323 119.246c.01 1.363-.457 2.688-1.324 3.754H312v-8.65c1.223-.892 2.712-1.366 4.237-1.349 3.614-.068 6.62 2.707 6.763 6.245zM443 119.26c.014 1.362.498 2.68 1.373 3.74H454v-8.618c-1.21-.9-2.688-1.384-4.206-1.38-3.64-.105-6.68 2.694-6.794 6.258zM323 69.74c.001-1.36-.471-2.678-1.34-3.74H312v8.618c1.207.908 2.69 1.393 4.213 1.38 1.749.05 3.447-.58 4.72-1.754 1.273-1.174 2.016-2.794 2.067-4.504zM443 69.754c-.002-1.362.465-2.684 1.324-3.754H454v8.65c-1.217.892-2.7 1.366-4.22 1.348-3.62.079-6.636-2.7-6.78-6.244zM399.978 94.868c.356-6.948-3.558-13.411-9.88-16.316-6.323-2.904-13.778-1.663-18.818 3.134-5.04 4.796-6.648 12.18-4.059 18.637 2.59 6.457 8.852 10.685 15.81 10.673 9.127.208 16.704-7.003 16.947-16.128zM345.994 94.73c.094-1.835-.937-3.543-2.604-4.314-1.668-.771-3.637-.452-4.974.807-1.338 1.26-1.776 3.205-1.106 4.916.67 1.71 2.312 2.842 4.149 2.86 2.43.069 4.458-1.84 4.535-4.27zM428.993 94.747c.101-1.841-.93-3.557-2.604-4.331-1.673-.774-3.649-.45-4.986.82-1.338 1.268-1.766 3.224-1.08 4.936.685 1.711 2.344 2.831 4.188 2.827 2.407.05 4.405-1.847 4.482-4.252z"/>
        <path fill="#87AB3F" d="M382.552 84.506V82h2.791v2.47c2.714.037 5.139 1.802 6.144 4.472l-4.544 1.443c-.476-1.21-1.646-1.944-2.876-1.803-1.191 0-1.787.378-1.787 1.172-.015.275.092.541.29.72.525.317 1.103.525 1.701.614 1.536.296 3.049.712 4.527 1.244.914.344 1.71.973 2.28 1.803.619.893.942 1.977.92 3.084.046 1.598-.577 3.136-1.702 4.201-1.374 1.215-3.08 1.93-4.868 2.038V106h-2.79v-2.524c-3.138-.099-5.84-2.374-6.638-5.59l5.106-.956c.417 1.518 1.824 2.479 3.301 2.254 1.362 0 2.06-.379 2.06-1.136.007-.384-.182-.742-.494-.938-.533-.294-1.108-.495-1.702-.595-3.2-.649-5.242-1.496-6.093-2.506-.838-.949-1.306-2.198-1.31-3.498-.004-1.429.5-2.807 1.413-3.859 1.127-1.246 2.647-2.01 4.271-2.146z"/>
        <path fill="#87AB3D" d="M312 115H453V123H312zM312 106H453V114H312zM312 98H453V106H312zM312 90H453V98H312zM312 82H453V90H312zM312 74H453V82H312z"/>
        <path fill="#13532D" d="M313 81H396V82H313zM371 90H454V91H371zM342 97H425V98H342zM324 106H407V107H324zM371 114H454V115H371z"/>
        <path fill="#ABC937" d="M452.859 16L453 73 312.159 73 312 16z"/>
        <path fill="#87AB3D" d="M449.875 21L316 21.018 316.125 70 450 70z"/>
        <path fill="#ABC937" d="M323 69.235c.007 1.366-.46 2.693-1.324 3.765H312v-8.635c1.218-.903 2.71-1.383 4.238-1.364 3.613-.068 6.618 2.702 6.762 6.234zM443 69.173c-.02 1.386.448 2.737 1.327 3.827H454v-8.62c-1.215-.899-2.7-1.383-4.226-1.378-3.603-.079-6.61 2.662-6.773 6.171zM323 20.74c-.002-1.359-.474-2.677-1.34-3.74H312v8.618c1.207.907 2.69 1.393 4.213 1.379 1.75.055 3.45-.574 4.725-1.748 1.274-1.175 2.016-2.797 2.062-4.509zM443 20.754c.003-1.361.47-2.682 1.324-3.754H454v8.649c-1.217.892-2.7 1.367-4.22 1.349-3.624.088-6.646-2.696-6.78-6.244zM399.981 44.797c.327-6.943-3.607-13.385-9.933-16.267-6.326-2.882-13.77-1.622-18.795 3.181-5.025 4.804-6.619 12.182-4.024 18.63 2.594 6.45 8.854 10.669 15.806 10.655 4.396.1 8.651-1.55 11.83-4.589 3.178-3.038 5.018-7.214 5.116-11.61zM345.995 44.712c.087-1.834-.95-3.536-2.618-4.302-1.668-.765-3.634-.441-4.968.82-1.334 1.26-1.768 3.205-1.098 4.914.671 1.708 2.313 2.838 4.149 2.854 1.17.034 2.305-.4 3.156-1.203.85-.804 1.347-1.913 1.379-3.083zM428.993 44.747c.101-1.841-.93-3.557-2.604-4.331-1.673-.774-3.649-.45-4.986.82-1.338 1.268-1.766 3.224-1.08 4.936.685 1.711 2.344 2.831 4.188 2.827 2.407.05 4.405-1.847 4.482-4.252z"/>
        <path fill="#1A1A1A" d="M321.177 228.077V85.414c0-9.568-7.074-17.414-15.528-17.414H91.653c-8.542 0-15.546 7.846-15.546 17.414v142.663H54v6.48c.082 3.35 2.638 6.113 5.96 6.443H339.057c3.316-.339 5.862-3.1 5.943-6.444v-6.479h-23.823z" opacity=".3"/>
        <path fill="#103754" d="M312 234.982V85.462C312 75.868 305.016 68 296.475 68H82.525C73.985 68 67 75.868 67 85.462V235l245-.018z"/>
        <path fill="#2C334F" d="M312.256 236H66V86.196C66 76.158 73.317 68 82.317 68h214.366c9 0 16.317 8.158 16.317 18.196v149.45l-.744.354zm-244.68-1.614h243.936V86.196c0-9.151-6.644-16.6-14.811-16.6H82.334c-8.167 0-14.793 7.449-14.793 16.6l.036 148.19z"/>
        <path fill="#67809F" d="M79 81H302V216H79z"/>
        <path fill="#2C334F" d="M302 217H78V81h224v136zm-222.552-1.612H300.41V82.541H79.52l-.07 132.847z"/>
        <path fill="#FEFFFF" d="M45 228H336V235H45z"/>
        <path fill="#2C334F" d="M337 236H44v-8h292.965l.035 8zm-291.459-1.596h289.936v-4.808H45.54v4.808z"/>
        <path fill="#C2E2DF" d="M336 234c-.082 3.639-2.638 6.641-5.96 7H50.942c-3.315-.368-5.861-3.368-5.942-7h291z"/>
        <path fill="#2C334F" d="M330.003 242H50.643c-3.728-.397-6.575-3.48-6.643-7.193V234h293v.79c-.036 3.725-2.9 6.825-6.643 7.192l-.354.018zm-284.391-6.421c.487 2.599 2.657 4.561 5.314 4.807H330.18c2.67-.217 4.855-2.193 5.314-4.807H45.612z"/>
        <path fill="#000" stroke="#2C334F" stroke-width=".5" d="M79 216L302 81 302 216z" opacity=".1"/>
        <path fill="#FFDD7B" d="M93 125H109V202H93z"/>
        <path fill="#2C334F" d="M110 203H92v-79h18v79zm-16.227-2.189h14.454v-74.605H93.773v74.605z"/>
        <path fill="#86E0AA" d="M118 141H134V201H118z"/>
        <path fill="#2C334F" d="M135 202h-18v-62h18v62zm-16.227-2.179h14.436v-57.695h-14.436v57.695z"/>
        <path fill="#EC523F" d="M144 125H160V202H144z"/>
        <path fill="#2C334F" d="M160.93 203H143v-79h18l-.07 79zm-16.157-2.189h14.454v-74.605h-14.454v74.605z"/>
        <path fill="#FFDD7B" d="M170 109H186V201H170z"/>
        <path fill="#2C334F" d="M186 202h-18v-94h18v94zm-16.227-2.173h14.436v-89.654h-14.436v89.654z"/>
        <path fill="#86E0AA" d="M195 116H211V201H195z"/>
        <path fill="#2C334F" d="M213 203h-18v-88h18v88zm-16.259-2.196h14.482v-83.59h-14.482v83.59z"/>
        <path fill="#EC523F" d="M221 112H237V202H221z"/>
        <path fill="#2C334F" d="M238 203h-18v-92h18v92zm-16.227-2.185h14.454v-87.56h-14.454v87.56z"/>
        <path fill="#FFDD7B" d="M247 128H263V201H247z"/>
        <path fill="#2C334F" d="M263 203h-18v-76h18v76zm-16.227-2.198h14.436v-71.693h-14.436v71.693z"/>
        <path fill="#86E0AA" d="M272 89H288V202H272z"/>
        <path fill="#2C334F" d="M289 203h-18V88h18v115zm-16.243-2.179h14.468V90.178h-14.468v110.643z"/>
        <path fill="#FE711A" d="M346 71.466L345.363 15 299.602 33.28 317.315 47.847 256.62 144.797 227.44 116.741 165.293 161.327 129.672 141.049 80 199 100.792 199 131.937 160.743 166.071 180.172 226.236 137.018 259.185 168.699 328.906 57.376z"/>
        <path fill="#2C334F" d="M101.297 202H75l53.852-63.02 35.99 20.54 62.535-44.984 28.654 27.64 58.478-93.642-19.085-15.746L347.29 12 348 76.21l-18.695-15.463-69.89 111.927-33.58-32.345-59.93 43.12-33.863-19.314L101.297 202zm-17.189-4.296h15.346l31.649-38.966 34.537 19.812 60.532-43.564 32.446 31.137 69.695-111.642 15.54 12.834-.531-49.208-39.765 15.977 16.356 13.491-63.12 101.08-29.788-28.687-61.915 44.557-35.44-20.184-45.542 53.363z"/>
        <path fill="#EBDA21" d="M86.993 228.253c.092-1.146-.765-2.151-1.92-2.253H4.77c-1.091.178-1.86 1.16-1.762 2.253v10.477c-.082 1.146.768 2.15 1.92 2.27h80.145c1.153-.12 2.003-1.124 1.92-2.27v-10.477z"/>
        <path fill="url(#prefix__a)" d="M3 228H87V239H3z"/>
        <path fill="#F49C01" d="M83 228H84V239H83zM79 228H80V239H79zM73 228H74V239H73zM69 228H70V239H69zM64 228H65V239H64zM59 228H60V239H59zM54 228H55V239H54zM49 228H50V239H49zM44 228H45V239H44zM39 228H40V239H39zM34 228H35V239H34zM30 228H31V239H30zM24 228H25V239H24zM20 228H21V239H20zM14 228H15V239H14zM10 228H11V239H10zM4 228H5V239H4z"/>
        <path fill="#EBDA21" d="M83.994 212.253c.083-1.137-.759-2.134-1.902-2.253H1.909c-1.148.11-1.994 1.113-1.902 2.253v10.477c-.092 1.143.752 2.15 1.902 2.27h80.183c1.146-.128 1.985-1.13 1.902-2.27v-10.477z"/>
        <path fill="url(#prefix__b)" d="M0 212H84V223H0z"/>
        <path fill="#F49C01" d="M80 212H81V223H80zM74 212H75V223H74zM70 212H71V223H70zM65 212H66V223H65zM60 212H61V223H60zM55 212H56V223H55zM50 212H51V223H50zM45 212H46V223H45zM41 212H42V223H41zM35 212H36V223H35zM31 212H32V223H31zM26 212H27V223H26zM21 212H22V223H21zM16 212H17V223H16zM11 212H12V223H11zM7 212H8V223H7zM1 212H2V223H1z"/>
        <path fill="#EBDA21" d="M91.994 197.255c.083-1.138-.758-2.135-1.9-2.255H9.906c-1.143.12-1.984 1.117-1.901 2.255v10.49c-.083 1.138.758 2.135 1.9 2.255h80.187c1.143-.12 1.984-1.117 1.901-2.255v-10.49z"/>
        <path fill="url(#prefix__b)" d="M8 197H92V208H8z"/>
        <path fill="#F49C01" d="M89 197H90V208H89zM83 197H84V208H83zM79 197H80V208H79zM73 197H74V208H73zM69 197H70V208H69zM64 197H65V208H64zM59 197H60V208H59zM54 197H55V208H54zM49 197H50V208H49zM44 197H45V208H44zM39 197H40V208H39zM34 197H35V208H34zM30 197H31V208H30zM24 197H25V208H24zM20 197H21V208H20zM14 197H15V208H14zM10 197H11V208H10z"/>
        <path fill="#EBDA21" d="M88.994 184.253c.082-1.143-.769-2.142-1.918-2.253H6.924c-1.15.11-2 1.11-1.918 2.253v10.477c-.083 1.146.766 2.15 1.918 2.27h80.152c1.152-.12 2-1.124 1.918-2.27v-10.477z"/>
        <path fill="url(#prefix__a)" d="M5 184H89V195H5z"/>
        <path fill="#F49C01" d="M84 184H85V195H84zM80 184H81V195H80zM74 184H75V195H74zM70 184H71V195H70zM65 184H66V195H65zM60 184H61V195H60zM55 184H56V195H55zM50 184H51V195H50zM45 184H46V195H45zM41 184H42V195H41zM35 184H36V195H35zM31 184H32V195H31zM26 184H27V195H26zM21 184H22V195H21zM16 184H17V195H16zM11 184H12V195H11zM7 184H8V195H7z"/>
        <path fill="#1A1A1A" d="M135.224 195.055h-1.776V183.57c-.038-.196-.098-.387-.178-.569H49.062c-.08.182-.14.373-.178.569v11.486c.066.98.806 1.78 1.777 1.92h1.776v11.487c.08 1.036.916 1.851 1.954 1.902h-8.615c-.98.12-1.731.932-1.776 1.92v11.487c.052.985.799 1.793 1.776 1.92h3.677c-.971.126-1.716.924-1.776 1.903v11.486c.058.982.802 1.786 1.776 1.92h80.886c.974-.134 1.718-.938 1.777-1.92v-11.486c-.053-.982-.802-1.784-1.777-1.903h-3.659c.971-.14 1.711-.94 1.777-1.92v-11.487c-.059-.982-.803-1.786-1.777-1.92h8.544c.968-.132 1.71-.927 1.776-1.902v-11.487c-.059-.982-.802-1.786-1.776-1.92z" opacity=".2"/>
        <path fill="#EBDA21" d="M151.992 228.253c.101-1.143-.75-2.151-1.901-2.253H69.908c-1.147.11-1.993 1.113-1.901 2.253v10.477c-.083 1.14.756 2.142 1.901 2.27h80.183c1.15-.12 1.993-1.127 1.9-2.27v-10.477z"/>
        <path fill="url(#prefix__a)" d="M68 228H152V239H68z"/>
        <path fill="#F49C01" d="M148 228H149V239H148zM142 228H143V239H142zM138 228H139V239H138zM133 228H134V239H133zM128 228H129V239H128zM123 228H124V239H123zM118 228H119V239H118zM113 228H114V239H113zM108 228H109V239H108zM103 228H104V239H103zM99 228H100V239H99zM94 228H95V239H94zM89 228H90V239H89zM84 228H85V239H84zM79 228H80V239H79zM74 228H75V239H74zM69 228H70V239H69z"/>
        <path fill="#EBDA21" d="M147.994 212.253c.083-1.137-.758-2.134-1.9-2.253H65.907c-1.147.11-1.993 1.113-1.901 2.253v10.477c-.092 1.143.751 2.15 1.901 2.27h80.185c1.145-.128 1.984-1.13 1.901-2.27v-10.477z"/>
        <path fill="url(#prefix__b)" d="M64 212H148V223H64z"/>
        <path fill="#F49C01" d="M143 212H144V223H143zM139 212H140V223H139zM134 212H135V223H134zM129 212H130V223H129zM125 212H126V223H125zM119 212H120V223H119zM115 212H116V223H115zM110 212H111V223H110zM105 212H106V223H105zM100 212H101V223H100zM95 212H96V223H95zM90 212H91V223H90zM85 212H86V223H85zM80 212H81V223H80zM76 212H77V223H76zM70 212H71V223H70zM66 212H67V223H66z"/>
        <path fill="#EBDA21" d="M155.994 197.247c.083-1.134-.758-2.128-1.9-2.247H73.928c-1.149.11-1.999 1.107-1.917 2.247V207.7c-.054.557.118 1.112.477 1.544.36.431.878.703 1.44.756h80.115c1.142-.12 1.982-1.113 1.9-2.247l.052-10.506z"/>
        <path fill="url(#prefix__a)" d="M72 197H156V208H72z"/>
        <path fill="#F49C01" d="M152 197H153V208H152zM148 197H149V208H148zM142 197H143V208H142zM138 197H139V208H138zM133 197H134V208H133zM128 197H129V208H128zM123 197H124V208H123zM118 197H119V208H118zM113 197H114V208H113zM108 197H109V208H108zM103 197H104V208H103zM99 197H100V208H99zM93 197H94V208H93zM89 197H90V208H89zM84 197H85V208H84zM79 197H80V208H79zM74 197H75V208H74z"/>
        <path fill="#EBDA21" d="M152.994 184.253c.082-1.143-.769-2.142-1.918-2.253H70.924c-1.15.11-2 1.11-1.918 2.253v10.477c-.083 1.146.766 2.15 1.918 2.27h80.152c1.152-.12 2-1.124 1.918-2.27v-10.477z"/>
        <path fill="url(#prefix__a)" d="M69 184H153V195H69z"/>
        <path fill="#F49C01" d="M149 184H150V195H149zM143 184H144V195H143zM139 184H140V195H139zM135 184H136V195H135zM129 184H130V195H129zM125 184H126V195H125zM119 184H120V195H119zM115 184H116V195H115zM110 184H111V195H110zM105 184H106V195H105zM100 184H101V195H100zM95 184H96V195H95zM90 184H91V195H90zM85 184H86V195H85zM80 184H81V195H80zM76 184H77V195H76zM70 184H71V195H70z"/>
        <path fill="#EBDA21" d="M151.993 169.253c.092-1.14-.754-2.142-1.901-2.253H69.907c-1.143.12-1.984 1.116-1.901 2.253v10.477c-.083 1.14.756 2.142 1.9 2.27h80.186c1.15-.12 1.993-1.127 1.901-2.27v-10.477z"/>
        <path fill="url(#prefix__a)" d="M68 169H152V180H68z"/>
        <path fill="#F49C01" d="M148 169H149V180H148zM142 169H143V180H142zM138 169H139V180H138zM133 169H134V180H133zM128 169H129V180H128zM123 169H124V180H123zM118 169H119V180H118zM113 169H114V180H113zM108 169H109V180H108zM103 169H104V180H103zM99 169H100V180H99zM94 169H95V180H94zM89 169H90V180H89zM84 169H85V180H84zM79 169H80V180H79zM74 169H75V180H74zM69 169H70V180H69z"/>
        <path fill="#EBDA21" d="M147.994 153.255c.083-1.138-.758-2.135-1.9-2.255H65.907c-1.147.11-1.993 1.114-1.901 2.255v10.49c-.092 1.14.754 2.144 1.901 2.255h80.185c1.143-.12 1.984-1.117 1.901-2.255v-10.49z"/>
        <path fill="url(#prefix__b)" d="M64 153H148V164H64z"/>
        <path fill="#F49C01" d="M143 153H144V164H143zM139 153H140V164H139zM134 153H135V164H134zM129 153H130V164H129zM125 153H126V164H125zM119 153H120V164H119zM115 153H116V164H115zM110 153H111V164H110zM105 153H106V164H105zM100 153H101V164H100zM95 153H96V164H95zM90 153H91V164H90zM85 153H86V164H85zM80 153H81V164H80zM76 153H77V164H76zM70 153H71V164H70zM66 153H67V164H66z"/>
        <path fill="#EBDA21" d="M155.994 138.247c.083-1.134-.758-2.128-1.9-2.247H73.928c-1.149.11-1.999 1.107-1.917 2.247V148.7c-.054.557.118 1.112.477 1.544.36.431.878.703 1.44.756h80.115c1.142-.12 1.982-1.113 1.9-2.247l.052-10.506z"/>
        <path fill="url(#prefix__c)" d="M72 138H156V149H72z"/>
        <path fill="#F49C01" d="M152 138H153V149H152zM148 138H149V149H148zM142 138H143V149H142zM138 138H139V149H138zM133 138H134V149H133zM128 138H129V149H128zM123 138H124V149H123zM118 138H119V149H118zM113 138H114V149H113zM108 138H109V149H108zM103 138H104V149H103zM99 138H100V149H99zM93 138H94V149H93zM89 138H90V149H89zM84 138H85V149H84zM79 138H80V149H79zM74 138H75V149H74z"/>
        <path fill="#EBDA21" d="M152.994 125.253c.082-1.143-.769-2.142-1.918-2.253H70.924c-1.15.11-2 1.11-1.918 2.253v10.477c-.083 1.146.766 2.15 1.918 2.27h80.152c1.152-.12 2-1.124 1.918-2.27v-10.477z"/>
        <path fill="url(#prefix__a)" d="M69 125H153V136H69z"/>
        <path fill="#F49C01" d="M149 125H150V136H149zM143 125H144V136H143zM139 125H140V136H139zM135 125H136V136H135zM129 125H130V136H129zM125 125H126V136H125zM119 125H120V136H119zM115 125H116V136H115zM110 125H111V136H110zM105 125H106V136H105zM100 125H101V136H100zM95 125H96V136H95zM90 125H91V136H90zM85 125H86V136H85zM80 125H81V136H80zM76 125H77V136H76zM70 125H71V136H70z"/>
        <path fill="#1A1A1A" d="M360 148H437V242H360z" opacity=".2"/>
        <path fill="#1A5887" d="M353 148H430V242H353z"/>
        <path fill="#FFF" d="M363 158H420V173H363z"/>
        <path fill="#FFF" d="M365.531 224.482L373.574 224.482 373.574 236.174 365.531 236.174z" transform="rotate(-89.94 369.553 230.328)"/>
        <path fill="#FFF" d="M379 226H391V234H379zM393 226H405V234H393z"/>
        <path fill="#F16D61" d="M410.358 224.53L418.401 224.53 418.401 236.223 410.358 236.223z" transform="rotate(-89.92 414.38 230.376)"/>
        <path fill="#FFF" d="M365 212L373 212 373 224 365 224z" transform="rotate(-90 369 218)"/>
        <path fill="#FFF" d="M379 214H391V222H379z"/>
        <path fill="#FFF" d="M395.421 212.803L403.464 212.803 403.464 224.496 395.421 224.496z" transform="rotate(-89.92 399.442 218.65)"/>
        <path fill="#FFF" d="M408 214H420V222H408zM363 202H375V210H363zM379 202H391V210H379z"/>
        <path fill="#FFF" d="M395.431 201.072L403.475 201.072 403.475 212.765 395.431 212.765z" transform="rotate(-89.94 399.453 206.918)"/>
        <path fill="#FFF" d="M408 202H420V210H408z"/>
        <path fill="#FFF" d="M365 188L373 188 373 200 365 200z" transform="rotate(-90 369 194)"/>
        <path fill="#FFF" d="M380.49 189.341L388.533 189.341 388.533 201.015 380.49 201.015z" transform="rotate(-89.94 384.512 195.178)"/>
        <path fill="#FFF" d="M393 191H405V199H393z"/>
        <path fill="#FFF" d="M410 188L418 188 418 200 410 200z" transform="rotate(-90 414 194)"/>
        <path fill="#FFF" d="M363 179H375V187H363zM379 179H391V187H379zM393 179H405V187H393z"/>
        <path fill="#FFF" d="M410.394 177.659L418.437 177.659 418.437 189.351 410.394 189.351z" transform="rotate(-89.92 414.415 183.505)"/>
    </g>
</svg>
