<?xml version="1.0" encoding="UTF-8" standalone="no"?>
<!-- Created with Inkscape (http://www.inkscape.org/) -->

<svg
   xmlns:dc="http://purl.org/dc/elements/1.1/"
   xmlns:cc="http://creativecommons.org/ns#"
   xmlns:rdf="http://www.w3.org/1999/02/22-rdf-syntax-ns#"
   xmlns:svg="http://www.w3.org/2000/svg"
   xmlns="http://www.w3.org/2000/svg"
   xmlns:sodipodi="http://sodipodi.sourceforge.net/DTD/sodipodi-0.dtd"
   xmlns:inkscape="http://www.inkscape.org/namespaces/inkscape"
   width="229.37521"
   height="113.37893"
   id="svg7141"
   version="1.1"
   inkscape:version="0.48.5 r10040"
   sodipodi:docname="pefindo-logo.svg">
  <defs
     id="defs7143" />
  <sodipodi:namedview
     id="base"
     pagecolor="#ffffff"
     bordercolor="#666666"
     borderopacity="1.0"
     inkscape:pageopacity="0.0"
     inkscape:pageshadow="2"
     inkscape:zoom="1"
     inkscape:cx="241.47978"
     inkscape:cy="-11.022286"
     inkscape:document-units="px"
     inkscape:current-layer="layer4"
     showgrid="false"
     fit-margin-top="0"
     fit-margin-left="0"
     fit-margin-right="0"
     fit-margin-bottom="0"
     inkscape:window-width="1366"
     inkscape:window-height="705"
     inkscape:window-x="-8"
     inkscape:window-y="-8"
     inkscape:window-maximized="1" />
  <metadata
     id="metadata7146">
    <rdf:RDF>
      <cc:Work
         rdf:about="">
        <dc:format>image/svg+xml</dc:format>
        <dc:type
           rdf:resource="http://purl.org/dc/dcmitype/StillImage" />
        <dc:title />
      </cc:Work>
    </rdf:RDF>
  </metadata>
  <g
     inkscape:groupmode="layer"
     id="layer4"
     inkscape:label="Layer"
     transform="translate(-34.865617,-80.741628)">
    <g
       id="g3093"
       transform="matrix(0.27996831,0,0,0.27996831,29.104349,74.800926)">
      <g
         transform="matrix(1.8757707,0,0,1.8674508,-362.38103,-130.33484)"
         id="g5743"
         style="display:inline">
        <path
           inkscape:connector-curvature="0"
           style="fill:#00a1e2;fill-opacity:1;fill-rule:evenodd;stroke:none"
           d="m 581.9789,84.059962 c 15.42404,14.436787 25.28125,36.501928 25.28125,61.249998 0,7.40833 -0.87925,14.57894 -2.53125,21.375 7.0696,-5.40696 13.17089,-12.12043 17.75,-19.9375 5.00956,-8.55188 7.64477,-17.48038 8.125,-26.1875 -0.004,-0.009 0.004,-0.0227 0,-0.0312 -9.13938,-18.99317 -27.13344,-32.929866 -48.625,-36.468748 z"
           id="path5558" />
        <path
           inkscape:connector-curvature="0"
           style="fill:#0166b4;fill-opacity:1;fill-rule:evenodd;stroke:none;display:inline"
           d="m 632.34864,124.99062 c -4.40805,20.66135 -18.22293,40.49022 -39.42213,53.25974 -6.34597,3.82255 -12.942,6.76929 -19.6159,8.86082 8.27938,3.26593 17.17828,5.02829 26.23712,4.91729 9.91038,-0.12142 18.91825,-2.47102 26.62455,-6.55238 0.006,-0.008 0.0215,-0.008 0.0268,-0.0161 11.5538,-17.6289 14.20739,-40.23368 6.14957,-60.46935 z"
           id="path5558-5" />
        <path
           inkscape:connector-curvature="0"
           style="fill:#00a1e2;fill-opacity:1;fill-rule:evenodd;stroke:none;display:inline"
           d="m 518.26337,109.99181 c 19.84692,-7.24032 43.98532,-6.06855 66.06511,5.10952 6.60958,3.34614 12.60996,7.36936 17.92713,11.91285 -1.63085,-8.74956 -4.8647,-17.22532 -9.7707,-24.8415 -5.36715,-8.332093 -12.14277,-14.715956 -19.69421,-19.077175 -0.0101,-8.36e-4 -0.0181,-0.01405 -0.028,-0.01409 -21.0734,-0.424711 -41.63493,9.334454 -54.49943,26.910445 z"
           id="path5558-5-8" />
        <path
           inkscape:connector-curvature="0"
           style="fill:#00a1e2;fill-opacity:1;fill-rule:evenodd;stroke:none;display:inline"
           d="m 509.99396,174.11319 c 4.37951,-20.66739 18.16694,-40.51537 39.34847,-53.31418 6.34068,-3.83131 12.93263,-6.78717 19.60363,-8.88793 -8.28387,-3.25449 -17.18522,-5.00454 -26.24389,-4.88103 -9.91021,0.13512 -18.91483,2.4972 -26.61549,6.5892 -0.007,0.008 -0.0214,0.008 -0.0268,0.0159 -11.52941,17.64486 -14.15174,40.2533 -6.06595,60.47779 z"
           id="path5558-5-8-8" />
        <path
           sodipodi:nodetypes="cscscccc"
           inkscape:connector-curvature="0"
           style="fill:#0166b4;fill-opacity:1;fill-rule:evenodd;stroke:none;display:inline"
           d="m 558.3176,213.15211 c -12.66701,-15.14556 -24.40614,-34.50033 -23.92808,-58.27348 0.14311,-7.11647 1.10367,-13.9892 2.77947,-20.48858 -6.71412,5.06998 -12.54818,11.41201 -16.98041,18.84084 -4.84884,8.12716 -7.48509,16.65773 -8.10226,25.01343 0.004,0.0102 -0.005,0.0214 -8.4e-4,0.0299 8.17793,18.40521 26.19102,31.45822 46.21606,35.23453 z"
           id="path5558-5-8-8-1" />
        <path
           inkscape:connector-curvature="0"
           style="fill:#0166b4;fill-opacity:1;fill-rule:evenodd;stroke:none;display:inline"
           d="m 551.61772,177.73734 c 4.32795,21.81429 13.09598,31.09458 18.904,37.48334 15.53572,1.37623 40.90472,-9.46724 53.14172,-26.04535 -26.16244,8.47199 -49.61839,4.27942 -72.04572,-11.43799 z"
           id="path5558-5-8-8-2"
           sodipodi:nodetypes="cccc" />
      </g>
      <g
         id="text7180"
         style="font-size:128.41896057px;font-style:normal;font-weight:normal;line-height:125%;letter-spacing:0px;word-spacing:0px;fill:#0166b4;fill-opacity:1;stroke:none;font-family:Sans"
         transform="scale(0.98214597,1.0181786)">
        <path
           inkscape:connector-curvature="0"
           id="path7730"
           style="font-weight:bold;fill:#0166b4"
           d="m 36.090656,337.81635 0,-91.92491 29.784671,0 c 11.286772,1e-4 18.644101,0.45993 22.072009,1.37951 5.267117,1.37958 9.677334,4.37895 13.230664,8.9981 3.55318,4.61931 5.32981,10.58669 5.32989,17.90216 -8e-5,5.64347 -1.02425,10.38811 -3.07253,14.23393 -2.04842,3.84593 -4.650656,6.8662 -7.806714,9.06081 -3.156196,2.1947 -6.364577,3.64736 -9.625152,4.35797 -4.431178,0.8779 -10.847939,1.31683 -19.250303,1.3168 l -12.101982,0 0,34.67563 z m 18.560553,-76.37417 0,26.0851 10.15814,0 c 7.315488,5e-5 12.20644,-0.48068 14.67287,-1.44221 2.466324,-0.96141 4.399713,-2.46632 5.800173,-4.51472 1.400342,-2.0483 2.100542,-4.43107 2.100603,-7.14833 -6.1e-5,-3.34417 -0.982432,-6.10317 -2.947115,-8.277 -1.964799,-2.17368 -4.452078,-3.53228 -7.461844,-4.0758 -2.21561,-0.41795 -6.66763,-0.62697 -13.356074,-0.62704 z" />
        <path
           inkscape:connector-curvature="0"
           id="path7732"
           style="font-weight:bold;fill:#0166b4"
           d="m 121.87051,337.81635 0,-91.92491 68.15987,0 0,15.55074 -49.59932,0 0,20.37898 46.15057,0 0,15.48803 -46.15057,0 0,25.01913 51.35505,0 0,15.48803 z" />
        <path
           inkscape:connector-curvature="0"
           id="path7734"
           style="font-weight:bold;fill:#0166b4"
           d="m 207.77577,337.81635 0,-91.92491 63.0181,0 0,15.55074 -44.45754,0 0,21.75848 38.37519,0 0,15.55074 -38.37519,0 0,39.06495 z" />
        <path
           inkscape:connector-curvature="0"
           id="path7736"
           style="font-weight:bold;fill:#0166b4"
           d="m 285.59214,337.81635 0,-91.92491 18.56055,0 0,91.92491 z" />
        <path
           inkscape:connector-curvature="0"
           id="path7738"
           style="font-weight:bold;fill:#0166b4"
           d="m 321.96078,337.81635 0,-91.92491 18.05891,0 37.62275,61.38778 0,-61.38778 17.24375,0 0,91.92491 -18.62326,0 -37.0584,-59.94557 0,59.94557 z" />
        <path
           inkscape:connector-curvature="0"
           id="path7740"
           style="font-weight:bold;fill:#0166b4"
           d="m 414.51275,245.89144 33.92318,0 c 7.6499,1e-4 13.48142,0.58534 17.49457,1.75573 5.39253,1.58861 10.01176,4.41031 13.85771,8.46512 3.8458,4.05497 6.77201,9.01908 8.77864,14.89234 2.00646,5.87338 3.00973,13.11575 3.00982,21.72713 -9e-5,7.56639 -0.94065,14.08766 -2.8217,19.56382 -2.29925,6.68851 -5.58079,12.102 -9.84462,16.24049 -3.21891,3.13523 -7.56642,5.58071 -13.04255,7.33643 -4.09676,1.2959 -9.57295,1.94385 -16.4286,1.94385 l -34.92645,0 z m 18.56056,15.55074 0,60.88614 13.85771,0 c 5.18353,10e-6 8.9249,-0.29261 11.22411,-0.87787 3.00977,-0.75244 5.5075,-2.02743 7.4932,-3.82498 1.98558,-1.79751 3.60545,-4.75507 4.85961,-8.87269 1.25402,-4.11757 1.88107,-9.72962 1.88113,-16.83618 -6e-5,-7.10647 -0.62711,-12.56176 -1.88113,-16.36589 -1.25416,-3.80401 -3.00989,-6.77203 -5.26719,-8.90405 -2.25742,-2.13188 -5.12093,-3.57409 -8.59052,-4.32662 -2.59184,-0.58516 -7.67091,-0.87779 -15.23722,-0.87786 z" />
        <path
           inkscape:connector-curvature="0"
           id="path7742"
           style="font-weight:bold;fill:#0166b4"
           d="m 503.61592,292.41824 c -1e-5,-9.36383 1.40039,-17.2228 4.2012,-23.57692 2.09015,-4.68187 4.9432,-8.88307 8.55918,-12.60362 3.61594,-3.72039 7.57677,-6.47939 11.88251,-8.277 5.72699,-2.42449 12.33186,-3.63678 19.81465,-3.63687 13.54412,9e-5 24.38155,4.2013 32.51232,12.60362 8.1306,8.40248 12.19594,20.08642 12.19604,35.05185 -1e-4,14.84012 -4.03409,26.4509 -12.10198,34.83239 -8.06807,8.38152 -18.85324,12.57227 -32.35556,12.57227 -13.66964,0 -24.53842,-4.16985 -32.60638,-12.50956 -8.068,-8.33969 -12.10199,-19.82507 -12.10198,-34.45616 z m 19.12489,-0.62705 c -2e-5,10.40899 2.40365,18.29931 7.21103,23.67098 4.80731,5.3717 10.91055,8.05755 18.30973,8.05753 7.39908,2e-5 13.47097,-2.66492 18.21568,-7.99483 4.74457,-5.32986 7.11689,-13.32469 7.11697,-23.9845 -8e-5,-10.53431 -2.30969,-18.39327 -6.92886,-23.57692 -4.6193,-5.1835 -10.75389,-7.77529 -18.40379,-7.77536 -7.65,7e-5 -13.81594,2.62321 -18.49785,7.86942 -4.68196,5.24635 -7.02293,13.15757 -7.02291,23.73368 z" />
      </g>
      <g
         id="text7180-8"
         style="font-size:47.60645676px;font-style:normal;font-weight:normal;line-height:125%;letter-spacing:0px;word-spacing:0px;fill:#00a1e2;fill-opacity:1;stroke:none;font-family:Sans"
         transform="scale(0.94181663,1.0617778)">
        <path
           inkscape:connector-curvature="0"
           id="path7745"
           style="fill:#00a1e2"
           d="m 62.635903,382.1353 4.509596,1.13902 c -0.945342,3.70377 -2.646124,6.52807 -5.102352,8.47293 -2.456282,1.94486 -5.458802,2.91729 -9.007569,2.91729 -3.672779,0 -6.659802,-0.74773 -8.961079,-2.24318 -2.301296,-1.49544 -4.052443,-3.66113 -5.253447,-6.49707 -1.201012,-2.83592 -1.801516,-5.88106 -1.801514,-9.13542 -2e-6,-3.54877 0.677987,-6.64427 2.033968,-9.28651 1.355972,-2.64219 3.285333,-4.64904 5.788089,-6.02055 2.502736,-1.37144 5.257306,-2.05717 8.263719,-2.05721 3.409295,4e-5 6.276217,0.86786 8.600776,2.60348 2.324504,1.73568 3.943928,4.17644 4.858276,7.32228 l -4.43986,1.04604 c -0.790368,-2.47947 -1.937137,-4.28486 -3.44031,-5.41616 -1.503222,-1.13124 -3.393841,-1.69688 -5.671863,-1.69691 -2.618991,3e-5 -4.807925,0.62765 -6.566809,1.88287 -1.758907,1.25528 -2.994784,2.94056 -3.707632,5.05586 -0.712864,2.11535 -1.069292,4.29654 -1.069285,6.54357 -7e-6,2.89793 0.422282,5.42779 1.266871,7.5896 0.844571,2.16182 2.157932,3.77737 3.940085,4.84665 1.782128,1.06929 3.71149,1.60393 5.788089,1.60393 2.525974,0 4.664543,-0.72835 6.415714,-2.18506 1.751123,-1.4567 2.936634,-3.61852 3.556537,-6.48545 z" />
        <path
           inkscape:connector-curvature="0"
           id="path7747"
           style="fill:#00a1e2"
           d="m 72.794116,394.0834 0,-34.07766 15.109472,0 c 3.037369,3e-5 5.346404,0.30609 6.927111,0.91819 1.580656,0.61216 2.843651,1.69306 3.78899,3.24272 0.94528,1.54972 1.417931,3.26212 1.417971,5.13722 -4e-5,2.41754 -0.782628,4.45538 -2.347784,6.11353 -1.565214,1.65818 -3.982726,2.71197 -7.252546,3.16136 1.193238,0.5734 2.099805,1.13904 2.719704,1.69691 1.317211,1.20877 2.56471,2.71972 3.7425,4.53284 l 5.927566,9.27489 -5.671867,0 -4.509596,-7.08982 c -1.317258,-2.04559 -2.40204,-3.61077 -3.254348,-4.69556 -0.852348,-1.08477 -1.61557,-1.84412 -2.289666,-2.27805 -0.674132,-0.43389 -1.359869,-0.73608 -2.057212,-0.90656 -0.511413,-0.10847 -1.348245,-0.16271 -2.510497,-0.16272 l -5.230202,0 0,15.13271 z m 4.509596,-19.03793 9.693307,0 c 2.061067,2e-5 3.672742,-0.21306 4.835031,-0.63925 1.162243,-0.42614 2.045565,-1.108 2.649969,-2.04559 0.604353,-0.93754 0.906542,-1.95646 0.906568,-3.05676 -2.6e-5,-1.61165 -0.585033,-2.93663 -1.755023,-3.97495 -1.170039,-1.03826 -3.018042,-1.55741 -5.544014,-1.55744 l -10.785838,0 z" />
        <path
           inkscape:connector-curvature="0"
           id="path7749"
           style="fill:#00a1e2"
           d="m 107.22046,394.0834 0,-34.07766 24.64007,0 0,4.02144 -20.13047,0 0,10.43716 18.85197,0 0,3.9982 -18.85197,0 0,11.59942 20.92081,0 0,4.02144 z" />
        <path
           inkscape:connector-curvature="0"
           id="path7751"
           style="fill:#00a1e2"
           d="m 138.92711,394.0834 0,-34.07766 11.7389,0 c 2.64995,3e-5 4.67229,0.16275 6.06703,0.48815 1.95259,0.44944 3.6185,1.26303 4.99775,2.44076 1.79761,1.51872 3.14197,3.45971 4.03307,5.82296 0.89104,2.3633 1.33657,5.06363 1.3366,8.101 -3e-5,2.58799 -0.30222,4.88153 -0.90656,6.88062 -0.60441,1.99911 -1.37926,3.6534 -2.32454,4.96288 -0.94534,1.30949 -1.97975,2.34003 -3.10325,3.09163 -1.12355,0.7516 -2.47953,1.32111 -4.06793,1.70853 -1.58846,0.38742 -3.41321,0.58113 -5.47428,0.58113 z m 4.5096,-4.02144 7.27579,0 c 2.24703,0 4.0098,-0.2092 5.28831,-0.62762 1.27848,-0.41841 2.2974,-1.0073 3.05677,-1.76665 1.06926,-1.06928 1.90222,-2.50661 2.49887,-4.31201 0.5966,-1.80538 0.89492,-3.99431 0.89495,-6.56681 -3e-5,-3.56426 -0.58504,-6.30334 -1.75503,-8.21723 -1.17004,-1.91384 -2.59187,-3.1962 -4.26552,-3.8471 -1.20877,-0.46488 -3.15363,-0.69733 -5.83458,-0.69736 l -7.15956,0 z" />
        <path
           inkscape:connector-curvature="0"
           id="path7753"
           style="fill:#00a1e2"
           d="m 174.09732,394.0834 0,-34.07766 4.50959,0 0,34.07766 z" />
        <path
           inkscape:connector-curvature="0"
           id="path7755"
           style="fill:#00a1e2"
           d="m 195.20407,394.0834 0,-30.05622 -11.2275,0 0,-4.02144 27.01109,0 0,4.02144 -11.27399,0 0,30.05622 z" />
        <path
           inkscape:connector-curvature="0"
           id="path7757"
           style="fill:#00a1e2"
           d="m 228.90981,394.0834 0,-34.07766 15.10947,0 c 3.03737,3e-5 5.34641,0.30609 6.92711,0.91819 1.58066,0.61216 2.84366,1.69306 3.789,3.24272 0.94528,1.54972 1.41793,3.26212 1.41796,5.13722 -3e-5,2.41754 -0.78262,4.45538 -2.34778,6.11353 -1.56521,1.65818 -3.98272,2.71197 -7.25254,3.16136 1.19323,0.5734 2.0998,1.13904 2.7197,1.69691 1.31721,1.20877 2.56471,2.71972 3.7425,4.53284 l 5.92756,9.27489 -5.67186,0 -4.5096,-7.08982 c -1.31726,-2.04559 -2.40204,-3.61077 -3.25434,-4.69556 -0.85235,-1.08477 -1.61557,-1.84412 -2.28967,-2.27805 -0.67413,-0.43389 -1.35987,-0.73608 -2.05721,-0.90656 -0.51142,-0.10847 -1.34825,-0.16271 -2.5105,-0.16272 l -5.2302,0 0,15.13271 z m 4.5096,-19.03793 9.69331,0 c 2.06106,2e-5 3.67274,-0.21306 4.83503,-0.63925 1.16224,-0.42614 2.04556,-1.108 2.64996,-2.04559 0.60436,-0.93754 0.90655,-1.95646 0.90657,-3.05676 -2e-5,-1.61165 -0.58503,-2.93663 -1.75502,-3.97495 -1.17004,-1.03826 -3.01804,-1.55741 -5.54401,-1.55744 l -10.78584,0 z" />
        <path
           inkscape:connector-curvature="0"
           id="path7759"
           style="fill:#00a1e2"
           d="m 259.50068,394.0834 13.08713,-34.07766 4.85828,0 13.9472,34.07766 -5.13722,0 -3.97495,-10.32093 -14.2494,0 -3.7425,10.32093 z m 9.83278,-13.99369 11.55294,0 -3.55654,-9.43761 c -1.0848,-2.8669 -1.89064,-5.22242 -2.41752,-7.06658 -0.43392,2.18509 -1.04605,4.35465 -1.83638,6.50869 z" />
        <path
           inkscape:connector-curvature="0"
           id="path7761"
           style="fill:#00a1e2"
           d="m 303.71332,394.0834 0,-30.05622 -11.2275,0 0,-4.02144 27.01108,0 0,4.02144 -11.27399,0 0,30.05622 z" />
        <path
           inkscape:connector-curvature="0"
           id="path7763"
           style="fill:#00a1e2"
           d="m 324.91308,394.0834 0,-34.07766 4.5096,0 0,34.07766 z" />
        <path
           inkscape:connector-curvature="0"
           id="path7765"
           style="fill:#00a1e2"
           d="m 337.30283,394.0834 0,-34.07766 4.62583,0 17.89891,26.75538 0,-26.75538 4.32363,0 0,34.07766 -4.62582,0 -17.89891,-26.77863 0,26.77863 z" />
        <path
           inkscape:connector-curvature="0"
           id="path7767"
           style="fill:#00a1e2"
           d="m 387.69873,380.71733 0,-3.99819 14.43536,-0.0232 0,12.64547 c -2.21609,1.76664 -4.50188,3.0955 -6.85738,3.98657 -2.35555,0.89107 -4.77306,1.33661 -7.25254,1.33661 -3.34735,0 -6.38861,-0.71673 -9.1238,-2.1502 -2.73521,-1.43346 -4.80017,-3.50616 -6.19488,-6.21812 -1.39472,-2.71195 -2.09208,-5.74159 -2.09208,-9.08893 0,-3.31632 0.69348,-6.41182 2.08046,-9.28652 1.38696,-2.87464 3.38219,-5.00934 5.98567,-6.40409 2.60347,-1.39468 5.60211,-2.09204 8.99595,-2.09208 2.46398,4e-5 4.69166,0.39908 6.68303,1.19714 1.99133,0.79812 3.55264,1.91002 4.68394,3.3357 1.13124,1.42575 1.99132,3.28537 2.58023,5.57889 l -4.06793,1.11577 c -0.51143,-1.73563 -1.1468,-3.09935 -1.90612,-4.09118 -0.75937,-0.99177 -1.84416,-1.78599 -3.25435,-2.38265 -1.41024,-0.5966 -2.97542,-0.89491 -4.69556,-0.89494 -2.0611,3e-5 -3.84324,0.31384 -5.34642,0.94144 -1.50322,0.62765 -2.71585,1.45286 -3.6379,2.47562 -0.92208,1.02283 -1.63881,2.14635 -2.15019,3.37058 -0.86784,2.1076 -1.30175,4.39339 -1.30174,6.85737 -10e-6,3.03741 0.52301,5.5789 1.56906,7.62448 1.04603,2.04559 2.5686,3.56429 4.56771,4.55608 1.99908,0.99181 4.12215,1.48771 6.36922,1.4877 1.95259,10e-6 3.8587,-0.37579 5.71835,-1.1274 1.8596,-0.75159 3.26982,-1.55355 4.23065,-2.40589 l 0,-6.34598 z" />
        <path
           inkscape:connector-curvature="0"
           id="path7769"
           style="fill:#00a1e2"
           d="m 418.21986,394.0834 13.08713,-34.07766 4.85827,0 13.94721,34.07766 -5.13722,0 -3.97496,-10.32093 -14.24939,0 -3.7425,10.32093 z m 9.83278,-13.99369 11.55293,0 -3.55653,-9.43761 c -1.0848,-2.8669 -1.89064,-5.22242 -2.41752,-7.06658 -0.43393,2.18509 -1.04605,4.35465 -1.83638,6.50869 z" />
        <path
           inkscape:connector-curvature="0"
           id="path7771"
           style="fill:#00a1e2"
           d="m 469.70829,380.71733 0,-3.99819 14.43535,-0.0232 0,12.64547 c -2.21609,1.76664 -4.50188,3.0955 -6.85737,3.98657 -2.35556,0.89107 -4.77307,1.33661 -7.25255,1.33661 -3.34735,0 -6.38861,-0.71673 -9.1238,-2.1502 -2.73521,-1.43346 -4.80016,-3.50616 -6.19488,-6.21812 -1.39472,-2.71195 -2.09208,-5.74159 -2.09208,-9.08893 0,-3.31632 0.69348,-6.41182 2.08046,-9.28652 1.38696,-2.87464 3.38219,-5.00934 5.98567,-6.40409 2.60347,-1.39468 5.60211,-2.09204 8.99595,-2.09208 2.46398,4e-5 4.69166,0.39908 6.68304,1.19714 1.99132,0.79812 3.55263,1.91002 4.68393,3.3357 1.13124,1.42575 1.99132,3.28537 2.58023,5.57889 l -4.06793,1.11577 c -0.51143,-1.73563 -1.1468,-3.09935 -1.90612,-4.09118 -0.75937,-0.99177 -1.84415,-1.78599 -3.25435,-2.38265 -1.41024,-0.5966 -2.97542,-0.89491 -4.69555,-0.89494 -2.06111,3e-5 -3.84325,0.31384 -5.34643,0.94144 -1.50321,0.62765 -2.71585,1.45286 -3.6379,2.47562 -0.92207,1.02283 -1.6388,2.14635 -2.15019,3.37058 -0.86784,2.1076 -1.30175,4.39339 -1.30174,6.85737 -10e-6,3.03741 0.52301,5.5789 1.56906,7.62448 1.04603,2.04559 2.5686,3.56429 4.56771,4.55608 1.99908,0.99181 4.12215,1.48771 6.36922,1.4877 1.95259,10e-6 3.8587,-0.37579 5.71835,-1.1274 1.8596,-0.75159 3.26982,-1.55355 4.23066,-2.40589 l 0,-6.34598 z" />
        <path
           inkscape:connector-curvature="0"
           id="path7773"
           style="fill:#00a1e2"
           d="m 490.86156,394.0834 0,-34.07766 24.64006,0 0,4.02144 -20.13047,0 0,10.43716 18.85197,0 0,3.9982 -18.85197,0 0,11.59942 20.92081,0 0,4.02144 z" />
        <path
           inkscape:connector-curvature="0"
           id="path7775"
           style="fill:#00a1e2"
           d="m 522.5217,394.0834 0,-34.07766 4.62583,0 17.89891,26.75538 0,-26.75538 4.32363,0 0,34.07766 -4.62582,0 -17.89891,-26.77863 0,26.77863 z" />
        <path
           inkscape:connector-curvature="0"
           id="path7777"
           style="fill:#00a1e2"
           d="m 581.28593,382.1353 4.50959,1.13902 c -0.94534,3.70377 -2.64612,6.52807 -5.10235,8.47293 -2.45628,1.94486 -5.4588,2.91729 -9.00757,2.91729 -3.67278,0 -6.6598,-0.74773 -8.96108,-2.24318 -2.30129,-1.49544 -4.05244,-3.66113 -5.25344,-6.49707 -1.20102,-2.83592 -1.80152,-5.88106 -1.80152,-9.13542 0,-3.54877 0.67799,-6.64427 2.03397,-9.28651 1.35597,-2.64219 3.28533,-4.64904 5.78809,-6.02055 2.50274,-1.37144 5.25731,-2.05717 8.26372,-2.05721 3.40929,4e-5 6.27622,0.86786 8.60077,2.60348 2.32451,1.73568 3.94393,4.17644 4.85828,7.32228 l -4.43986,1.04604 c -0.79037,-2.47947 -1.93714,-4.28486 -3.44031,-5.41616 -1.50322,-1.13124 -3.39384,-1.69688 -5.67186,-1.69691 -2.61899,3e-5 -4.80793,0.62765 -6.56681,1.88287 -1.75891,1.25528 -2.99479,2.94056 -3.70763,5.05586 -0.71287,2.11535 -1.0693,4.29654 -1.06929,6.54357 -10e-6,2.89793 0.42228,5.42779 1.26687,7.5896 0.84457,2.16182 2.15793,3.77737 3.94009,4.84665 1.78213,1.06929 3.71149,1.60393 5.78809,1.60393 2.52597,0 4.66454,-0.72835 6.41571,-2.18506 1.75112,-1.4567 2.93663,-3.61852 3.55654,-6.48545 z" />
        <path
           inkscape:connector-curvature="0"
           id="path7779"
           style="fill:#00a1e2"
           d="m 600.9747,394.0834 0,-14.43535 -13.13361,-19.64231 5.4859,0 6.7179,10.27444 c 1.23974,1.92163 2.39426,3.84325 3.46356,5.76484 1.02277,-1.78212 2.26252,-3.78897 3.71925,-6.02054 l 6.60168,-10.01874 5.25344,0 -13.59852,19.64231 0,14.43535 z" />
      </g>
    </g>
  </g>
</svg>
