<?xml version="1.0" encoding="UTF-8" standalone="no"?>
<svg
   xmlns:dc="http://purl.org/dc/elements/1.1/"
   xmlns:cc="http://creativecommons.org/ns#"
   xmlns:rdf="http://www.w3.org/1999/02/22-rdf-syntax-ns#"
   xmlns:svg="http://www.w3.org/2000/svg"
   xmlns="http://www.w3.org/2000/svg"
   version="1.1"
   id="svg15049"
   viewBox="0 0 177.47337 25.606381"
   height="25.60638"
   width="177.47337">
  <defs
     id="defs15051" />
  <metadata
     id="metadata15054">
    <rdf:RDF>
      <cc:Work
         rdf:about="">
        <dc:format>image/svg+xml</dc:format>
        <dc:type
           rdf:resource="http://purl.org/dc/dcmitype/StillImage" />
        <dc:title></dc:title>
      </cc:Work>
    </rdf:RDF>
  </metadata>
  <g
     transform="translate(982.52245,188.08969)"
     id="layer1">
    <g
       transform="translate(0.50000171,-0.49999977)"
       id="g17504">
      <path
         d="m -970.68315,-165.41431 0.35875,0 0,-15.7675 -0.35875,0 0,15.7675 z"
         style="fill:#000000;fill-opacity:1;fill-rule:nonzero;stroke:none"
         id="path15507" />
      <g
         id="g15517"
         transform="matrix(1.25,0,0,-1.25,-957.14695,-180.39806)">
        <path
           d="M 0,0 C -0.962,-0.8 -1.081,-0.934 -1.798,-2.002 -2.519,-0.934 -2.638,-0.8 -3.599,0 -2.638,0.799 -2.519,0.932 -1.798,2 -1.079,0.932 -0.962,0.799 0,0"
           style="fill:#000000;fill-opacity:1;fill-rule:nonzero;stroke:none"
           id="path15519" />
      </g>
      <g
         id="g15521"
         transform="matrix(1.25,0,0,-1.25,-957.00808,-165.03369)">
        <path
           d="m 0,0 c -0.181,0.12 -0.299,0.271 -0.379,0.42 -0.064,0.095 -0.098,0.226 -0.122,0.349 -0.042,0.208 -0.021,0.367 -0.021,0.367 l 0,8.924 -3.131,-2.627 c 0.306,-0.322 0.35,-0.717 0.353,-0.87 0.003,-0.04 0,-0.066 0,-0.066 l 0,-5.625 c 0,-1.723 1.218,-2.619 1.218,-2.619 L 0,0 Z"
           style="fill:#000000;fill-opacity:1;fill-rule:nonzero;stroke:none"
           id="path15523" />
      </g>
      <g
         id="g15525"
         transform="matrix(1.25,0,0,-1.25,-927.97258,-180.39806)">
        <path
           d="M 0,0 C -0.958,-0.8 -1.079,-0.934 -1.8,-2.002 -2.517,-0.934 -2.638,-0.8 -3.6,0 -2.638,0.799 -2.517,0.932 -1.8,2 -1.079,0.932 -0.958,0.799 0,0"
           style="fill:#000000;fill-opacity:1;fill-rule:nonzero;stroke:none"
           id="path15527" />
      </g>
      <g
         id="g15529"
         transform="matrix(1.25,0,0,-1.25,-927.83358,-165.03369)">
        <path
           d="M 0,0 C -0.178,0.12 -0.299,0.271 -0.378,0.42 -0.443,0.515 -0.48,0.646 -0.499,0.769 -0.538,0.977 -0.524,1.136 -0.524,1.136 l 0,8.924 -3.129,-2.627 c 0.305,-0.322 0.35,-0.717 0.356,-0.87 0.001,-0.04 0,-0.066 0,-0.066 l 0,-5.625 c 0,-1.723 1.217,-2.619 1.217,-2.619 L 0,0 Z"
           style="fill:#000000;fill-opacity:1;fill-rule:nonzero;stroke:none"
           id="path15531" />
      </g>
      <g
         id="g15533"
         transform="matrix(1.25,0,0,-1.25,-951.92383,-174.94719)">
        <path
           d="m 0,0 c 0,0 0.213,-0.914 1.421,-0.914 0,0 0.704,-0.027 1.47,0.746 L 4.259,1.204 C 3.623,0.873 3.004,0.857 2.59,0.905 2.471,0.914 2.299,0.939 2.098,1.01 2.087,1.013 2.078,1.016 2.078,1.016 l 0.002,0 C 1.74,1.139 1.334,1.391 1.015,1.919 L -1.69,-0.356 c 0,0 -0.665,-0.603 -0.665,-1.623 0,0 -0.106,-1.758 2.152,-2.847 0,0 1.252,-0.599 2.009,-1.124 0,0 0.495,-0.327 0.495,-0.88 0,0 0.036,-0.843 -0.925,-0.843 0,0 -1.562,-0.089 -1.605,2.231 l -2.515,-2.084 c 0,0 0.584,-2.136 2.593,-2.136 0,0 2.048,-0.057 3.617,2.076 0,0 0.782,1.019 0.782,2.028 0,0 0.134,1.734 -2.162,2.742 0,0 -1.001,0.406 -1.911,1.058 0,0 -0.574,0.342 -0.574,0.984 0,0 -0.06,0.379 0.399,0.774"
           style="fill:#000000;fill-opacity:1;fill-rule:nonzero;stroke:none"
           id="path15535" />
      </g>
      <g
         id="g15537"
         transform="matrix(1.25,0,0,-1.25,-922.68758,-174.94719)">
        <path
           d="m 0,0 c 0,0 0.213,-0.914 1.421,-0.914 0,0 0.705,-0.027 1.474,0.746 L 4.26,1.204 C 3.623,0.873 3.005,0.857 2.592,0.905 2.471,0.914 2.3,0.939 2.099,1.01 2.088,1.013 2.08,1.016 2.08,1.016 1.741,1.139 1.333,1.391 1.017,1.919 L -1.69,-0.356 c 0,0 -0.665,-0.603 -0.665,-1.623 0,0 -0.106,-1.758 2.155,-2.847 0,0 1.25,-0.599 2.009,-1.124 0,0 0.494,-0.327 0.494,-0.88 0,0 0.034,-0.843 -0.927,-0.843 0,0 -1.561,-0.089 -1.605,2.231 L -2.74,-7.526 c 0,0 0.58,-2.136 2.59,-2.136 0,0 2.046,-0.057 3.616,2.076 0,0 0.784,1.019 0.784,2.028 0,0 0.132,1.734 -2.166,2.742 0,0 -0.999,0.406 -1.906,1.058 0,0 -0.573,0.342 -0.573,0.984 0,0 -0.063,0.379 0.395,0.774"
           style="fill:#000000;fill-opacity:1;fill-rule:nonzero;stroke:none"
           id="path15539" />
      </g>
      <g
         id="g15541"
         transform="matrix(1.25,0,0,-1.25,-978.84445,-176.51056)">
        <path
           d="m 0,0 c 0,0 -0.088,0.013 -0.224,0.013 -0.461,0 -1.965,-0.17 -1.965,-2.357 0.002,-0.04 0.042,-1.001 0.373,-1.869 l 0.128,-0.33 0.058,0.348 c 0.008,0.047 0.208,1.16 1.274,1.16 0.091,0 0.189,-0.008 0.289,-0.025 L 0.044,-3.079 0.085,-0.012 0,0 Z"
           style="fill:#000000;fill-opacity:1;fill-rule:nonzero;stroke:none"
           id="path15543" />
      </g>
      <path
         id="path15547"
         style="fill:#000000;fill-opacity:1;fill-rule:nonzero;stroke:none"
         d="m -969.72403,-181.36393 -0.75625,0.75375 -0.7525,-0.75375 0.7525,-0.75625 0.75625,0.75625 z" />
      <g
         id="g15557"
         transform="matrix(1.25,0,0,-1.25,-936.13833,-176.19956)">
        <path
           d="M 0,0 -1.111,1.116 -3.81,-1.125 c 0,1.704 -0.962,2.25 -0.962,2.25 l -2.294,-1.881 c 0.252,-0.286 0.326,-0.591 0.348,-0.775 0.016,-0.098 0.007,-0.178 0.007,-0.178 l 0,-6.2 c 0,-1.981 1.198,-2.759 1.198,-2.759 l 2.17,1.769 c -0.243,0.166 -0.361,0.353 -0.419,0.502 -0.039,0.082 -0.053,0.173 -0.056,0.227 -0.002,0.031 -0.002,0.051 -0.002,0.051 l 0,6.258 c 0.552,0.421 1.023,0.398 1.023,0.398 1,0 0.976,-0.809 0.976,-0.809 l 0,-5.566 0,-3.135 c 0,0 2.789,0.997 2.789,3.135 l 0,5.518 C 0.968,-0.94 0,0 0,0"
           style="fill:#000000;fill-opacity:1;fill-rule:nonzero;stroke:none"
           id="path15559" />
      </g>
      <g
         id="g15561"
         transform="matrix(1.25,0,0,-1.25,-976.02783,-179.68756)">
        <path
           d="m 0,0 c 0,0 0,0.056 0.005,0.149 0,0.009 0.002,0.019 0.002,0.027 C 0.019,0.479 0.08,1.107 0.301,1.591 -0.912,0.809 -1.872,-0.181 -1.882,-0.192 -2.578,-0.912 -2.55,-1.701 -2.546,-1.73 l 0,-7.357 c 0,-1.1 -0.418,-1.544 -0.427,-1.551 l -0.316,-0.318 0.421,0.159 C 0.103,-9.668 0.002,-7.182 0,-7.163 L 0,0 Z"
           style="fill:#000000;fill-opacity:1;fill-rule:nonzero;stroke:none"
           id="path15563" />
      </g>
      <g
         id="g15565"
         transform="matrix(1.25,0,0,-1.25,-969.23858,-176.39256)">
        <path
           d="M 0,0 -0.069,0 C 3.134,2.102 3.103,4.987 3.103,5.015 3.103,8.263 0.581,8.3 0.555,8.3 -0.577,8.3 -1.252,7.612 -1.274,7.589 L -3.956,5.226 C -4.832,4.224 -4.709,3.129 -4.705,3.095 l 0,-7.512 c 0,-1.549 -0.59,-2.131 -0.594,-2.135 l -0.32,-0.302 0.416,0.14 c 3.16,1.058 3.065,3.747 3.065,3.769 l 0,7.874 c 0,0.763 0.206,1.323 0.596,1.622 0.298,0.229 0.599,0.231 0.613,0.231 0.298,0 0.558,-0.11 0.773,-0.327 0.752,-0.755 0.75,-2.556 0.75,-2.575 0,-3.372 -1.61,-3.913 -1.625,-3.919 l -0.069,-0.02 0,-0.399 0.091,-0.007 c 2.78,-0.211 2.78,-3.304 2.78,-3.436 0,-3.355 -1.934,-4.319 -2.248,-4.454 -1.188,0.789 -2.374,1.187 -3.531,1.187 -2.776,0 -4.679,-2.316 -5.366,-3.307 0.806,0.379 1.557,0.562 2.098,0.652 0.193,0.038 0.387,0.059 0.583,0.069 0.155,0.013 0.244,0.014 0.244,0.014 0.656,0 1.333,-0.153 2.019,-0.45 l 0.023,-0.011 c 0.39,-0.186 0.869,-0.279 1.427,-0.279 1.633,0 3.4,0.782 3.47,0.815 2.946,1.197 3.818,3.746 3.826,3.775 0.021,0.067 0.033,0.108 0.033,0.112 0.271,0.957 0.274,1.876 0.274,1.913 C 4.623,-0.279 1.087,0 0,0"
           style="fill:#000000;fill-opacity:1;fill-rule:nonzero;stroke:none"
           id="path15567" />
      </g>
      <g
         id="g15569"
         transform="matrix(1.25,0,0,-1.25,-974.2362,-185.47719)">
        <path
           d="m 0,0 c -0.088,-0.018 -0.181,-0.028 -0.276,-0.033 -0.043,-0.004 -0.072,-0.004 -0.072,-0.004 0,0 -0.017,-0.002 -0.035,-0.002 -0.103,0 -0.49,0.036 -1.141,0.499 -0.043,0.033 -1.084,0.828 -1.911,0.828 0,0 -0.019,0.002 -0.054,0.002 -0.28,0 -1.247,-0.073 -2.086,-1.011 -0.029,-0.033 -0.659,-0.816 -1.027,-1.774 l -0.027,-0.066 c 0.854,0.63 1.533,0.578 1.533,0.578 0,0 0.579,-0.005 1.171,-0.474 0.035,-0.03 0.898,-0.739 1.702,-0.739 0,0 0.04,-0.006 0.113,-0.006 0.436,0 1.964,0.198 3.412,2.703 C 0.826,0.182 0.324,0.051 0,0"
           style="fill:#000000;fill-opacity:1;fill-rule:nonzero;stroke:none"
           id="path15571" />
      </g>
      <g
         id="g15573"
         transform="matrix(1.25,0,0,-1.25,-818.70383,-180.39806)">
        <path
           d="M 0,0 C -0.959,-0.8 -1.079,-0.934 -1.799,-2.002 -2.52,-0.934 -2.641,-0.8 -3.599,0 -2.641,0.799 -2.52,0.932 -1.799,2 -1.079,0.932 -0.959,0.799 0,0"
           style="fill:#000000;fill-opacity:1;fill-rule:nonzero;stroke:none"
           id="path15575" />
      </g>
      <g
         id="g15577"
         transform="matrix(1.25,0,0,-1.25,-818.56433,-165.03369)">
        <path
           d="M 0,0 C -0.181,0.12 -0.301,0.271 -0.38,0.42 -0.443,0.515 -0.481,0.646 -0.5,0.769 -0.541,0.977 -0.523,1.136 -0.523,1.136 l 0,8.924 -3.131,-2.627 c 0.304,-0.322 0.35,-0.717 0.356,-0.87 0.002,-0.04 0,-0.066 0,-0.066 l 0,-5.625 c 0,-1.723 1.216,-2.619 1.216,-2.619 L 0,0 Z"
           style="fill:#000000;fill-opacity:1;fill-rule:nonzero;stroke:none"
           id="path15579" />
      </g>
      <g
         id="g15581"
         transform="matrix(1.25,0,0,-1.25,-830.18395,-174.94719)">
        <path
           d="m 0,0 c 0,0 0.212,-0.914 1.419,-0.914 0,0 0.706,-0.027 1.473,0.746 L 4.26,1.204 C 3.624,0.873 3.005,0.857 2.59,0.905 2.472,0.914 2.298,0.939 2.096,1.01 2.088,1.013 2.079,1.016 2.079,1.016 1.741,1.139 1.333,1.391 1.015,1.919 l -2.704,-2.275 c 0,0 -0.665,-0.603 -0.665,-1.623 0,0 -0.106,-1.758 2.152,-2.847 0,0 1.252,-0.599 2.009,-1.124 0,0 0.496,-0.327 0.496,-0.88 0,0 0.036,-0.843 -0.925,-0.843 0,0 -1.563,-0.089 -1.607,2.231 l -2.514,-2.084 c 0,0 0.581,-2.136 2.593,-2.136 0,0 2.046,-0.057 3.617,2.076 0,0 0.781,1.019 0.781,2.028 0,0 0.135,1.734 -2.162,2.742 0,0 -1,0.406 -1.909,1.058 0,0 -0.574,0.342 -0.574,0.984 0,0 -0.061,0.379 0.397,0.774"
           style="fill:#000000;fill-opacity:1;fill-rule:nonzero;stroke:none"
           id="path15583" />
      </g>
      <g
         id="g15585"
         transform="matrix(1.25,0,0,-1.25,-870.4312,-165.48544)">
        <path
           d="m 0,0 c -0.057,0.119 -0.052,0.247 -0.052,0.247 l 0,11.954 c 0,1.652 -0.836,2.173 -0.836,2.173 l -2.374,-1.898 c 0.501,-0.398 0.453,-0.831 0.453,-0.831 l 0,-3.293 C -3.255,8.96 -4.326,9.628 -4.326,9.628 L -8.309,6.313 c 0.323,-0.287 0.284,-0.546 0.284,-0.546 l 0,-4.097 c 0,-2.636 2.444,-3.885 2.444,-3.885 l 2.761,2.268 c 0,-1.348 1.197,-2.281 1.197,-2.281 l 2.016,1.651 C 0.163,-0.37 0.053,-0.158 0,0 m -4.068,0.265 c -1.204,0 -1.175,1.114 -1.175,1.114 l 0,5.742 0.152,0.152 C -4.068,6.593 -3.375,5.62 -3.375,5.62 -2.834,4.905 -2.82,4.038 -2.82,4.038 l 0,-3.172 C -3.474,0.225 -4.068,0.265 -4.068,0.265"
           style="fill:#000000;fill-opacity:1;fill-rule:nonzero;stroke:none"
           id="path15587" />
      </g>
      <g
         id="g15589"
         transform="matrix(1.25,0,0,-1.25,-860.02583,-175.98244)">
        <path
           d="m 0,0 -2.15,1.342 -4.14,-3.434 c 0.166,-0.15 0.208,-0.358 0.218,-0.465 l 0,-10e-4 c 0.006,-0.039 0.006,-0.067 0.006,-0.067 l 0,-3.962 c 0,0 -0.164,-1.723 1.47,-2.636 0,0 1.165,-0.692 2.233,-1.395 l 3.294,2.755 c 0,0 0.609,0.515 0.609,1.698 l 0,3.598 c 0,0 0.084,1.594 -1.54,2.567 m -1.473,-8.607 c 0,0 -0.765,0.271 -1.411,0.984 0,0 -0.433,0.387 -0.433,1.345 l 0,4.773 c 0,0 -0.033,0.429 0.294,0.746 l 1.155,-0.817 c 0,0 0.608,-0.449 0.608,-1.187 l 0,-4.965 c 0,0 0.043,-0.564 -0.213,-0.879"
           style="fill:#000000;fill-opacity:1;fill-rule:nonzero;stroke:none"
           id="path15591" />
      </g>
      <g
         id="g15593"
         transform="matrix(1.25,0,0,-1.25,-806.52658,-165.70356)">
        <path
           d="m 0,0 c -0.046,0.07 -0.085,0.176 -0.107,0.332 -0.019,0.123 -0.012,0.206 -0.012,0.206 l 0,6.038 c 0,0 0.044,2.04 -1.824,3.076 0,0 -2.742,-0.046 -5.268,-2.449 l 0,-1.007 c 0,0 1.174,1.464 2.785,2.038 0,0 1.576,-0.281 1.576,-2.284 l 0,-0.521 -2.798,-0.891 c 0,0 -2.558,-0.704 -2.558,-3.112 0,0 -0.017,-2.479 2.7,-3.587 l 2.656,2.154 c 0.061,-0.656 0.314,-1.573 1.151,-2.189 l 2.081,1.751 C 0.19,-0.309 0.073,-0.149 0,0 M -2.85,0.797 C -3.13,0.53 -3.691,0.073 -4.289,0.073 c 0,0 -0.938,-0.107 -0.938,1.106 l 0,1.748 c 0,0 -0.011,0.843 0.942,1.276 l 1.435,0.652 0,-4.058 z"
           style="fill:#000000;fill-opacity:1;fill-rule:nonzero;stroke:none"
           id="path15595" />
      </g>
      <g
         id="g15597"
         transform="matrix(1.25,0,0,-1.25,-902.30433,-176.97956)">
        <path
           d="m 0,0 -0.091,0.005 c 0,0 -0.026,0.002 -0.08,0.002 -0.369,0 -2.207,-0.111 -2.203,-2.308 0,-0.043 0.053,-1.011 0.401,-1.755 l 0.133,-0.285 0.047,0.312 c 0.008,0.043 0.184,1.069 1.263,1.069 0.131,0 0.269,-0.015 0.415,-0.046 L 0,-3.028 0,0 Z"
           style="fill:#000000;fill-opacity:1;fill-rule:nonzero;stroke:none"
           id="path15599" />
      </g>
      <g
         id="g15601"
         transform="matrix(1.25,0,0,-1.25,-884.4667,-176.19956)">
        <path
           d="m 0,0 -1.11,1.116 -2.699,-2.241 c 0,1.704 -0.961,2.25 -0.961,2.25 l -2.295,-1.881 c 0.253,-0.286 0.329,-0.591 0.35,-0.775 0.011,-0.098 0.006,-0.178 0.006,-0.178 l 0,-6.2 c 0,-1.981 1.199,-2.759 1.199,-2.759 l 2.169,1.769 c -0.242,0.166 -0.36,0.353 -0.42,0.502 -0.037,0.082 -0.049,0.173 -0.055,0.227 -0.001,0.031 -0.001,0.051 -0.001,0.051 l 0,6.258 c 0.554,0.421 1.024,0.398 1.024,0.398 0.998,0 0.974,-0.809 0.974,-0.809 l 0,-5.566 0,-3.135 c 0,0 2.79,0.997 2.79,3.135 l 0,5.518 C 0.971,-0.94 0,0 0,0"
           style="fill:#000000;fill-opacity:1;fill-rule:nonzero;stroke:none"
           id="path15603" />
      </g>
      <g
         id="g15605"
         transform="matrix(1.25,0,0,-1.25,-847.0952,-176.19956)">
        <path
           d="m 0,0 -1.11,1.116 -2.7,-2.241 c 0,1.704 -0.96,2.25 -0.96,2.25 l -2.296,-1.881 c 0.252,-0.286 0.328,-0.591 0.35,-0.775 0.013,-0.098 0.007,-0.178 0.007,-0.178 l 0,-6.2 c 0,-1.981 1.199,-2.759 1.199,-2.759 l 2.168,1.769 c -0.241,0.166 -0.361,0.353 -0.419,0.502 -0.039,0.082 -0.053,0.173 -0.055,0.227 -0.003,0.031 -0.003,0.051 -0.003,0.051 l 0,6.258 c 0.551,0.421 1.022,0.398 1.022,0.398 1,0 0.978,-0.809 0.978,-0.809 l 0,-5.566 0,-3.135 c 0,0 2.788,0.997 2.788,3.135 l 0,5.518 C 0.969,-0.94 0,0 0,0"
           style="fill:#000000;fill-opacity:1;fill-rule:nonzero;stroke:none"
           id="path15607" />
      </g>
      <g
         id="g15609"
         transform="matrix(1.25,0,0,-1.25,-837.8672,-165.75669)">
        <path
           d="M 0,0 C -1.205,0 -1.469,0.827 -1.522,1.319 0.091,2.355 1.332,3.65 1.332,3.65 2.073,4.416 2.071,5.38 2.071,5.38 2.071,6.253 1.329,7.067 1.329,7.067 0.247,8.31 -1.041,9.382 -1.041,9.382 L -4.477,6.665 c 0.119,-0.159 0.157,-0.328 0.168,-0.428 0.011,-0.051 0.007,-0.09 0.007,-0.09 l 0,-4.564 c 0,-1.461 0.753,-2.287 0.753,-2.287 0.88,-1.041 2.016,-1.735 2.016,-1.735 L 2.024,0.452 C 1.31,0.128 0.543,0.036 0.194,0.011 0.073,-0.006 0,0 0,0 m -1.524,6.27 c 1.418,-1.036 1.356,-2.207 1.356,-2.207 0,-1.046 -0.948,-1.775 -1.356,-2.041 l 0,4.248 z"
           style="fill:#000000;fill-opacity:1;fill-rule:nonzero;stroke:none"
           id="path15611" />
      </g>
      <g
         id="g15613"
         transform="matrix(1.25,0,0,-1.25,-898.08333,-185.47719)">
        <path
           d="m 0,0 c -0.086,-0.018 -0.178,-0.028 -0.274,-0.033 -0.046,-0.004 -0.075,-0.004 -0.075,-0.004 0,0 -0.012,-0.002 -0.033,-0.002 -0.104,0 -0.493,0.036 -1.142,0.499 -0.044,0.033 -1.084,0.828 -1.911,0.828 0,0 -0.019,0.002 -0.052,0.002 -0.28,0 -1.248,-0.073 -2.091,-1.011 -0.023,-0.033 -0.655,-0.816 -1.024,-1.774 l -0.024,-0.066 c 0.851,0.63 1.53,0.578 1.53,0.578 0.004,0 0.58,-0.005 1.171,-0.474 0.036,-0.03 0.899,-0.739 1.702,-0.739 0,0 0.04,-0.006 0.113,-0.006 0.438,0 1.964,0.198 3.411,2.703 C 0.826,0.182 0.324,0.051 0,0"
           style="fill:#000000;fill-opacity:1;fill-rule:nonzero;stroke:none"
           id="path15615" />
      </g>
      <g
         id="g15617"
         transform="matrix(1.25,0,0,-1.25,-899.63608,-179.65619)">
        <path
           d="M 0,0 C 0,0.231 0.016,0.439 0.041,0.623 0.079,0.997 0.149,1.474 0.279,1.877 L 0.272,1.875 C -1.128,1.063 -2.055,-0.2 -2.066,-0.218 -2.543,-0.946 -2.524,-1.852 -2.524,-1.89 l 0,-5.48 c 0,-0.953 -0.388,-1.429 -0.393,-1.433 L -3.15,-9.08 -2.811,-8.956 C 0.041,-7.913 0.001,-5.597 0,-5.574 L 0,0 Z"
           style="fill:#000000;fill-opacity:1;fill-rule:nonzero;stroke:none"
           id="path15619" />
      </g>
      <g
         id="g15621"
         transform="matrix(1.25,0,0,-1.25,-895.49845,-168.58894)">
        <path
           d="m 0,0 0,10.3 c 0,0 -0.095,2.33 1.321,3.979 C -0.243,13.16 -1.754,11.715 -1.768,11.7 -2.677,10.814 -2.575,9.735 -2.571,9.7 l 0,-10.814 c 0,-1.104 -0.764,-1.429 -0.8,-1.444 -0.179,-0.082 -0.36,-0.122 -0.543,-0.122 -0.643,0 -1.107,0.504 -1.11,0.509 l -0.892,1.008 c -0.905,1.031 -1.956,1.064 -2.077,1.064 -0.644,0 -1.187,-0.226 -1.618,-0.667 -0.993,-1.026 -1.087,-2.903 -1.091,-3.466 0.554,0.715 1.138,0.954 1.487,1.033 0.118,0.026 0.214,0.037 0.278,0.038 0.027,0 0.041,0 0.041,0 0.019,0 0.029,0 0.038,-10e-4 0.652,0 1.073,-0.36 1.086,-0.369 l 0.439,-0.315 c 1.674,-1.22 3.827,-0.353 4.335,-0.121 0.738,0.37 1.301,0.786 1.679,1.115 0.15,0.119 0.292,0.254 0.428,0.411 l 0.295,0.32 C 0.139,-1.082 0.003,-0.047 0,0"
           style="fill:#000000;fill-opacity:1;fill-rule:nonzero;stroke:none"
           id="path15623" />
      </g>
    </g>
  </g>
</svg>
